<?xml version="1.0" encoding="utf-8"?>
<!-- Generator: Adobe Illustrator 28.1.0, SVG Export Plug-In . SVG Version: 6.00 Build 0)  -->
<svg version="1.1" id="Layer_1" xmlns="http://www.w3.org/2000/svg" xmlns:xlink="http://www.w3.org/1999/xlink" x="0px" y="0px"
	 viewBox="0 0 65 65" style="enable-background:new 0 0 65 65;" xml:space="preserve">
<style type="text/css">
	.st0{fill-rule:evenodd;clip-rule:evenodd;fill:#BEECF6;}
	.st1{fill-rule:evenodd;clip-rule:evenodd;}
</style>
<path class="st0" d="M57.2,9.6H11.9c-2.7,0-4.8,2.2-4.8,4.8v32.1c0,2.7,2.1,4.8,4.8,4.8c0,0,0,0,0,0h5.6v8c0,0.9,0,1.6,0.9,1.6
	c0.4,0,0.1-0.2,0.4-0.5l9.2-9.2h29.1c2.7,0,4.8-2.1,4.8-4.8V14.5C62,11.8,59.8,9.6,57.2,9.6L57.2,9.6z"/>
<path class="st1" d="M53.1,5.9H7.9C5.2,5.9,3,8.1,3,10.8v32.1c0,2.7,2.1,4.8,4.8,4.8c0,0,0,0,0,0h5.6v8c0,0.9,0,1.6,0.9,1.6
	c0.4,0,0.1-0.2,0.4-0.5l9.2-9.2h29.1c2.7,0,4.8-2.1,4.8-4.8V10.8C57.9,8.1,55.8,6,53.1,5.9L53.1,5.9z M55.8,43.4
	c0,0.9-0.8,1.7-1.7,1.7l0,0H23.8c-0.4,0-0.9,0.2-1.2,0.5l-7.2,7.2v-6c0-0.9-0.8-1.7-1.7-1.7c0,0,0,0,0,0H6.9c-0.9,0-1.7-0.8-1.7-1.7
	V9.9c0-0.9,0.8-1.7,1.7-1.7h47.2c0.9,0,1.7,0.8,1.7,1.7V43.4z"/>
<path class="st1" d="M41.8,17.4c-1.4-1.6-3.4-2.4-5.5-2.4c-2.3,0-4.5,1.9-5.9,3.8c-1.3-1.9-3.5-3.8-5.9-3.8c-4.4,0-7.6,3.6-7.6,8
	c0,2.3,0.9,4.4,2.8,6.6c2.2,2.5,5.5,5.1,9.6,8.5c0.6,0.5,1.6,0.5,2.2,0c4-3.4,7.4-6,9.5-8.5c1.9-2.2,2.8-4.3,2.8-6.6
	C43.9,20.9,43.2,18.9,41.8,17.4L41.8,17.4z M32.6,33.6l-2.2,1.8l-2.2-1.8c-5.6-4.6-8.9-7.4-8.9-11c0-2.9,2-5.1,4.6-5.1
	c3.4,0,4.6,4,4.7,4.2c0.3,1,1.3,1.6,2.3,1.3c0.6-0.2,1.1-0.7,1.3-1.3c0,0,1.2-4.2,4.7-4.2c2.6,0,4.6,2.2,4.6,5.1
	C41.5,26.2,38.2,29,32.6,33.6z"/>
</svg>
