<?xml version="1.0" encoding="utf-8"?>
<svg xmlns="http://www.w3.org/2000/svg" id="Layer_1" style="enable-background:new 0 0 158 40;" version="1.1" viewBox="0 0 158 40" x="0px" y="0px">
<style type="text/css">
	.st0{fill-rule:evenodd;clip-rule:evenodd;fill:#0099D8;}
	.st1{fill-rule:evenodd;clip-rule:evenodd;fill:#FFFFFF;}
	.st2{fill-rule:evenodd;clip-rule:evenodd;fill:#2D2926;}
</style>
<path class="st0" d="M61,3.9c-4.9,0-9.1-1.2-13.4-3.3c-2.8,5.5-3.2,14.3-0.8,21.7C49.1,29.4,53.6,35.9,61,40&#xA;	c7.4-4.1,11.9-10.6,14.2-17.7c2.4-7.4,2-16.3-0.8-21.7C70.2,2.7,65.9,3.8,61,3.9z"/>
<path class="st0" d="M61,35.2L61,35.2L61,35.2L61,35.2z"/>
<path class="st1" d="M61,36.7L61,36.7L61,36.7c-6.1-3.8-9.3-9.2-11.4-15.3C47.8,16,47.3,9.7,49.3,4.7c3,1,4.8,1.4,6.5,1.6&#xA;	c1.5,0.2,2.9,0.4,5.2,0.4h0c2.3,0,3.6-0.2,5.2-0.4c1.7-0.3,3.4-0.6,6.5-1.6c2,4.9,1.6,11.3-0.3,16.7C70.3,27.5,67.1,32.9,61,36.7z"/>
<path class="st0" d="M61,8.2L61,8.2c-1.7,0-3.5-0.2-5.3-0.4c-1.8-0.2-3.5-0.6-5.3-1.1c-1.3,3.7-1,8.3,0,12.4&#xA;	c1.9,7.7,6.5,13.6,10.6,16.2c4.1-2.6,8.8-8.5,10.6-16.2c1-4.1,1.3-8.7,0-12.4c-1.8,0.5-3.6,0.9-5.3,1.1C64.5,8,62.7,8.2,61,8.2z"/>
<path class="st1" d="M65.4,11.9c-0.1,0.3-0.2,0.3-0.4,0.5c-0.4,0.4-1,0.8-1.5,1.3c-0.3,0.3-0.7,0.5-0.9,0.9&#xA;	c-0.1,0.1-0.2,0.3-0.2,0.3c-0.9-0.2-1.8-0.2-2.6-0.3l0-0.8c0,0,0.9,0,1-0.6c0,0,0-0.2-0.1-0.3c-0.1-0.1-0.4-0.2-0.5-0.2&#xA;	c0.7,0.1,1.3,0.4,2,0.7c0-0.1-0.1-0.3-0.1-0.4c-0.1-0.1-0.2-0.2-0.5-0.3c-0.4-0.1-1.5-0.2-1.5-0.2s0.4,0,0.9,0&#xA;	c0.2,0,0.5-0.1,0.5-0.2c0.1-0.1,0-0.3-0.2-0.4c-0.1-0.1-0.2-0.2-0.3-0.3c-0.1-0.1-0.2-0.4-0.4-0.6c-0.2-0.3-0.9-0.5-0.9-0.5&#xA;	s-0.1-0.5,0.1-0.7c0.1-0.2,0.5-0.2,0.6-0.1c0.5,0.3,1.1,0.6,1.8,0.7c0.1,0.1,0.2,0.1,0.2,0.4c0.1,0.5-0.1,1.2,0,1.5&#xA;	c0,0.1,0.1,0.1,0.2,0.1c0.6-0.3,1.1-1,1.7-1.2C64.7,10.8,65.6,11.3,65.4,11.9"/>
<path class="st1" d="M62.5,20.8c0,0,0.1-1.4,0.1-2c0.4-0.1,0.4-0.5,0.3-0.8c-0.1-0.2-0.4-0.3-0.5-0.3c-0.8-0.2-1.5-0.2-2.2-0.3&#xA;	c-0.7-0.1-1.2-0.2-1.9-0.3c-1.3-0.3-2.4-0.9-3-2.1c-0.7-1.5-0.1-3.3,1.3-4c1.1-0.5,2.2-0.4,3.3,0c0.4,0.1,0.6,0.5,0.8,0.8&#xA;	c0.1,0.1,0.3,0.2,0.3,0.4c0.1,0.1-0.1,0.1-0.1,0.1c-0.2,0.1-1,0.1-1.3,0c-0.3,0-0.8,0-1.2,0c0.3,0.2,0.7,0.4,1,0.6&#xA;	c0.2,0.1,0.4,0.1,0.5,0.2c0.1,0,0.3,0.1,0.3,0.2c0,0.1-0.2,0.1-0.3,0.2c-0.3,0.1-0.7,0.1-1.1,0c-0.6-0.1-0.9-0.5-1.3-0.3&#xA;	c-0.3,0.2-0.3,0.5-0.2,0.8c0.1,0.5,0.7,0.8,1.2,0.9c1.7,0.5,3.4,0.2,5,1.1c0.6,0.3,1.3,1,1.5,1.7C65.7,20.5,62.5,20.8,62.5,20.8"/>
<path class="st1" d="M59.9,17.9c0,0,0.3,0,1.1,0.1c0.6,0,1,0.2,1,0.2l-0.1,2.9c-0.7-0.1-1.1-0.2-1.7-0.3c-0.2-1.1-0.5-1.4-0.9-2.2&#xA;	c-0.1-0.2,0-0.2,0-0.3c0.1-0.1,0.5-0.2,0.5-0.2L59.9,17.9z"/>
<path class="st1" d="M64.3,24.3c-0.1,0.5-0.4,0.8-0.9,1.1c-0.5,0.3-1.1,0.3-1.1,0.3l0-1.6c0,0,0.1,0,0.2-0.1&#xA;	c0.1-0.1,0.1-0.2,0.1-0.3c0-0.1-0.1-0.2-0.2-0.3c-0.2-0.1-0.4-0.1-0.5-0.1c-0.8-0.1-1.5-0.2-2.3-0.3c-1.4-0.2-2.4-1-2.3-2.4&#xA;	c0.1-0.9,1-1.2,1.7-1.4c0.2,0.4,0.4,0.8,0.5,1c0.1,0.4,0.2,0.6,0.2,0.6s-0.3,0.1-0.3,0.3c0,0.2,0.3,0.3,0.4,0.3c1,0.1,2.3,0.3,3,0.5&#xA;	c0.5,0.2,0.9,0.4,1.2,0.8C64.3,23.3,64.4,23.7,64.3,24.3"/>
<path class="st1" d="M60.4,23.7c0.6,0.1,0.9,0.1,1.4,0.2l-0.1,2.6l-0.6-0.3l-0.6-0.3L60.4,23.7z"/>
<path class="st1" d="M62.9,30c-0.3,0.3-0.8,0.4-0.8,0.4l0-1.1c0,0,0.1-0.1,0.1-0.3c-0.1-0.2-0.9-0.8-1.3-0.9c-0.4-0.2-1-0.3-1.4-0.5&#xA;	c-1-0.4-1.3-1.3-0.9-2.2c0.1-0.3,0.5-0.6,0.7-0.7c0.2-0.1,0.6-0.2,0.6-0.2l0.1,1.3c0,0-0.1,0-0.2,0.2c-0.1,0.2,0.1,0.4,0.2,0.4&#xA;	c0.6,0.3,1.6,0.7,2.2,1c0.9,0.5,1.2,0.9,1.2,1.5C63.5,29.4,63.2,29.7,62.9,30"/>
<path class="st1" d="M61.7,32.8c0,0.2-0.1,0.4-0.5,0.4c-0.3,0-0.5-0.1-0.5-0.5c-0.1-1.5-0.1-4.4-0.1-4.4s0.4,0.1,0.6,0.3&#xA;	c0.1,0,0.3,0.2,0.5,0.4c0,0.1,0.1,0.1,0.1,0.2C61.7,30.3,61.7,32.3,61.7,32.8"/>
<path class="st1" d="M60,32.3c-0.1,0.3-0.3,0.2-0.4,0c-0.2-0.3-0.3-0.5-0.3-0.9c-0.1-0.7,0.3-1.1,0.5-1.3c0.2-0.2,0.4-0.3,0.4-0.3&#xA;	l0.1,1.2c0,0-0.2,0.1-0.3,0.5C59.9,32,60.1,32.2,60,32.3z"/>
<path class="st0" d="M59.4,11.6c0.2,0,0.2-0.1,0.4-0.2l0.2,0c-0.3-0.3-1-0.3-1.4-0.3c0.1,0.2,0.2,0.1,0.4,0.2&#xA;	C59.2,11.4,59.1,11.6,59.4,11.6z"/>
<path class="st0" d="M28.4,11.5v-11H11v11H0V29h11v11h17.5V29h11V11.5H28.4z"/>
<path class="st1" d="M26.3,28.7l-5-9.3c-0.4-0.8-0.2-2.1,1.2-2.3l7.2-0.7h0h0c0.4,1.2,0.7,2.5,0.7,3.8&#xA;	C30.5,23.7,28.8,26.7,26.3,28.7L26.3,28.7z"/>
<path class="st1" d="M25.6,29.2L25.6,29.2c-1.7,1.1-3.7,1.8-5.9,1.8c-2.2,0-4.2-0.7-5.9-1.8l0,0v0l0,0l5.3-7.9c0.4-0.5,1-0.5,1.3,0&#xA;	L25.6,29.2L25.6,29.2L25.6,29.2z"/>
<path class="st1" d="M9.6,16.4l7.2,0.7c1.4,0.2,1.5,1.5,1.2,2.3l-5,9.3l0,0c-2.5-2-4.1-5-4.1-8.5C8.9,18.9,9.1,17.6,9.6,16.4z"/>
<path class="st0" d="M19.7,23.1l-0.2,0.1l-3.6,5.6c1.2,0.5,2.4,0.8,3.8,0.8c1.3,0,2.6-0.3,3.8-0.8l-3.6-5.6L19.7,23.1z"/>
<path class="st0" d="M10.7,18c-0.2,0.7-0.3,1.4-0.3,2.2c0,2.3,0.8,4.4,2.2,6.1l3.8-7.3c0.1-0.2,0.1-0.4-0.3-0.4L10.7,18z"/>
<path class="st1" d="M29.4,15.7h-7.7c-1.1,0-1.6-0.7-1.6-1.2c0-0.6,0.1-0.8,0.6-1.5c0.6-0.7,0.2-2.2-1.1-2.2c-1.3,0-1.6,1.4-1.1,2.2&#xA;	c0.5,0.7,0.6,0.9,0.6,1.5c0,0.5-0.5,1.2-1.6,1.2H9.9c1.7-3.7,5.4-6.2,9.8-6.2C24,9.4,27.7,12,29.4,15.7z"/>
<path class="st0" d="M26.7,14.2c-1.2-1.4-2.7-2.4-4.5-2.9c0.5,0.9,0.1,2.1-0.4,2.7c-0.1,0.1,0,0.2,0,0.2H26.7z"/>
<path class="st0" d="M23.2,18.5c-0.4,0-0.4,0.2-0.3,0.4l3.8,7.3c1.4-1.6,2.2-3.7,2.2-6.1c0-0.8-0.1-1.5-0.3-2.2L23.2,18.5z"/>
<path class="st0" d="M12.6,14.2h4.9c0.1,0,0.1-0.1,0-0.2c-0.5-0.6-1-1.8-0.4-2.7C15.3,11.8,13.8,12.8,12.6,14.2z"/>
<path class="st2" d="M84.4,10.7V0.2h4c1.9-0.1,3.8,0.7,3.8,2.7c0,1.2-0.8,2-1.9,2.3v0c1.3,0.3,2.3,1.2,2.3,2.7&#xA;	c0,2.1-2.6,2.8-4.2,2.7H84.4z M88.5,4.4c0.9,0,1.5-0.4,1.5-1.2c0-0.8-0.5-1.2-1.5-1.2h-1.8v2.5H88.5z M88.5,9c1.1,0,1.8-0.2,1.8-1.4&#xA;	c0-1.2-0.7-1.4-1.8-1.4h-1.8V9H88.5z"/>
<path class="st2" d="M94.1,10.7h2.2V0.2h-2.2V10.7z"/>
<path class="st2" d="M102.9,9.8c-0.5,0.7-1.2,1.1-2.3,1.1c-0.7,0-2.1-0.6-2.4-1.6c-0.1-0.5-0.1-0.9-0.1-1.2V3.4h2.2v4.4&#xA;	c0,0.8,0.2,1.7,1.3,1.7c0.7,0,1.3-0.6,1.3-1.7V3.4h2.2v6c0,0.4,0,0.9,0.1,1.3H103L102.9,9.8z"/>
<path class="st2" d="M109,7.7c0,0.9,0.1,1.8,1.3,1.8c0.8,0,1.1-0.3,1.3-0.9h2c-0.2,1.8-1.6,2.4-3.3,2.4c-2.5,0-3.5-1.4-3.5-3.9&#xA;	c0-2.2,1.3-3.9,3.5-3.9c1.4,0,2.5,0.5,3.1,1.7c0.2,0.4,0.3,0.8,0.4,1.3c0.1,0.5,0.1,0.9,0.1,1.4H109z M111.5,6.2&#xA;	c0-0.8-0.2-1.5-1.3-1.5c-1,0-1.2,0.7-1.3,1.5H111.5z"/>
<path class="st2" d="M121.2,3.6c0-1.1-0.7-2-2-2c-1.6,0-2,2.4-2,3.8c0,1.5,0.4,3.8,2,3.8c1.4,0,2-0.9,2-2h2.4&#xA;	c-0.1,2.6-2,3.6-4.4,3.6c-3,0-4.4-2.4-4.4-5.5c0-3.1,1.4-5.5,4.4-5.5c2.4,0,4.3,1,4.4,3.6H121.2z"/>
<path class="st2" d="M126.7,3.4l0,1.3h0c0.5-1.2,1.4-1.4,2.5-1.4v1.9h-0.9c-0.4,0-0.8,0.2-1.1,0.5c-0.2,0.4-0.3,0.8-0.3,1.3v3.6&#xA;	h-2.2l0-5.9c0-0.3,0-0.9-0.1-1.5H126.7z"/>
<path class="st2" d="M134.1,11c-2.4,0-3.8-1.6-3.8-3.9c0-2.3,1.4-3.9,3.8-3.9c2.4,0,3.8,1.6,3.8,3.9C137.9,9.4,136.5,11,134.1,11&#xA;	 M134.1,9.5c1.3,0,1.6-1.3,1.6-2.4c0-1.2-0.2-2.4-1.6-2.4c-1.3,0-1.6,1.3-1.6,2.4C132.5,8.2,132.8,9.5,134.1,9.5"/>
<path class="st2" d="M143.2,5.4c0-0.5-0.5-0.7-1-0.7c-0.6,0-0.9,0.2-0.9,0.7c0,1.2,4.2,0.5,4.2,3.2c0,1.6-2,2.4-3.3,2.4&#xA;	c-1.7,0-3.2-0.7-3.2-2.3h2c0,0.6,0.6,0.9,1.2,0.9c0.6,0,1-0.2,1-0.8c0-0.6-1-0.8-1.5-0.9c-1.4-0.3-2.7-0.6-2.7-2.3&#xA;	c0-1.5,1.9-2.2,3.1-2.2c1.5,0,2.9,0.6,3,2.2H143.2z"/>
<path class="st2" d="M150.5,5.4c0-0.5-0.5-0.7-1-0.7c-0.6,0-0.9,0.2-0.9,0.7c0,1.2,4.2,0.5,4.2,3.2c0,1.6-2,2.4-3.3,2.4&#xA;	c-1.7,0-3.2-0.7-3.2-2.3h2c0,0.6,0.6,0.9,1.2,0.9c0.6,0,1.1-0.2,1.1-0.8c0-0.6-1.1-0.8-1.5-0.9c-1.4-0.3-2.7-0.6-2.7-2.3&#xA;	c0-1.5,1.9-2.2,3.1-2.2c1.5,0,2.9,0.6,3,2.2H150.5z"/>
<path class="st2" d="M84.4,25V14.5h4c1.9-0.1,3.8,0.7,3.8,2.7c0,1.2-0.8,2-1.9,2.3v0c1.3,0.3,2.3,1.2,2.3,2.7c0,2.1-2.6,2.8-4.2,2.7&#xA;	H84.4z M88.5,18.7c0.9,0,1.5-0.4,1.5-1.2c0-0.8-0.5-1.2-1.5-1.2h-1.8v2.5H88.5z M88.5,23.3c1.1,0,1.8-0.2,1.8-1.4&#xA;	c0-1.2-0.7-1.4-1.8-1.4h-1.8v2.8H88.5z"/>
<path class="st2" d="M94.1,25h2.2V14.5h-2.2V25z"/>
<path class="st2" d="M102.9,24.1c-0.5,0.7-1.2,1.1-2.3,1.1c-0.7,0-2.1-0.6-2.4-1.6c-0.1-0.5-0.1-0.9-0.1-1.2v-4.8h2.2v4.4&#xA;	c0,0.8,0.2,1.7,1.3,1.7c0.7,0,1.3-0.6,1.3-1.7v-4.4h2.2v6c0,0.4,0,0.9,0.1,1.3H103L102.9,24.1z"/>
<path class="st2" d="M109,21.9c0,0.9,0.1,1.8,1.3,1.8c0.8,0,1.1-0.3,1.3-0.9h2c-0.2,1.8-1.6,2.4-3.3,2.4c-2.5,0-3.5-1.4-3.5-3.9&#xA;	c0-2.2,1.3-3.9,3.5-3.9c1.4,0,2.5,0.5,3.1,1.7c0.2,0.4,0.3,0.8,0.4,1.3c0.1,0.5,0.1,0.9,0.1,1.4H109z M111.5,20.5&#xA;	c0-0.8-0.2-1.5-1.3-1.5c-1,0-1.2,0.7-1.3,1.5H111.5z"/>
<path class="st2" d="M120.9,17.5c-0.1-1.1-0.7-1.6-1.8-1.6c-0.8,0-1.7,0.4-1.7,1.4c0,1.1,1,1.3,1.9,1.5c1.6,0.4,4,0.9,4,3&#xA;	c0,2.6-2.3,3.5-4.5,3.5c-2.4,0-4.1-0.9-4-3.6h2.3c-0.1,1.2,0.6,2,1.8,2c0.9,0,2.1-0.3,2.1-1.4c0-1.2-1.5-1.3-2.4-1.6&#xA;	c-1.5-0.4-3.5-1-3.5-2.9c0-2.4,2.2-3.5,4.4-3.5c2,0,3.6,1.1,3.6,3.2H120.9z"/>
<path class="st2" d="M124.9,25V14.5h2.2v4.1l0,0c0.5-0.7,1.1-1.1,2.2-1.1c0.7,0,2.1,0.5,2.4,1.6c0.1,0.5,0.1,0.9,0.1,1.2V25h-2.2&#xA;	v-4.4c0-0.8-0.2-1.7-1.3-1.7c-0.7,0-1.3,0.6-1.3,1.7V25H124.9z"/>
<path class="st2" d="M133.7,16.4h2.3v-1.9h-2.3V16.4z M133.8,25h2.2v-7.3h-2.2V25z"/>
<path class="st2" d="M139.8,21.9c0,0.9,0.1,1.8,1.3,1.8c0.8,0,1.1-0.3,1.3-0.9h2c-0.2,1.8-1.6,2.4-3.3,2.4c-2.5,0-3.5-1.4-3.5-3.9&#xA;	c0-2.2,1.3-3.9,3.5-3.9c1.4,0,2.5,0.5,3.1,1.7c0.2,0.4,0.3,0.8,0.4,1.3c0.1,0.5,0.1,0.9,0.1,1.4H139.8z M142.3,20.5&#xA;	c0-0.8-0.2-1.5-1.3-1.5c-1,0-1.2,0.7-1.3,1.5H142.3z"/>
<path class="st2" d="M146,25h2.2V14.5H146V25z"/>
<path class="st2" d="M155.1,14.5h2.2v9.1c0,0.5,0,1,0.1,1.5h-2.2c0-0.4-0.1-0.7-0.1-1h0c-0.5,0.9-1.3,1.3-2.2,1.3&#xA;	c-2.1,0-3.1-2-3.1-3.9c0-2,1.2-3.9,3.4-3.9c0.8,0,1.5,0.5,2,1.1h0V14.5z M153.5,23.8c1.2,0,1.6-1.4,1.6-2.4c0-1-0.4-2.4-1.6-2.4&#xA;	c-1.4,0-1.6,1.3-1.6,2.4C151.9,22.5,152.1,23.8,153.5,23.8L153.5,23.8z"/>
<path class="st2" d="M69.2,38.1v-0.5h0.3c0.2,0,0.4,0,0.4,0.2c0,0.3-0.2,0.3-0.4,0.3H69.2z M69.2,38.3h0.3l0.4,0.7h0.3l-0.5-0.7&#xA;	c0.2,0,0.4-0.2,0.4-0.5c0-0.3-0.2-0.5-0.6-0.5h-0.6V39h0.3V38.3z M69.5,39.6c0.8,0,1.5-0.6,1.5-1.5c0-0.8-0.7-1.5-1.5-1.5&#xA;	c-0.8,0-1.5,0.6-1.5,1.5C68,39,68.7,39.6,69.5,39.6L69.5,39.6z M68.3,38.2c0-0.7,0.5-1.2,1.2-1.2c0.7,0,1.2,0.5,1.2,1.2&#xA;	c0,0.7-0.5,1.2-1.2,1.2C68.8,39.4,68.3,38.9,68.3,38.2L68.3,38.2z"/>
<path class="st2" d="M31.5,38.4v-0.5h0.3c0.2,0,0.4,0,0.4,0.2c0,0.3-0.2,0.3-0.4,0.3H31.5z M31.5,38.6h0.3l0.4,0.7h0.3L32,38.6&#xA;	c0.2,0,0.4-0.2,0.4-0.5c0-0.3-0.2-0.5-0.6-0.5h-0.6v1.7h0.3V38.6z M31.8,40c0.8,0,1.5-0.6,1.5-1.5c0-0.8-0.7-1.5-1.5-1.5&#xA;	c-0.8,0-1.5,0.6-1.5,1.5C30.3,39.3,31,40,31.8,40L31.8,40z M30.6,38.5c0-0.7,0.5-1.2,1.2-1.2c0.7,0,1.2,0.5,1.2,1.2&#xA;	c0,0.7-0.5,1.2-1.2,1.2C31.1,39.7,30.6,39.2,30.6,38.5L30.6,38.5z"/>
<path class="st2" d="M91.2,36L89,30.2L86.7,36H91.2z M84.4,39.6l4.1-10.2h1.1l4.1,10.2h-1l-1.1-2.8h-5.1l-1.1,2.8H84.4z"/>
<path class="st2" d="M95.5,39.6h-0.8v-5.5c0-0.6,0-1.1-0.1-1.6h0.9l0,1h0c0.3-0.7,0.9-1.2,1.6-1.3c0.3,0,0.6,0,0.9,0v0.8&#xA;	c-0.2,0-0.4-0.1-0.5-0.1c-1.3,0-1.9,0.9-2,2.3V39.6z"/>
<path class="st2" d="M99.1,39.6h0.8v-7.1h-0.8V39.6z M99,30.4h1v-1.1h-1V30.4z"/>
<path class="st2" d="M101.4,38.8l4.2-5.6h-4.2v-0.8h5.2v0.8l-4.1,5.6h4.1v0.8h-5.2V38.8z"/>
<path class="st2" d="M110.9,33.1c-1.7,0-2.4,1.7-2.4,3c0,1.3,0.7,3,2.4,3c1.7,0,2.4-1.7,2.4-3C113.3,34.7,112.6,33.1,110.9,33.1&#xA;	 M114.2,36.1c0,1.9-1,3.8-3.3,3.8c-2.3,0-3.3-1.9-3.3-3.8c0-1.9,1.1-3.8,3.3-3.8C113.2,32.3,114.2,34.2,114.2,36.1"/>
<path class="st2" d="M116.6,39.6h-0.9v-5.5c0-0.6,0-1.1-0.1-1.6h0.9l0,1.1l0,0c0.5-0.9,1.3-1.3,2.2-1.3c2.3,0,2.5,2.1,2.5,2.9v4.5&#xA;	h-0.9V35c0-1.2-0.7-2-1.9-2c-1.4,0-2,1.2-2,2.5V39.6z"/>
<path class="st2" d="M125.3,39.1c1.9,0,2.2-1.5,2.1-3c-1.2,0-3.7-0.2-3.7,1.6C123.7,38.6,124.4,39.1,125.3,39.1L125.3,39.1z&#xA;	 M127.4,34.6c-0.1-1.2-0.7-1.5-1.7-1.5c-0.9,0-1.6,0.3-1.7,1.2h-0.9c0.2-1.5,1.3-2,2.7-2c1.6,0,2.6,0.7,2.5,2.4V38&#xA;	c0,0.6,0,1.1,0.1,1.6h-0.9l0-1.1h0l0,0.1c-0.3,0.6-1.3,1.2-2.2,1.2c-1.3,0-2.4-0.8-2.4-2.2c0-1,0.6-1.7,1.4-2.1&#xA;	c0.9-0.4,2.2-0.3,3.2-0.3V34.6z"/>
</svg>