<?xml version="1.0" encoding="utf-8"?>
<svg xmlns="http://www.w3.org/2000/svg" data-name="Layer 1" id="Layer_1" viewBox="0 0 80 80">
  <defs>
    <style>
      .cls-1 {
        fill: none;
      }

      .cls-2 {
        mask: url(#mask);
      }

      .cls-3 {
        fill: #0b3b60;
        fill-rule: evenodd;
      }

      .cls-4 {
        fill: #98e1ff;
      }

      .cls-5 {
        fill: #fff;
      }

      .cls-6 {
        clip-path: url(#clippath);
      }
    </style>
    <clipPath id="clippath">
      <rect class="cls-1" height="46" width="38" x="19" y="16"/>
    </clipPath>
    <mask height="46" id="mask" maskUnits="userSpaceOnUse" width="37.77" x="18.95" y="16.05">
      <g data-name="mask0 738 4676" id="mask0_738_4676">
        <path class="cls-5" d="M19,16.05h37.72v45.95H19V16.05Z"/>
      </g>
    </mask>
  </defs>
  <circle class="cls-4" cx="40" cy="40" r="40"/>
  <g class="cls-6">
    <g class="cls-2">
      <path class="cls-3" d="M24.62,23.76s-.06.01-.1.02c.03,0,.06-.02.1-.02ZM21.5,25.2s-.04.07-.05.11c.02-.05.04-.09.05-.11ZM22.39,39.82c.1.02.2.06.29.12-.08-.06-.18-.1-.29-.12ZM21.6,41.53s-.04.07-.05.11c.02-.05.04-.09.05-.11ZM20.84,43.36s-.02.08-.02.1c0-.04.01-.07.02-.1ZM43.28,60.26c.25,0,.96.02,3.17.07,2.76.06,6.72.15,8.64.18v-7.35s.05-14.86.05-14.86v-8.17s.05-5.56.05-5.56v-6.52c-4.22-.05-23.87-.32-28.23-.43l-.16,5.49s0,.05,0,.08c-.01.09-.05.26-.12.41-.04.07-.3.63-.3.63-.02.05-.05.1-.09.15l-.45.59c-.12.13-.32.32-.63.36-.06,0-.15.02-.53-.02-.33-.01-.66-.22-.79-.63-.01-.04-.04-.1-.07-.15-.01-.01-.02-.02-.03-.03-.02-.01-.06-.05-.11-.1-.04,0-.08,0-.13,0-.03,0-.27.02-.52-.1-.03-.01-.1-.05-.18-.1l-.1.03s-.1.09-.15.13c-.02.09-.03.17-.03.17,0,.01,0,.03,0,.04.07.14.15.33.27.6.13.27.11.6-.04.85,0,.02-.04.11-.07.17,0,.06,0,.12,0,.2,0,0,0,.02,0,.02.04.1.08.28.2.89.02.09.02.18,0,.27l-.11.74s0,.07.01.13c0,.03.01.07.02.11.05.17.24.71.24.71.01.03.02.06.03.09l.02.11c.02.1.02.21,0,.31.01.11.03.33.06.83,0,.16-.03.45-.26.69l-.18.18c.03.29.03.34.02.42,0,.01-.01.2-.02.38h0s-.02.34-.02.34c0,0,0,.1,0,.19,0,.04.01.1.02.15.05.07.1.14.16.24.1.15.21.33.29.42.03.03.06.07.08.1.04.07.1.17.14.28.08.12.12.25.15.33.11.22.16.37.18.51,0,.03.02.12.03.19.04.07.1.17.18.34.03.05.05.11.06.16,0,.04.04.17.04.35v.08c.19.15.46.38.61.52.07.07.11.1.14.12.07.05.12.09.22.2.1.11.21.23.22.23.06.06.11.14.15.22.05.1.15.38.04.68-.03.09-.05.15-.37.6-.02.03-.04.06-.07.08-.05.06-.2.2-.35.3-.02.02-.09.07-.17.13-.17.12-.37.28-.52.38-.18.11-.25.15-.3.18-.04.02-.08.06-.12.08v.02s-.08.23-.08.23c-.01.04-.03.08-.05.12-.04.08-.16.27-.39.4.03.15.02.32-.03.47l-.03.1s0,.09,0,.14c0,.05-.02.14,0,.21.02.1.03.18.04.22.05.17.08.45-.07.71-.02.04-.14.33-.14.33,0,.02-.02.04-.03.07,0,.06-.03.14-.06.25,0,.03,0,.06,0,.09,0,.1-.04.27-.15.46-.04.07-.18.28-.27.4,0,.03-.02.05-.03.07-.02.04-.06.14-.14.24-.01.03-.13.26-.13.26-.06.12-.15.21-.26.28-.08.06-.18.14-.26.21.02.05.05.11.07.17.08.2.11.35.09.49,0,.1,0,.32,0,.32,0,.05,0,.11,0,.16-.01.08-.03.18-.07.28.08.02.18.06.24.08.02.01.07.04.13.06.04.02.09.05.12.06.29.09.51.33.59.61.12.31.18.51.15.73,0-.03.01.02.02.09,0,.1.02.22.03.38.06.32-.07.66-.34.86-.03.02-.1.08-.18.14,0,.04,0,.07,0,.07-.03.37-.34.69-.73.74-.05,0-.14.02-.52-.01-.06,0-.1-.01-.16-.03,0,0,0,0-.01,0l-.25.47c1.59.69,6.43,2.77,8.48,3.65l12.85,5.37s1.17.49,1.28.55c.01,0,.03.01.04.02ZM55.87,62.05h0c-1.35,0-6.22-.12-9.44-.19-1.69-.04-2.99-.07-3.18-.07-.25,0-.49-.08-.68-.18-.14-.06-1.18-.5-1.18-.5l-12.86-5.38c-8.97-3.85-9.06-3.9-9.09-3.91-.38-.19-.56-.63-.44-1.06.01-.07.03-.19.05-.27.04-.18.15-.36.2-.45l.32-.61c.04-.28.23-.52.5-.62l.52-.19c.13-.05.26-.06.39-.03,0,0,0-.02.01-.02.05-.07.1-.13.17-.19,0,0,.05-.04.12-.1,0-.03,0-.06,0-.08-.01-.1-.02-.19-.02-.27-.01,0-.03-.01-.04-.02-.08-.04-.13-.05-.13-.05l-.34-.07c-.24-.05-.44-.19-.56-.39-.05-.08-.08-.17-.1-.27,0-.03-.03-.11-.05-.16-.16-.28-.07-.62-.04-.73,0,0,.06-.21.1-.33,0-.1,0-.18,0-.24-.02-.04-.04-.1-.06-.14-.17-.24-.21-.54-.12-.81,0,0,.11-.3.14-.36l.09-.19c.05-.11.12-.2.22-.27,0,0,.25-.2.34-.28,0,0,0,0,0,0,.05-.09.11-.19.15-.26.02-.09.06-.17.12-.24,0,0,.11-.16.2-.28,0-.08.02-.15.04-.22,0,0,.04-.1.05-.17.02-.14.06-.29.15-.45.02-.05.05-.12.09-.2,0-.05-.02-.1-.03-.16-.04-.22-.02-.47-.01-.6h0c0-.05,0-.13.02-.25,0-.04.01-.09.02-.13-.01-.11,0-.22.02-.33.01-.11.04-.3.06-.37.05-.22.16-.38.2-.43.03-.04.07-.08.1-.11.09-.08.17-.14.23-.19.09-.24.12-.3.15-.34l.07-.12c.05-.09.13-.18.21-.24,0,0,.18-.13.29-.2.07-.05.11-.07.17-.1.03-.02.07-.04.17-.1.12-.08.3-.21.44-.32.06-.04.12-.09.16-.12-.03-.03-.07-.06-.11-.1-.16-.15-.53-.45-.66-.55-.21-.14-.31-.34-.35-.43-.04-.09-.06-.19-.06-.28v-.37c-.04-.06-.08-.13-.1-.17-.03-.03-.13-.17-.21-.69-.02-.05-.05-.1-.06-.13-.01-.03-.04-.09-.05-.13-.07-.1-.11-.19-.13-.26-.11-.13-.22-.31-.37-.52-.04-.07-.08-.13-.11-.17-.15-.15-.24-.36-.27-.6-.02-.1-.05-.3-.06-.42,0-.13,0-.29,0-.29l.02-.37c0-.15.02-.31.02-.4,0-.11-.04-.36-.05-.42-.04-.37.16-.66.25-.76l.19-.2c0-.16-.02-.37-.03-.45-.02-.11-.03-.22-.02-.31-.25-.73-.26-.77-.27-.86l-.02-.12s-.01-.07-.01-.11c0,0-.01-.39,0-.45l.1-.66c-.03-.15-.08-.38-.1-.49-.03-.07-.06-.19-.09-.38,0-.05-.01-.1-.01-.15,0,0,0-.1,0-.17-.05-.25.03-.49.1-.63,0-.02.02-.05.04-.08-.07-.16-.16-.37-.21-.46-.1-.15-.16-.33-.15-.52,0-.15.05-.29.12-.42.01-.08.03-.17.03-.21.01-.12.06-.25.13-.38.04-.08.1-.15.17-.21,0,0,.39-.34.44-.38.12-.09.25-.15.32-.18.03-.01.05-.02.08-.03l.38-.1c.17-.04.31-.04.36-.04.11,0,.22.04.32.09,0,0,.15.08.26.14.03,0,.07,0,.09,0,.26-.07.53.03.62.08.06.03.12.07.17.12,0,0,.36.34.4.38.04.03.08.07.12.12l.03-.04c.06-.13.19-.41.25-.53l.04-.98.14-5.18c0-.21.09-.4.24-.54.15-.14.35-.21.55-.2,1.59.08,29.46.46,29.68.46.42,0,.76.34.76.77v7.28s-.04,5.56-.04,5.56l-.02,15.43-.04,7.6v7.44c.02.12.04.54.01.76-.04.39-.37.68-.76.68Z"/>
    </g>
  </g>
</svg>