<?xml version="1.0" encoding="utf-8"?>
<svg xmlns="http://www.w3.org/2000/svg" data-name="Layer 1" id="Layer_1" viewBox="0 0 80 80">
  <defs>
    <style>
      .cls-1 {
        mask: url(#mask);
      }

      .cls-2 {
        fill: #0b3b60;
        fill-rule: evenodd;
      }

      .cls-3 {
        fill: #98e1ff;
      }

      .cls-4 {
        fill: #fff;
      }
    </style>
    <mask height="40.27" id="mask" maskUnits="userSpaceOnUse" width="35.33" x="23.29" y="19.79">
      <g data-name="mask0 738 4665" id="mask0_738_4665">
        <path class="cls-4" d="M23.29,19.79h35.33v40.21H23.29V19.79Z"/>
      </g>
    </mask>
  </defs>
  <circle class="cls-3" cx="40" cy="40" r="40"/>
  <g class="cls-1">
    <g>
      <path class="cls-2" d="M40.95,21.79c-3.86,0-7,3.14-7,7s3.14,7,7,7,7-3.14,7-7-3.14-7-7-7ZM40.95,37.78c-4.96,0-9-4.04-9-9s4.04-9,9-9,9,4.04,9,9-4.04,9-9,9ZM40.46,42.24c-6.83,0-15.17,5.67-15.17,12.28v.66c0,1.59,1.29,2.88,2.88,2.88h25.57c1.59,0,2.88-1.29,2.88-2.88v-.66c0-6.61-8.52-12.28-15.5-12.28h-.66ZM53.73,60.06h-25.57c-2.69,0-4.88-2.19-4.88-4.88v-.66c0-7.91,9.39-14.28,17.17-14.28h.66c7.93,0,17.5,6.37,17.5,14.28v.66c0,2.69-2.19,4.88-4.88,4.88Z"/>
      <path class="cls-2" d="M40.46,42.24c-6.83,0-15.17,5.67-15.17,12.28v.66c0,1.59,1.29,2.88,2.88,2.88h25.57c1.59,0,2.88-1.29,2.88-2.88v-.66c0-6.61-8.52-12.28-15.5-12.28h-.66ZM53.73,60.06h-25.57c-2.69,0-4.88-2.19-4.88-4.88v-.66c0-7.91,9.39-14.28,17.17-14.28h.66c7.93,0,17.5,6.37,17.5,14.28v.66c0,2.69-2.19,4.88-4.88,4.88Z"/>
    </g>
  </g>
  <path class="cls-2" d="M58.62,25.87c-2.46,0-4.46,2-4.46,4.46s2,4.46,4.46,4.46,4.46-2,4.46-4.46-2-4.46-4.46-4.46ZM58.62,36.79c-3.56,0-6.46-2.9-6.46-6.46s2.9-6.46,6.46-6.46,6.46,2.9,6.46,6.46-2.9,6.46-6.46,6.46ZM23.32,25.87c-2.46,0-4.46,2-4.46,4.46s2,4.46,4.46,4.46,4.46-2,4.46-4.46-2-4.46-4.46-4.46ZM23.32,36.79c-3.56,0-6.46-2.9-6.46-6.46s2.9-6.46,6.46-6.46,6.46,2.9,6.46,6.46-2.9,6.46-6.46,6.46ZM58.73,38.91h-.45c-2.27,0-4.74.79-6.85,2.11.62.35,1.22.73,1.79,1.14,1.61-.85,3.4-1.35,5.06-1.35h.45c4.54,0,10.31,3.82,10.31,8.11v.45c0,.94-.76,1.7-1.7,1.7h-7.31c.2.63.36,1.27.46,1.9h6.85c1.98,0,3.6-1.61,3.6-3.6v-.45c0-5.55-6.68-10.01-12.21-10.01ZM21.86,51.07h-7.26c-.94,0-1.7-.76-1.7-1.7v-.45c0-4.37,5.55-8.11,10.08-8.11h.45c1.66,0,3.47.51,5.11,1.36.58-.42,1.19-.81,1.82-1.18-2.14-1.3-4.63-2.08-6.93-2.08h-.45c-5.43,0-11.98,4.47-11.98,10.01v.45c0,1.98,1.61,3.6,3.6,3.6h6.81c.09-.63.25-1.27.45-1.9Z"/>
</svg>