<?xml version="1.0" encoding="utf-8"?>
<svg xmlns="http://www.w3.org/2000/svg" data-name="Layer 1" id="Layer_1" viewBox="0 0 80 80">
  <defs>
    <style>
      .cls-1 {
        fill: none;
      }

      .cls-2 {
        fill: #98e1ff;
      }

      .cls-3 {
        fill: #002c4e;
      }

      .cls-4 {
        clip-path: url(#clippath);
      }
    </style>
    <clipPath id="clippath">
      <rect class="cls-1" height="45" width="59" x="12" y="17"/>
    </clipPath>
  </defs>
  <circle class="cls-2" cx="40" cy="40" r="40"/>
  <g class="cls-4">
    <g>
      <path class="cls-3" d="M40.96,41.73c-.29,0-.57-.08-.83-.23-2.34-1.39-13.98-8.7-13.98-16.12,0-4.62,3.79-8.38,8.46-8.38,2.46,0,4.75,1.04,6.36,2.87,1.6-1.83,3.89-2.87,6.36-2.87,2.26,0,4.38.87,5.98,2.46,1.6,1.58,2.48,3.69,2.48,5.93,0,7.41-11.65,14.73-13.98,16.12-.25.15-.54.23-.83.23ZM34.6,19.06c-3.52,0-6.38,2.84-6.38,6.33,0,6.16,10.63,12.93,12.74,14.21,2.12-1.28,12.74-8.06,12.74-14.21,0-1.69-.66-3.28-1.87-4.47-1.2-1.19-2.81-1.86-4.52-1.86-2,0-3.85.91-5.07,2.5-.62.81-1.95.8-2.57,0-1.22-1.59-3.07-2.5-5.07-2.5Z"/>
      <path class="cls-3" d="M39.15,62c-.24,0-.46-.12-.58-.3-.15-.13-.26-.33-.26-.54-.01-3.61-.98-8.51-3.69-11.42-1.96-2.11-10.34-10.88-11.65-11.92-.91-.73-2.34-1.18-3.36-.08-.46.49-.7,1.15-.7,1.86s.25,1.37.7,1.86l5.76,6.22c.25.27.25.69,0,.96l-.09.1c-.13.15-.32.23-.53.23s-.39-.08-.53-.23l-5.76-6.22c-.72-.78-1.12-1.81-1.12-2.92,0-.99.32-1.93.91-2.67v-9.5c0-1.43-1.06-2.59-2.34-2.59s-2.34,1.16-2.34,2.59v12.88c0,2.78.86,5.07,2.62,6.99l9.98,8.55s.04.03.06.06c1.04,1.12,1.42,4.29,1.43,5.25,0,.22-.1.42-.26.55-.13.18-.34.31-.58.31-.39,0-.72-.32-.72-.71v-.07c0-1.21-.45-3.61-.99-4.24l-9.97-8.54s-.04-.03-.06-.06c-2.07-2.23-3.07-4.88-3.07-8.08v-12.88c0-2.29,1.75-4.15,3.9-4.15s3.9,1.86,3.9,4.15v8.34c1.16-.45,2.66-.33,4.12.83,1.51,1.19,10.33,10.48,11.82,12.08,2.57,2.78,4.11,7.47,4.11,12.55v.07c0,.39-.32.71-.72.71Z"/>
      <path class="cls-3" d="M55.12,62c-.25,0-.46-.12-.58-.3-.16-.13-.26-.33-.26-.56.01-.96.39-4.13,1.43-5.24.02-.02.04-.04.06-.06l9.99-8.56c1.77-1.92,2.62-4.21,2.62-6.99v-12.88c0-1.43-1.05-2.59-2.34-2.59s-2.34,1.16-2.34,2.59v9.5c.59.75.91,1.68.91,2.67,0,1.1-.4,2.13-1.12,2.92l-5.76,6.21c-.13.15-.32.23-.53.23s-.39-.08-.53-.23l-.09-.1c-.25-.27-.25-.69,0-.96l5.76-6.22c.46-.49.7-1.15.7-1.86s-.25-1.37-.7-1.86c-1.02-1.09-2.45-.64-3.36.08-1.29,1.03-9.69,9.8-11.64,11.92-2.7,2.92-3.68,7.82-3.69,11.42,0,.22-.1.41-.26.54-.13.18-.34.31-.58.31-.39,0-.72-.32-.72-.71v-.07c0-5.08,1.53-9.78,4.11-12.55,1.48-1.6,10.33-10.89,11.82-12.08,1.46-1.16,2.95-1.28,4.12-.83v-8.34c0-2.29,1.75-4.15,3.9-4.15s3.9,1.86,3.9,4.15v12.88c0,3.21-1.01,5.85-3.07,8.08-.02.02-.04.04-.06.06l-9.98,8.56c-.53.63-.98,3.03-.98,4.23v.07c0,.39-.32.71-.72.71h-.01Z"/>
    </g>
  </g>
</svg>