<?xml version="1.0" encoding="UTF-8" standalone="no"?>
<!DOCTYPE svg PUBLIC "-//W3C//DTD SVG 1.1//EN" "http://www.w3.org/Graphics/SVG/1.1/DTD/svg11.dtd">
<svg xmlns="http://www.w3.org/2000/svg" version="1.1" viewBox="0.00 0.00 55.00 55.00">
<path stroke="#0099d8" stroke-opacity="0.808" stroke-width="2.00" fill="none" stroke-linecap="butt" vector-effect="non-scaling-stroke" d="
  M 40.97 27.50
  A 13.48 13.48 0.0 0 0 27.49 14.02
  A 13.48 13.48 0.0 0 0 14.01 27.50
  A 13.48 13.48 0.0 0 0 27.49 40.98
  A 13.48 13.48 0.0 0 0 40.97 27.50"
/>
<path fill="#0099d9" fill-opacity="0.361" d="
  M 50.87 27.62
  A 23.34 23.34 0.0 0 1 27.53 50.96
  A 23.34 23.34 0.0 0 1 4.19 27.62
  A 23.34 23.34 0.0 0 1 27.53 4.28
  A 23.34 23.34 0.0 0 1 50.87 27.62
  Z
  M 45.95 27.53
  A 18.49 18.49 0.0 0 0 27.46 9.04
  A 18.49 18.49 0.0 0 0 8.97 27.53
  A 18.49 18.49 0.0 0 0 27.46 46.02
  A 18.49 18.49 0.0 0 0 45.95 27.53
  Z"
/>
<circle fill="#0099d8" cx="27.49" cy="27.50" r="13.48"/>
<path fill="#0099d8" fill-opacity="0.616" d="
  M 45.95 27.53
  A 18.49 18.49 0.0 0 1 27.46 46.02
  A 18.49 18.49 0.0 0 1 8.97 27.53
  A 18.49 18.49 0.0 0 1 27.46 9.04
  A 18.49 18.49 0.0 0 1 45.95 27.53
  Z
  M 40.97 27.50
  A 13.48 13.48 0.0 0 0 27.49 14.02
  A 13.48 13.48 0.0 0 0 14.01 27.50
  A 13.48 13.48 0.0 0 0 27.49 40.98
  A 13.48 13.48 0.0 0 0 40.97 27.50
  Z"
/>
<path fill="#01a2f1" fill-opacity="0.200" d="
  M 54.07 27.50
  A 26.58 26.58 0.0 0 1 27.49 54.08
  A 26.58 26.58 0.0 0 1 0.91 27.50
  A 26.58 26.58 0.0 0 1 27.49 0.92
  A 26.58 26.58 0.0 0 1 54.07 27.50
  Z
  M 50.87 27.62
  A 23.34 23.34 0.0 0 0 27.53 4.28
  A 23.34 23.34 0.0 0 0 4.19 27.62
  A 23.34 23.34 0.0 0 0 27.53 50.96
  A 23.34 23.34 0.0 0 0 50.87 27.62
  Z"
/>
</svg>
