<svg xmlns="http://www.w3.org/2000/svg" version="1.1" width="464.00" height="294.00"><rect id="backgroundrect" width="100%" height="100%" x="0" y="0" fill="none" stroke="none"/>

<g class="currentLayer" style=""><title>Layer 1</title><path fill="#5b9a9e" d="M195.59,57.49774834871292 A2.31,2.3 37 0 0 192.86,57.87774834871292 Q189.84,60.857748348712924 187.38,65.47774834871292 Q181.35,76.81774834871293 176.89,89.20774834871293 Q168.82,111.62774834871293 161.11,143.5077483487129 Q157.82,157.10774834871293 156.87,161.46774834871292 Q146.9,207.30774834871292 141.41,245.73774834871293 Q140.48,252.27774834871292 140.38,252.7577483487129 Q139.96,254.85774834871293 139.99,256.4277483487129 C140.02,258.0977483487129 139.34,259.4877483487129 139.13,261.3377483487129 C138.63,265.8577483487129 136.68,275.6577483487129 132.51,277.56774834871294 Q125.33,280.8677483487129 123.21,281.06774834871294 C119.86,281.38774834871293 116.51,282.3477483487129 113.24,282.3577483487129 Q102.04,282.37774834871294 99.97,282.3677483487129 Q94.93,282.3477483487129 92.07,281.68774834871294 C89.77,281.1477483487129 84.22,279.8977483487129 83.13,277.5277483487129 Q80.08,270.94774834871293 81.39,264.1577483487129 C82.39,258.9677483487129 81.68,254.05774834871292 82.41,249.15774834871291 Q82.85,246.15774834871291 83.01,242.86774834871292 C83.16,239.61774834871292 83.92,237.3477483487129 83.94,234.52774834871292 C83.96,230.64774834871292 84.84,226.8477483487129 85,223.2577483487129 Q85.15,220.0077483487129 85.44,218.82774834871293 C86.16,215.80774834871292 85.87,212.65774834871291 86.33,209.57774834871293 Q86.86,206.0377483487129 86.99,203.08774834871292 Q87.14,199.89774834871292 87.43,198.76774834871293 C88.2,195.7577483487129 87.84,192.6277483487129 88.35,189.5377483487129 Q88.88,186.30774834871292 89.01,183.68774834871292 Q89.15,180.83774834871292 89.43,179.7877483487129 C90.18,176.93774834871292 89.85,174.21774834871292 90.35,171.2877483487129 C90.92,167.94774834871293 90.75,163.89774834871292 91.47,160.74774834871292 C92.16,157.76774834871293 91.8,154.39774834871292 92.28,151.68774834871292 Q93.02,147.43774834871292 93.03,145.5677483487129 C93.06,142.65774834871291 93.95,140.13774834871293 93.97,137.33774834871292 C94,133.40774834871291 94.87,129.5077483487129 95.04,125.81774834871293 Q95.19,122.68774834871292 95.48,121.39774834871292 C96.34,117.59774834871293 95.8,113.74774834871292 96.44,109.83774834871292 C97.2,105.08774834871292 96.67,99.62774834871293 97.39,95.45774834871293 Q98.04,91.69774834871292 98.02,88.19774834871292 Q98.01,86.40774834871291 98.01,70.76774834871293 C98.01,67.59774834871293 97.6,65.97774834871292 96.52,63.27774834871292 A1.51,1.51 0 0 0 94.08,62.74774834871292 C92.46,64.29774834871291 90.66,65.89774834871292 89.25,68.08774834871292 Q81.64,79.84774834871293 75.52,91.27774834871292 C72.4,97.09774834871293 68.02,104.43774834871292 65.43,110.48774834871293 Q63.87,114.11774834871292 61.33,119.52774834871292 C54.28,134.5377483487129 47.96,150.61774834871292 40.5,170.05774834871292 Q37.2,178.64774834871292 28.13,180.36774834871292 Q27.66,180.45774834871293 27.21,180.2877483487129 Q25.35,179.54774834871293 23.92,179.3177483487129 C20.05,178.69774834871293 17.3,175.9777483487129 17.01,172.0077483487129 C16.86,170.05774834871292 16.35,169.0377483487129 15.94,167.40774834871291 Q15.82,166.91774834871293 15.97,166.42774834871292 Q16.7,164.05774834871292 17.04,158.8477483487129 Q17.35,154.05774834871292 21.97,137.19774834871293 Q30.52,106.01774834871293 45.01,78.35774834871292 C51.81,65.36774834871292 59.65,52.66774834871292 68.94,41.29774834871292 Q74.83,34.09774834871292 77.02,31.857748348712924 Q77.97,30.887748348712922 86.23,24.58774834871292 Q94.65,18.17774834871292 104.82,16.46774834871292 C114.11,14.907748348712921 122.46,21.257748348712923 126.1,29.53774834871292 Q129.66,37.62774834871292 131.79,45.81774834871292 Q132.36,48.00774834871292 134.75,61.57774834871292 C135.21,64.20774834871293 134.73,66.42774834871292 135.35,68.71774834871292 C136.43,72.66774834871292 135.46,76.83774834871292 136.51,80.42774834871292 C137.73,84.59774834871293 135.75,89.58774834871292 139.02,93.00774834871292 A1.55,1.55 0 0 0 141.62,92.38774834871292 Q147.59,72.80774834871292 154.25,57.07774834871292 Q159.64,44.357748348712924 169.61,30.80774834871292 Q171.45,28.31774834871292 174.37,25.87774834871292 C181.22,20.14774834871292 188.16,16.297748348712922 196.81,14.737748348712921 Q201.61,13.87774834871292 202.66,13.68774834871292 C205.05,13.247748348712921 207.25,13.317748348712922 209.12,13.337748348712921 Q210.56,13.35774834871292 213.26,13.967748348712922 C215.16,14.397748348712922 217.1,14.217748348712922 218.84,14.76774834871292 C229.86,18.24774834871292 237.66,27.527748348712922 241.62,38.02774834871292 Q246.62,51.31774834871292 248,63.74774834871292 C248.24,65.96774834871292 247.8,67.94774834871292 248.54,70.47774834871292 Q249.25,72.91774834871292 249.06,76.23774834871293 A1.92,1.9100000000000001 -82.2 0 0 250.56,78.21774834871292 Q252.05,78.53774834871292 252.7,77.06774834871293 Q256.52,68.39774834871292 257.5,66.58774834871292 C267.62,47.87774834871292 281.22,30.01774834871292 299.54,19.60774834871292 Q306.31,15.757748348712923 317.45,12.77774834871292 C319.39,12.257748348712921 321.45,12.36774834871292 323.57,11.727748348712922 Q324.77,11.36774834871292 326.03,11.35774834871292 Q331.47,11.307748348712922 335.87,11.337748348712921 Q338.37,11.347748348712921 340.04,11.85774834871292 C341.86,12.417748348712921 343.47,12.397748348712922 345.62,13.03774834871292 Q353.63,15.407748348712921 359.66,20.55774834871292 C362.48,22.96774834871292 366.2,26.74774834871292 368.23,30.66774834871292 Q371.92,37.79774834871292 373.22,42.95774834871292 C373.78,45.18774834871292 374.07,48.34774834871292 374.62,50.99774834871292 Q374.99,52.74774834871292 375,54.217748348712924 Q375.09,64.64774834871292 374.93,67.58774834871292 Q374.01,83.53774834871292 371.37,109.90774834871291 Q370.39,119.72774834871292 361.84,189.24774834871292 Q361.12,195.04774834871293 361.05,197.66774834871293 C360.95,201.5977483487129 360.07,204.76774834871293 360.05,208.91774834871293 Q359.96,224.61774834871292 360.1,226.76774834871293 Q360.19,228.11774834871292 361.52,232.29774834871293 C363.25,237.71774834871292 366.7,241.85774834871293 371.97,243.88774834871293 C374.31,244.7877483487129 376.04,244.39774834871292 378.75,243.7877483487129 Q383.8,242.65774834871291 387.49,239.32774834871293 C390.85,236.30774834871292 395.97,231.3477483487129 399.3,226.54774834871293 Q410.43,210.4777483487129 414.68,202.02774834871292 Q420.24,190.98774834871293 425.74,179.90774834871291 C427.68,176.0077483487129 429.67,169.85774834871293 433.68,165.27774834871292 C435.71,162.95774834871293 439.25,163.33774834871292 441.98,163.32774834871293 C445.63,163.3177483487129 448.33,165.5077483487129 450.19,168.63774834871293 C451.28,170.4777483487129 450.94,172.99774834871292 451.6,174.92774834871292 Q451.78,175.41774834871293 451.58,175.91774834871293 C450.83,177.83774834871292 451.17,179.86774834871292 450.59,182.1277483487129 Q449.07,188.01774834871293 447.56,191.89774834871292 Q437.93,216.68774834871292 422.78,238.58774834871292 Q419.61,243.16774834871293 416.94,246.3777483487129 C415.08,248.61774834871292 411.59,253.3177483487129 408.6,256.2777483487129 Q402.01,262.7877483487129 394.4,268.2277483487129 Q382.35,276.81774834871294 367.79,280.1677483487129 C366.35,280.49774834871295 364.28,280.3477483487129 362.47,280.7177483487129 Q356.91,281.87774834871294 354.25,281.2777483487129 Q352.24,280.8377483487129 346.79,279.99774834871295 C334.52,278.1177483487129 324.29,269.2977483487129 318.06,258.3477483487129 Q314.21,251.58774834871292 311.56,243.38774834871293 Q309.49,237.0077483487129 308.22,224.49774834871292 Q307.32,215.68774834871292 308.58,193.67774834871292 Q309.3,181.19774834871293 312.05,158.58774834871292 Q313.45,147.11774834871292 319.52,109.40774834871291 C320.98,100.38774834871292 322.35,90.26774834871293 323.63,81.80774834871292 Q323.69,81.36774834871292 324.04,77.33774834871292 C324.22,75.25774834871292 324.97,73.31774834871293 324.95,71.41774834871292 Q324.94,70.83774834871292 325.01,60.86774834871292 C325.04,55.94774834871292 324.14,53.12774834871292 322.06,49.26774834871292 C320.21,45.83774834871292 315.13,45.55774834871292 312.14,47.20774834871292 Q310.93,47.87774834871292 307.55,51.177748348712925 Q303.1,55.52774834871292 300.23,60.06774834871292 Q290.78,75.04774834871291 283.93,93.50774834871292 C275.26,116.87774834871293 269.21,140.7277483487129 264.15,165.7577483487129 Q257.41,199.0677483487129 254.79,235.20774834871293 Q253.93,247.19774834871293 253.94,249.20774834871293 Q253.96,251.71774834871292 253.38,253.83774834871292 C252.8,255.93774834871294 253.29,258.2377483487129 252.85,260.1677483487129 Q250.96,268.43774834871294 244.32,271.1477483487129 Q238.34,273.5977483487129 235,274.0877483487129 Q230.8,274.69774834871293 230.32,274.7977483487129 C225.41,275.81774834871294 219.63,275.6777483487129 214.87,274.8477483487129 C209.19,273.8677483487129 200.16,272.43774834871294 196.72,267.06774834871294 C193.08,261.37774834871294 193.91,256.63774834871293 193.99,249.0077483487129 Q194.03,245.24774834871292 194.67,242.29774834871293 C195.25,239.60774834871293 194.86,236.24774834871292 195.49,233.2277483487129 C196.18,229.90774834871291 195.9,225.76774834871293 196.56,221.82774834871293 C197.14,218.33774834871292 196.88,214.16774834871293 197.52,210.42774834871292 C198.17,206.57774834871293 197.98,201.35774834871293 198.48,197.02774834871292 Q199.14,191.27774834871292 199.1,185.20774834871293 C199.08,183.41774834871293 199.61,180.86774834871292 199.71,179.13774834871293 Q202.02,139.90774834871291 202.87,104.34774834871293 C202.97,100.01774834871293 202.98,94.06774834871293 202.31,88.86774834871292 Q202.07,86.98774834871293 202,82.72774834871292 Q201.91,77.35774834871292 201.35,74.07774834871292 Q200.45,68.74774834871292 199.82,65.56774834871293 C199.27,62.857748348712924 198.02,58.84774834871292 195.59,57.49774834871292 z" id="svg_1" class="selected" fill-opacity="1"/></g></svg>