<?xml version="1.0" encoding="UTF-8" standalone="no"?>
<!DOCTYPE svg PUBLIC "-//W3C//DTD SVG 1.1//EN" "http://www.w3.org/Graphics/SVG/1.1/DTD/svg11.dtd">
<svg xmlns="http://www.w3.org/2000/svg" version="1.1" viewBox="0.00 0.00 464.00 294.00">
<path fill="#f2f2f2" d="
  M 195.59 58.16
  A 2.31 2.30 37.0 0 0 192.86 58.54
  Q 189.84 61.52 187.38 66.14
  Q 181.35 77.48 176.89 89.87
  Q 168.82 112.29 161.11 144.17
  Q 157.82 157.77 156.87 162.13
  Q 146.90 207.97 141.41 246.40
  Q 140.48 252.94 140.38 253.42
  Q 139.96 255.52 139.99 257.09
  C 140.02 258.76 139.34 260.15 139.13 262.00
  C 138.63 266.52 136.68 276.32 132.51 278.23
  Q 125.33 281.53 123.21 281.73
  C 119.86 282.05 116.51 283.01 113.24 283.02
  Q 102.04 283.04 99.97 283.03
  Q 94.93 283.01 92.07 282.35
  C 89.77 281.81 84.22 280.56 83.13 278.19
  Q 80.08 271.61 81.39 264.82
  C 82.39 259.63 81.68 254.72 82.41 249.82
  Q 82.85 246.82 83.01 243.53
  C 83.16 240.28 83.92 238.01 83.94 235.19
  C 83.96 231.31 84.84 227.51 85.00 223.92
  Q 85.15 220.67 85.44 219.49
  C 86.16 216.47 85.87 213.32 86.33 210.24
  Q 86.86 206.70 86.99 203.75
  Q 87.14 200.56 87.43 199.43
  C 88.20 196.42 87.84 193.29 88.35 190.20
  Q 88.88 186.97 89.01 184.35
  Q 89.15 181.50 89.43 180.45
  C 90.18 177.60 89.85 174.88 90.35 171.95
  C 90.92 168.61 90.75 164.56 91.47 161.41
  C 92.16 158.43 91.80 155.06 92.28 152.35
  Q 93.02 148.10 93.03 146.23
  C 93.06 143.32 93.95 140.80 93.97 138.00
  C 94.00 134.07 94.87 130.17 95.04 126.48
  Q 95.19 123.35 95.48 122.06
  C 96.34 118.26 95.80 114.41 96.44 110.50
  C 97.20 105.75 96.67 100.29 97.39 96.12
  Q 98.04 92.36 98.02 88.86
  Q 98.01 87.07 98.01 71.43
  C 98.01 68.26 97.60 66.64 96.52 63.94
  A 1.51 1.51 0.0 0 0 94.08 63.41
  C 92.46 64.96 90.66 66.56 89.25 68.75
  Q 81.64 80.51 75.52 91.94
  C 72.40 97.76 68.02 105.10 65.43 111.15
  Q 63.87 114.78 61.33 120.19
  C 54.28 135.20 47.96 151.28 40.50 170.72
  Q 37.20 179.31 28.13 181.03
  Q 27.66 181.12 27.21 180.95
  Q 25.35 180.21 23.92 179.98
  C 20.05 179.36 17.30 176.64 17.01 172.67
  C 16.86 170.72 16.35 169.70 15.94 168.07
  Q 15.82 167.58 15.97 167.09
  Q 16.70 164.72 17.04 159.51
  Q 17.35 154.72 21.97 137.86
  Q 30.52 106.68 45.01 79.02
  C 51.81 66.03 59.65 53.33 68.94 41.96
  Q 74.83 34.76 77.02 32.52
  Q 77.97 31.55 86.23 25.25
  Q 94.65 18.84 104.82 17.13
  C 114.11 15.57 122.46 21.92 126.10 30.20
  Q 129.66 38.29 131.79 46.48
  Q 132.36 48.67 134.75 62.24
  C 135.21 64.87 134.73 67.09 135.35 69.38
  C 136.43 73.33 135.46 77.50 136.51 81.09
  C 137.73 85.26 135.75 90.25 139.02 93.67
  A 1.55 1.55 0.0 0 0 141.62 93.05
  Q 147.59 73.47 154.25 57.74
  Q 159.64 45.02 169.61 31.47
  Q 171.45 28.98 174.37 26.54
  C 181.22 20.81 188.16 16.96 196.81 15.40
  Q 201.61 14.54 202.66 14.35
  C 205.05 13.91 207.25 13.98 209.12 14.00
  Q 210.56 14.02 213.26 14.63
  C 215.16 15.06 217.10 14.88 218.84 15.43
  C 229.86 18.91 237.66 28.19 241.62 38.69
  Q 246.62 51.98 248.00 64.41
  C 248.24 66.63 247.80 68.61 248.54 71.14
  Q 249.25 73.58 249.06 76.90
  A 1.92 1.91 -82.2 0 0 250.56 78.88
  Q 252.05 79.20 252.70 77.73
  Q 256.52 69.06 257.50 67.25
  C 267.62 48.54 281.22 30.68 299.54 20.27
  Q 306.31 16.42 317.45 13.44
  C 319.39 12.92 321.45 13.03 323.57 12.39
  Q 324.77 12.03 326.03 12.02
  Q 331.47 11.97 335.87 12.00
  Q 338.37 12.01 340.04 12.52
  C 341.86 13.08 343.47 13.06 345.62 13.70
  Q 353.63 16.07 359.66 21.22
  C 362.48 23.63 366.20 27.41 368.23 31.33
  Q 371.92 38.46 373.22 43.62
  C 373.78 45.85 374.07 49.01 374.62 51.66
  Q 374.99 53.41 375.00 54.88
  Q 375.09 65.31 374.93 68.25
  Q 374.01 84.20 371.37 110.57
  Q 370.39 120.39 361.84 189.91
  Q 361.12 195.71 361.05 198.33
  C 360.95 202.26 360.07 205.43 360.05 209.58
  Q 359.96 225.28 360.10 227.43
  Q 360.19 228.78 361.52 232.96
  C 363.25 238.38 366.70 242.52 371.97 244.55
  C 374.31 245.45 376.04 245.06 378.75 244.45
  Q 383.80 243.32 387.49 239.99
  C 390.85 236.97 395.97 232.01 399.30 227.21
  Q 410.43 211.14 414.68 202.69
  Q 420.24 191.65 425.74 180.57
  C 427.68 176.67 429.67 170.52 433.68 165.94
  C 435.71 163.62 439.25 164.00 441.98 163.99
  C 445.63 163.98 448.33 166.17 450.19 169.30
  C 451.28 171.14 450.94 173.66 451.60 175.59
  Q 451.78 176.08 451.58 176.58
  C 450.83 178.50 451.17 180.53 450.59 182.79
  Q 449.07 188.68 447.56 192.56
  Q 437.93 217.35 422.78 239.25
  Q 419.61 243.83 416.94 247.04
  C 415.08 249.28 411.59 253.98 408.60 256.94
  Q 402.01 263.45 394.40 268.89
  Q 382.35 277.48 367.79 280.83
  C 366.35 281.16 364.28 281.01 362.47 281.38
  Q 356.91 282.54 354.25 281.94
  Q 352.24 281.50 346.79 280.66
  C 334.52 278.78 324.29 269.96 318.06 259.01
  Q 314.21 252.25 311.56 244.05
  Q 309.49 237.67 308.22 225.16
  Q 307.32 216.35 308.58 194.34
  Q 309.30 181.86 312.05 159.25
  Q 313.45 147.78 319.52 110.07
  C 320.98 101.05 322.35 90.93 323.63 82.47
  Q 323.69 82.03 324.04 78.00
  C 324.22 75.92 324.97 73.98 324.95 72.08
  Q 324.94 71.50 325.01 61.53
  C 325.04 56.61 324.14 53.79 322.06 49.93
  C 320.21 46.50 315.13 46.22 312.14 47.87
  Q 310.93 48.54 307.55 51.84
  Q 303.10 56.19 300.23 60.73
  Q 290.78 75.71 283.93 94.17
  C 275.26 117.54 269.21 141.39 264.15 166.42
  Q 257.41 199.73 254.79 235.87
  Q 253.93 247.86 253.94 249.87
  Q 253.96 252.38 253.38 254.50
  C 252.80 256.60 253.29 258.90 252.85 260.83
  Q 250.96 269.10 244.32 271.81
  Q 238.34 274.26 235.00 274.75
  Q 230.80 275.36 230.32 275.46
  C 225.41 276.48 219.63 276.34 214.87 275.51
  C 209.19 274.53 200.16 273.10 196.72 267.73
  C 193.08 262.04 193.91 257.30 193.99 249.67
  Q 194.03 245.91 194.67 242.96
  C 195.25 240.27 194.86 236.91 195.49 233.89
  C 196.18 230.57 195.90 226.43 196.56 222.49
  C 197.14 219.00 196.88 214.83 197.52 211.09
  C 198.17 207.24 197.98 202.02 198.48 197.69
  Q 199.14 191.94 199.10 185.87
  C 199.08 184.08 199.61 181.53 199.71 179.80
  Q 202.02 140.57 202.87 105.01
  C 202.97 100.68 202.98 94.73 202.31 89.53
  Q 202.07 87.65 202.00 83.39
  Q 201.91 78.02 201.35 74.74
  Q 200.45 69.41 199.82 66.23
  C 199.27 63.52 198.02 59.51 195.59 58.16
  Z"
/>
</svg>
