<svg xmlns="http://www.w3.org/2000/svg" version="1.1" width="1856.00" height="480.00" style=""><rect id="backgroundrect" width="100%" height="100%" x="0" y="0" fill="none" stroke="none"/>









<g class="currentLayer" style=""><title>Layer 1</title><g stroke-width="2.00" fill="none" stroke-linecap="butt" id="svg_1" class="">
<path stroke="#919191" vector-effect="non-scaling-stroke" d="   M 1165.54 79.32   A 0.59 0.58 43.4 0 1 1165.51 78.37   C 1171.65 73.61 1179.67 68.01 1187.68 65.68   C 1198.80 62.44 1210.42 61.94 1219.59 68.46   Q 1222.89 70.81 1227.57 78.18   A 2.75 2.70 86.1 0 0 1228.73 79.21   Q 1229.70 79.66 1232.21 79.95   Q 1255.17 82.53 1272.44 68.48   Q 1279.85 62.46 1282.43 53.76   Q 1285.17 44.55 1284.29 37.30   Q 1281.93 17.86 1264.52 9.76   C 1253.45 4.61 1243.26 4.75 1231.44 6.94   C 1219.16 9.21 1206.52 16.26 1196.91 24.17   C 1179.48 38.54 1166.19 55.59 1153.84 75.56   Q 1153.24 76.53 1151.97 77.94   A 1.02 1.01 -60.7 0 1 1150.93 78.24   Q 1149.05 77.68 1140.25 77.31   C 1107.35 75.92 1073.99 82.23 1045.10 98.01   Q 1039.72 100.95 1033.33 105.65   Q 1024.21 112.37 1022.22 114.21   Q 1001.78 133.12 996.57 160.76   C 990.01 195.52 1004.67 228.68 1033.98 248.78   Q 1040.20 253.05 1046.58 256.80   A 1.25 1.25 0.0 0 1 1046.94 258.63   Q 1045.12 261.03 1043.76 263.25   Q 1032.11 282.34 1021.15 300.17   Q 1018.89 303.85 1014.23 312.38   Q 1009.74 320.60 1009.59 324.60   C 1008.98 341.05 1022.27 352.35 1036.32 357.93   C 1049.72 363.27 1064.24 366.31 1079.49 368.54   Q 1097.26 371.14 1129.35 376.10   Q 1140.58 377.84 1148.63 379.77   C 1165.96 383.92 1185.69 389.67 1194.16 406.40   Q 1196.65 411.31 1196.54 418.00   C 1196.20 439.52 1178.73 450.66 1160.00 455.22   Q 1125.54 463.61 1093.50 452.27   C 1081.84 448.15 1070.54 441.97 1065.74 430.22   Q 1063.58 424.91 1064.84 419.54   Q 1066.21 413.70 1069.90 410.23   A 2.46 2.45 -32.1 0 0 1070.51 407.59   C 1066.14 395.98 1058.73 383.63 1047.49 377.48   C 1039.05 372.86 1031.97 372.00 1022.51 372.63   C 1010.15 373.44 998.71 380.40 993.68 391.66   C 989.84 400.26 989.78 411.57 992.90 420.35   C 998.24 435.40 1010.13 445.46 1024.30 452.45   Q 1044.34 462.33 1066.53 466.63   Q 1124.57 477.85 1182.88 468.09   Q 1204.44 464.49 1220.33 459.13   C 1228.33 456.43 1238.17 451.77 1244.74 448.25   Q 1256.46 441.97 1265.52 432.03   C 1276.14 420.36 1281.22 406.28 1281.19 390.49   Q 1281.17 378.50 1278.67 369.25   Q 1273.81 351.22 1258.42 337.40   C 1255.66 334.93 1252.23 332.89 1249.10 330.56   Q 1246.32 328.49 1241.60 325.99   Q 1225.88 317.68 1209.03 313.29   Q 1189.32 308.17 1169.18 305.65   C 1158.43 304.31 1141.54 302.47 1124.49 300.85   Q 1104.51 298.95 1093.46 297.39   Q 1082.90 295.90 1071.30 293.06   Q 1067.31 292.09 1060.97 288.96   Q 1050.81 283.94 1052.88 273.22   Q 1053.86 268.15 1055.77 264.32   A 2.49 2.47 18.1 0 1 1058.41 262.99   Q 1060.35 263.32 1062.98 264.30   C 1068.47 266.34 1075.19 268.84 1081.82 270.44   Q 1108.32 276.82 1134.07 276.25   Q 1158.10 275.73 1182.34 269.81   Q 1185.94 268.93 1198.98 264.46   C 1205.15 262.34 1210.16 259.17 1215.75 256.64   Q 1221.04 254.24 1227.51 249.33   Q 1239.43 240.29 1240.25 239.51   Q 1260.41 220.36 1265.61 193.08   C 1269.15 174.50 1266.87 153.90 1257.62 137.11   Q 1246.86 117.60 1228.14 104.84   Q 1213.52 94.88 1197.46 88.83   Q 1185.02 84.14 1169.48 80.81   Q 1166.88 80.26 1165.54 79.32" id="svg_2"/>
<path stroke="#919191" vector-effect="non-scaling-stroke" d="   M 118.73 122.38   L 118.73 82.43   A 0.41 0.41 0.0 0 0 118.16 82.05   Q 116.28 82.84 113.79 84.27   Q 105.84 88.84 90.46 96.71   Q 67.55 108.45 43.72 114.20   Q 24.20 118.91 4.77 122.13   A 0.87 0.87 0.0 0 0 4.24 123.55   Q 6.12 125.78 10.31 130.48   C 18.82 140.01 26.61 152.69 31.04 165.75   Q 34.01 174.52 34.96 182.08   Q 35.30 184.80 35.44 198.93   Q 35.84 238.58 35.67 259.51   Q 35.51 279.21 33.96 294.75   Q 32.63 308.01 26.44 323.35   Q 21.19 336.33 9.58 344.25   Q 8.55 344.96 8.09 345.97   A 0.70 0.70 0.0 0 0 8.78 346.96   Q 14.52 346.53 19.50 346.55   Q 126.24 346.84 144.53 346.94   A 0.96 0.95 78.6 0 0 145.41 345.61   C 144.89 344.40 141.55 342.30 138.44 339.90   Q 136.11 338.10 132.07 331.94   Q 125.59 322.05 122.97 310.43   C 121.59 304.34 119.77 295.21 119.40 288.25   Q 118.75 275.96 118.71 255.75   Q 118.65 218.54 118.82 162.25   Q 118.84 156.51 119.68 154.08   Q 120.76 150.95 121.54 148.50   C 123.49 142.36 126.47 136.91 130.20 131.96   Q 140.20 118.68 156.99 118.03   Q 171.60 117.46 181.12 126.94   C 186.74 132.53 191.52 142.58 192.51 150.27   C 194.19 163.35 193.95 178.53 193.96 193.00   C 193.97 235.67 194.53 258.62 193.67 280.11   Q 193.15 292.99 192.26 298.27   Q 190.38 309.32 188.62 314.89   C 185.83 323.76 180.40 335.31 172.44 341.44   Q 169.10 344.02 167.20 345.52   A 0.68 0.68 0.0 0 0 167.10 346.49   Q 167.52 346.99 168.76 346.97   C 172.43 346.92 175.85 346.61 179.74 346.62   Q 239.51 346.78 295.25 346.82   Q 298.52 346.82 303.39 347.10   A 1.10 1.10 0.0 0 0 304.54 345.85   Q 304.42 345.00 303.44 344.30   C 300.07 341.91 296.93 339.66 294.09 335.97   C 284.64 323.69 280.44 308.62 278.85 293.49   Q 277.56 281.21 277.37 266.25   Q 277.11 245.50 277.49 174.50   Q 277.54 163.90 279.06 156.03   C 281.64 142.66 288.88 129.13 300.85 122.42   Q 310.30 117.13 322.20 118.21   C 339.68 119.79 349.90 134.93 352.28 150.72   Q 354.02 162.30 354.06 171.50   Q 354.20 211.18 354.25 250.00   C 354.28 272.80 354.52 293.39 348.66 313.95   C 346.07 323.01 340.34 335.83 332.17 341.46   Q 329.48 343.31 327.25 345.31   A 0.82 0.81 23.9 0 0 327.80 346.73   L 463.72 346.73   A 0.73 0.73 0.0 0 0 464.29 345.54   C 462.85 343.76 460.37 342.38 458.35 340.86   Q 456.74 339.65 454.31 336.54   Q 446.73 326.83 442.74 313.52   Q 438.60 299.75 438.16 286.20   C 437.93 279.01 437.46 273.28 437.49 265.50   Q 437.70 207.60 437.59 170.51   C 437.52 147.51 433.59 125.47 420.90 107.31   C 408.65 89.80 390.15 79.60 368.66 77.61   C 366.58 77.42 361.62 76.58 359.03 77.54   Q 352.09 80.12 339.73 87.00   Q 312.52 102.14 281.37 122.29   C 278.13 124.39 275.57 127.09 273.35 129.73   A 0.43 0.43 0.0 0 1 272.62 129.62   Q 270.38 124.40 266.94 117.36   Q 254.16 91.23 227.26 81.35   Q 216.64 77.45 201.98 77.12   A 7.80 7.77 35.5 0 0 199.15 77.59   C 189.38 81.18 179.63 86.74 170.45 91.95   C 149.71 103.72 136.41 111.34 120.07 123.07   A 0.85 0.84 72.1 0 1 118.73 122.38" id="svg_3"/>
<path stroke="#919191" vector-effect="non-scaling-stroke" d="   M 472.17 193.37   C 469.09 210.11 469.86 227.05 473.51 244.22   C 484.24 294.66 521.31 333.48 570.77 347.39   C 599.40 355.45 633.25 353.44 660.61 342.06   Q 696.69 327.04 719.87 294.91   Q 734.39 274.79 741.41 247.55   C 742.32 244.00 742.79 239.86 743.49 236.02   C 746.57 219.29 745.81 202.35 742.15 185.17   C 731.42 134.74 694.35 95.92 644.89 82.01   C 616.26 73.95 582.41 75.96 555.05 87.34   Q 518.97 102.36 495.79 134.49   Q 481.27 154.61 474.26 181.85   C 473.34 185.40 472.88 189.54 472.17 193.37" id="svg_4"/>
<path stroke="#919191" vector-effect="non-scaling-stroke" d="   M 746.26 345.64   A 0.83 0.83 0.0 0 0 746.97 346.89   Q 750.62 346.92 753.03 346.69   Q 755.38 346.46 758.99 346.49   Q 821.56 346.89 883.33 346.83   A 0.63 0.63 0.0 0 0 883.78 345.76   Q 881.86 343.77 878.50 341.28   Q 875.83 339.29 872.98 335.51   C 858.33 316.01 857.37 289.47 857.17 265.50   Q 857.00 245.56 857.24 183.50   Q 857.28 173.99 857.44 171.01   C 858.24 155.81 875.42 142.50 890.02 142.80   C 905.22 143.12 917.47 151.15 922.31 165.71   C 924.86 173.37 924.24 181.81 921.80 189.38   A 0.27 0.27 0.0 0 0 922.07 189.73   L 934.79 188.89   A 1.39 1.03 26.8 0 0 935.02 188.85   C 940.93 187.21 945.40 186.64 950.73 184.53   C 966.26 178.36 978.57 168.78 985.25 153.18   Q 990.27 141.48 990.48 129.19   C 990.78 112.75 983.42 95.71 970.07 86.30   C 954.53 75.35 934.18 74.62 916.59 81.47   Q 896.84 89.15 881.27 106.09   Q 872.27 115.87 866.37 124.86   Q 862.25 131.13 858.75 139.35   A 0.74 0.73 56.5 0 1 857.34 139.06   L 857.34 82.85   A 0.65 0.65 0.0 0 0 856.49 82.23   Q 855.00 82.70 852.49 84.22   Q 848.82 86.45 828.79 96.77   Q 805.88 108.58 780.57 114.57   Q 761.87 118.99 747.82 121.35   Q 745.11 121.80 741.94 121.89   A 0.45 0.44 66.7 0 0 741.64 122.65   Q 752.82 133.81 761.23 147.89   C 767.18 157.86 771.89 170.53 773.26 180.51   Q 773.92 185.34 774.02 214.50   Q 774.15 251.77 773.88 271.75   Q 773.66 287.97 772.29 296.31   C 770.17 309.19 767.63 319.59 761.55 329.79   Q 757.43 336.71 754.13 339.40   Q 751.23 341.78 747.34 344.57   Q 746.55 345.14 746.26 345.64" id="svg_5"/>
<path stroke="#919191" vector-effect="non-scaling-stroke" d="   M 1662.37 82.41   A 0.60 0.59 75.8 0 0 1661.49 81.88   Q 1648.00 89.30 1630.10 98.30   Q 1610.57 108.12 1588.02 113.76   Q 1568.54 118.64 1547.95 122.02   A 0.88 0.87 -21.3 0 0 1547.36 123.36   C 1549.14 126.09 1551.65 128.06 1553.79 130.62   C 1566.39 145.77 1575.48 162.82 1578.21 182.03   Q 1578.71 185.60 1578.76 207.47   Q 1578.86 254.75 1578.79 272.00   Q 1578.75 279.82 1577.77 293.69   C 1577.22 301.41 1574.38 311.56 1573.09 316.88   Q 1572.42 319.63 1568.25 330.06   C 1565.03 338.11 1559.81 345.74 1555.67 351.42   Q 1551.75 356.81 1542.71 364.71   Q 1538.70 368.21 1532.77 371.61   C 1523.32 377.02 1516.18 380.44 1507.55 382.56   Q 1490.08 386.85 1471.26 385.75   Q 1457.68 384.96 1453.32 383.83   Q 1452.52 383.63 1441.68 380.77   C 1436.27 379.35 1431.10 376.95 1427.45 375.30   Q 1419.33 371.62 1412.88 366.87   C 1403.59 360.03 1394.74 350.88 1389.03 340.55   Q 1384.67 332.68 1383.70 330.32   Q 1381.87 325.87 1378.42 313.79   C 1377.00 308.84 1376.83 301.77 1376.10 296.32   Q 1375.38 290.85 1375.76 285.37   Q 1376.49 274.89 1376.59 274.42   Q 1378.08 266.76 1378.28 265.18   C 1379.02 259.32 1380.62 255.52 1382.73 249.14   Q 1384.00 245.29 1385.45 242.35   Q 1400.67 211.52 1431.64 194.86   A 0.49 0.48 76.0 0 1 1432.35 195.29   Q 1432.52 234.35 1432.39 297.64   Q 1432.36 312.60 1433.22 316.33   C 1437.85 336.37 1458.57 348.48 1477.86 351.26   Q 1490.67 353.12 1503.40 350.64   C 1507.39 349.86 1510.84 348.32 1513.76 347.43   Q 1517.45 346.30 1521.29 344.37   Q 1533.10 338.44 1543.30 330.28   C 1544.85 329.05 1545.99 325.46 1542.99 324.83   A 1.62 1.55 39.8 0 0 1542.10 324.89   Q 1537.35 326.66 1536.58 326.80   Q 1525.94 328.68 1520.90 319.32   Q 1517.57 313.12 1516.61 305.86   Q 1515.51 297.44 1515.46 290.51   Q 1515.30 267.41 1515.53 175.51   Q 1515.57 162.55 1514.28 152.48   Q 1512.80 140.87 1506.58 127.17   C 1493.47 98.30 1462.05 82.11 1431.51 78.38   Q 1391.00 73.44 1353.73 87.93   Q 1341.95 92.52 1329.41 101.53   C 1324.58 105.00 1319.39 110.04 1316.16 113.97   Q 1300.08 133.54 1302.48 159.52   C 1304.05 176.56 1316.50 193.78 1334.78 194.54   C 1341.77 194.83 1348.76 194.92 1355.11 192.88   Q 1372.64 187.25 1384.43 172.92   Q 1394.13 161.14 1398.90 146.70   C 1399.47 145.00 1399.57 142.95 1397.39 142.85   C 1392.42 142.63 1386.05 140.76 1382.65 136.54   Q 1379.62 132.77 1379.06 130.76   Q 1377.40 124.80 1378.79 116.77   C 1379.53 112.50 1382.56 107.33 1384.36 104.37   C 1388.02 98.33 1394.23 92.24 1401.30 91.21   C 1409.40 90.02 1417.14 91.85 1421.92 98.88   Q 1425.40 103.99 1427.23 109.54   C 1431.04 121.10 1432.58 133.45 1432.73 146.18   Q 1432.92 162.68 1432.37 178.89   A 1.93 1.91 -11.7 0 1 1431.26 180.56   Q 1429.33 181.47 1426.36 182.53   Q 1395.12 193.61 1369.02 206.11   C 1363.17 208.91 1356.09 213.07 1352.09 215.11   Q 1345.90 218.27 1339.85 222.56   Q 1328.18 230.83 1323.40 234.64   Q 1312.23 243.53 1303.78 255.76   C 1294.71 268.90 1290.67 283.77 1292.01 300.01   C 1293.37 316.47 1298.56 332.69 1308.05 345.72   Q 1318.01 359.38 1332.45 369.03   Q 1355.21 384.25 1383.43 391.29   Q 1441.80 405.86 1502.52 399.92   Q 1505.39 399.64 1522.55 397.29   C 1534.70 395.63 1543.76 393.42 1556.99 390.25   Q 1591.92 381.88 1620.51 361.82   C 1633.97 352.38 1646.35 338.36 1653.43 322.57   Q 1656.20 316.39 1657.20 312.97   C 1661.56 298.24 1662.42 285.03 1662.37 268.51   Q 1662.22 217.11 1662.38 163.50   Q 1662.40 155.91 1663.01 149.94   A 7.68 7.65 -31.4 0 1 1663.48 148.02   C 1668.04 136.40 1676.95 125.49 1688.55 120.80   C 1707.94 112.97 1726.39 122.02 1733.32 141.48   Q 1735.90 148.75 1736.35 152.90   Q 1737.31 161.94 1737.41 176.75   Q 1737.57 199.90 1737.48 261.75   Q 1737.46 281.66 1736.26 292.51   C 1734.64 307.10 1731.25 321.19 1723.15 333.42   C 1720.03 338.13 1715.91 341.61 1711.95 344.20   Q 1711.48 344.51 1710.27 345.85   A 0.52 0.52 0.0 0 0 1710.65 346.72   L 1847.56 346.72   A 0.57 0.57 0.0 0 0 1847.97 345.76   Q 1845.89 343.59 1842.81 341.43   Q 1839.66 339.21 1836.36 334.62   C 1826.75 321.24 1823.13 305.45 1821.77 289.49   C 1820.79 278.03 1820.37 264.97 1820.40 252.83   Q 1820.56 178.13 1820.51 171.50   C 1820.38 156.65 1819.52 143.21 1815.10 129.51   C 1805.25 99.00 1782.83 80.15 1749.77 77.34   C 1746.51 77.06 1743.78 76.90 1741.40 77.89   Q 1733.58 81.16 1726.13 85.13   Q 1697.16 100.56 1672.29 116.29   Q 1668.53 118.66 1663.66 122.51   A 0.80 0.79 -19.2 0 1 1662.37 121.89   L 1662.37 82.41" id="svg_6"/>
<path stroke="#919191" vector-effect="non-scaling-stroke" d="   M 1084.84 104.38   Q 1076.47 115.62 1074.73 131.34   Q 1073.29 144.26 1074.45 157.00   Q 1074.94 162.49 1075.72 165.72   C 1077.47 172.98 1078.20 178.74 1080.33 185.67   Q 1082.72 193.43 1083.90 196.87   Q 1090.93 217.49 1103.72 235.06   C 1115.92 251.81 1136.25 265.26 1157.85 260.31   C 1175.04 256.37 1183.06 240.57 1185.74 224.30   Q 1186.19 221.53 1187.06 213.17   Q 1187.73 206.69 1187.46 202.03   Q 1185.31 165.93 1167.57 134.13   Q 1163.73 127.23 1158.16 120.09   Q 1150.39 110.14 1140.31 103.42   Q 1123.65 92.33 1104.25 93.94   Q 1091.85 94.97 1084.84 104.38" id="svg_7"/>
<path stroke="#919191" vector-effect="non-scaling-stroke" d="   M 582.63 93.72   C 563.15 94.76 555.40 119.37 552.86 135.32   C 549.85 154.27 549.46 171.84 551.65 191.56   C 555.57 226.75 563.18 260.55 576.81 292.21   Q 583.77 308.37 594.52 320.68   C 604.93 332.61 620.29 340.39 635.96 335.14   C 651.25 330.01 658.65 306.39 661.07 292.11   Q 665.77 264.37 663.15 237.26   Q 659.80 202.70 649.70 168.72   C 646.15 156.78 640.97 144.56 636.02 134.23   Q 629.47 120.57 618.50 109.26   C 608.76 99.20 596.24 93.00 582.63 93.72" id="svg_8"/>
</g><path fill="#ffffff" d="   M 1856.00 0.00   L 1856.00 480.00   L 0.00 480.00   L 0.00 0.00   L 1856.00 0.00   Z   M 1165.54 79.32   A 0.59 0.58 43.4 0 1 1165.51 78.37   C 1171.65 73.61 1179.67 68.01 1187.68 65.68   C 1198.80 62.44 1210.42 61.94 1219.59 68.46   Q 1222.89 70.81 1227.57 78.18   A 2.75 2.70 86.1 0 0 1228.73 79.21   Q 1229.70 79.66 1232.21 79.95   Q 1255.17 82.53 1272.44 68.48   Q 1279.85 62.46 1282.43 53.76   Q 1285.17 44.55 1284.29 37.30   Q 1281.93 17.86 1264.52 9.76   C 1253.45 4.61 1243.26 4.75 1231.44 6.94   C 1219.16 9.21 1206.52 16.26 1196.91 24.17   C 1179.48 38.54 1166.19 55.59 1153.84 75.56   Q 1153.24 76.53 1151.97 77.94   A 1.02 1.01 -60.7 0 1 1150.93 78.24   Q 1149.05 77.68 1140.25 77.31   C 1107.35 75.92 1073.99 82.23 1045.10 98.01   Q 1039.72 100.95 1033.33 105.65   Q 1024.21 112.37 1022.22 114.21   Q 1001.78 133.12 996.57 160.76   C 990.01 195.52 1004.67 228.68 1033.98 248.78   Q 1040.20 253.05 1046.58 256.80   A 1.25 1.25 0.0 0 1 1046.94 258.63   Q 1045.12 261.03 1043.76 263.25   Q 1032.11 282.34 1021.15 300.17   Q 1018.89 303.85 1014.23 312.38   Q 1009.74 320.60 1009.59 324.60   C 1008.98 341.05 1022.27 352.35 1036.32 357.93   C 1049.72 363.27 1064.24 366.31 1079.49 368.54   Q 1097.26 371.14 1129.35 376.10   Q 1140.58 377.84 1148.63 379.77   C 1165.96 383.92 1185.69 389.67 1194.16 406.40   Q 1196.65 411.31 1196.54 418.00   C 1196.20 439.52 1178.73 450.66 1160.00 455.22   Q 1125.54 463.61 1093.50 452.27   C 1081.84 448.15 1070.54 441.97 1065.74 430.22   Q 1063.58 424.91 1064.84 419.54   Q 1066.21 413.70 1069.90 410.23   A 2.46 2.45 -32.1 0 0 1070.51 407.59   C 1066.14 395.98 1058.73 383.63 1047.49 377.48   C 1039.05 372.86 1031.97 372.00 1022.51 372.63   C 1010.15 373.44 998.71 380.40 993.68 391.66   C 989.84 400.26 989.78 411.57 992.90 420.35   C 998.24 435.40 1010.13 445.46 1024.30 452.45   Q 1044.34 462.33 1066.53 466.63   Q 1124.57 477.85 1182.88 468.09   Q 1204.44 464.49 1220.33 459.13   C 1228.33 456.43 1238.17 451.77 1244.74 448.25   Q 1256.46 441.97 1265.52 432.03   C 1276.14 420.36 1281.22 406.28 1281.19 390.49   Q 1281.17 378.50 1278.67 369.25   Q 1273.81 351.22 1258.42 337.40   C 1255.66 334.93 1252.23 332.89 1249.10 330.56   Q 1246.32 328.49 1241.60 325.99   Q 1225.88 317.68 1209.03 313.29   Q 1189.32 308.17 1169.18 305.65   C 1158.43 304.31 1141.54 302.47 1124.49 300.85   Q 1104.51 298.95 1093.46 297.39   Q 1082.90 295.90 1071.30 293.06   Q 1067.31 292.09 1060.97 288.96   Q 1050.81 283.94 1052.88 273.22   Q 1053.86 268.15 1055.77 264.32   A 2.49 2.47 18.1 0 1 1058.41 262.99   Q 1060.35 263.32 1062.98 264.30   C 1068.47 266.34 1075.19 268.84 1081.82 270.44   Q 1108.32 276.82 1134.07 276.25   Q 1158.10 275.73 1182.34 269.81   Q 1185.94 268.93 1198.98 264.46   C 1205.15 262.34 1210.16 259.17 1215.75 256.64   Q 1221.04 254.24 1227.51 249.33   Q 1239.43 240.29 1240.25 239.51   Q 1260.41 220.36 1265.61 193.08   C 1269.15 174.50 1266.87 153.90 1257.62 137.11   Q 1246.86 117.60 1228.14 104.84   Q 1213.52 94.88 1197.46 88.83   Q 1185.02 84.14 1169.48 80.81   Q 1166.88 80.26 1165.54 79.32   Z   M 118.73 122.38   L 118.73 82.43   A 0.41 0.41 0.0 0 0 118.16 82.05   Q 116.28 82.84 113.79 84.27   Q 105.84 88.84 90.46 96.71   Q 67.55 108.45 43.72 114.20   Q 24.20 118.91 4.77 122.13   A 0.87 0.87 0.0 0 0 4.24 123.55   Q 6.12 125.78 10.31 130.48   C 18.82 140.01 26.61 152.69 31.04 165.75   Q 34.01 174.52 34.96 182.08   Q 35.30 184.80 35.44 198.93   Q 35.84 238.58 35.67 259.51   Q 35.51 279.21 33.96 294.75   Q 32.63 308.01 26.44 323.35   Q 21.19 336.33 9.58 344.25   Q 8.55 344.96 8.09 345.97   A 0.70 0.70 0.0 0 0 8.78 346.96   Q 14.52 346.53 19.50 346.55   Q 126.24 346.84 144.53 346.94   A 0.96 0.95 78.6 0 0 145.41 345.61   C 144.89 344.40 141.55 342.30 138.44 339.90   Q 136.11 338.10 132.07 331.94   Q 125.59 322.05 122.97 310.43   C 121.59 304.34 119.77 295.21 119.40 288.25   Q 118.75 275.96 118.71 255.75   Q 118.65 218.54 118.82 162.25   Q 118.84 156.51 119.68 154.08   Q 120.76 150.95 121.54 148.50   C 123.49 142.36 126.47 136.91 130.20 131.96   Q 140.20 118.68 156.99 118.03   Q 171.60 117.46 181.12 126.94   C 186.74 132.53 191.52 142.58 192.51 150.27   C 194.19 163.35 193.95 178.53 193.96 193.00   C 193.97 235.67 194.53 258.62 193.67 280.11   Q 193.15 292.99 192.26 298.27   Q 190.38 309.32 188.62 314.89   C 185.83 323.76 180.40 335.31 172.44 341.44   Q 169.10 344.02 167.20 345.52   A 0.68 0.68 0.0 0 0 167.10 346.49   Q 167.52 346.99 168.76 346.97   C 172.43 346.92 175.85 346.61 179.74 346.62   Q 239.51 346.78 295.25 346.82   Q 298.52 346.82 303.39 347.10   A 1.10 1.10 0.0 0 0 304.54 345.85   Q 304.42 345.00 303.44 344.30   C 300.07 341.91 296.93 339.66 294.09 335.97   C 284.64 323.69 280.44 308.62 278.85 293.49   Q 277.56 281.21 277.37 266.25   Q 277.11 245.50 277.49 174.50   Q 277.54 163.90 279.06 156.03   C 281.64 142.66 288.88 129.13 300.85 122.42   Q 310.30 117.13 322.20 118.21   C 339.68 119.79 349.90 134.93 352.28 150.72   Q 354.02 162.30 354.06 171.50   Q 354.20 211.18 354.25 250.00   C 354.28 272.80 354.52 293.39 348.66 313.95   C 346.07 323.01 340.34 335.83 332.17 341.46   Q 329.48 343.31 327.25 345.31   A 0.82 0.81 23.9 0 0 327.80 346.73   L 463.72 346.73   A 0.73 0.73 0.0 0 0 464.29 345.54   C 462.85 343.76 460.37 342.38 458.35 340.86   Q 456.74 339.65 454.31 336.54   Q 446.73 326.83 442.74 313.52   Q 438.60 299.75 438.16 286.20   C 437.93 279.01 437.46 273.28 437.49 265.50   Q 437.70 207.60 437.59 170.51   C 437.52 147.51 433.59 125.47 420.90 107.31   C 408.65 89.80 390.15 79.60 368.66 77.61   C 366.58 77.42 361.62 76.58 359.03 77.54   Q 352.09 80.12 339.73 87.00   Q 312.52 102.14 281.37 122.29   C 278.13 124.39 275.57 127.09 273.35 129.73   A 0.43 0.43 0.0 0 1 272.62 129.62   Q 270.38 124.40 266.94 117.36   Q 254.16 91.23 227.26 81.35   Q 216.64 77.45 201.98 77.12   A 7.80 7.77 35.5 0 0 199.15 77.59   C 189.38 81.18 179.63 86.74 170.45 91.95   C 149.71 103.72 136.41 111.34 120.07 123.07   A 0.85 0.84 72.1 0 1 118.73 122.38   Z   M 472.17 193.37   C 469.09 210.11 469.86 227.05 473.51 244.22   C 484.24 294.66 521.31 333.48 570.77 347.39   C 599.40 355.45 633.25 353.44 660.61 342.06   Q 696.69 327.04 719.87 294.91   Q 734.39 274.79 741.41 247.55   C 742.32 244.00 742.79 239.86 743.49 236.02   C 746.57 219.29 745.81 202.35 742.15 185.17   C 731.42 134.74 694.35 95.92 644.89 82.01   C 616.26 73.95 582.41 75.96 555.05 87.34   Q 518.97 102.36 495.79 134.49   Q 481.27 154.61 474.26 181.85   C 473.34 185.40 472.88 189.54 472.17 193.37   Z   M 746.26 345.64   A 0.83 0.83 0.0 0 0 746.97 346.89   Q 750.62 346.92 753.03 346.69   Q 755.38 346.46 758.99 346.49   Q 821.56 346.89 883.33 346.83   A 0.63 0.63 0.0 0 0 883.78 345.76   Q 881.86 343.77 878.50 341.28   Q 875.83 339.29 872.98 335.51   C 858.33 316.01 857.37 289.47 857.17 265.50   Q 857.00 245.56 857.24 183.50   Q 857.28 173.99 857.44 171.01   C 858.24 155.81 875.42 142.50 890.02 142.80   C 905.22 143.12 917.47 151.15 922.31 165.71   C 924.86 173.37 924.24 181.81 921.80 189.38   A 0.27 0.27 0.0 0 0 922.07 189.73   L 934.79 188.89   A 1.39 1.03 26.8 0 0 935.02 188.85   C 940.93 187.21 945.40 186.64 950.73 184.53   C 966.26 178.36 978.57 168.78 985.25 153.18   Q 990.27 141.48 990.48 129.19   C 990.78 112.75 983.42 95.71 970.07 86.30   C 954.53 75.35 934.18 74.62 916.59 81.47   Q 896.84 89.15 881.27 106.09   Q 872.27 115.87 866.37 124.86   Q 862.25 131.13 858.75 139.35   A 0.74 0.73 56.5 0 1 857.34 139.06   L 857.34 82.85   A 0.65 0.65 0.0 0 0 856.49 82.23   Q 855.00 82.70 852.49 84.22   Q 848.82 86.45 828.79 96.77   Q 805.88 108.58 780.57 114.57   Q 761.87 118.99 747.82 121.35   Q 745.11 121.80 741.94 121.89   A 0.45 0.44 66.7 0 0 741.64 122.65   Q 752.82 133.81 761.23 147.89   C 767.18 157.86 771.89 170.53 773.26 180.51   Q 773.92 185.34 774.02 214.50   Q 774.15 251.77 773.88 271.75   Q 773.66 287.97 772.29 296.31   C 770.17 309.19 767.63 319.59 761.55 329.79   Q 757.43 336.71 754.13 339.40   Q 751.23 341.78 747.34 344.57   Q 746.55 345.14 746.26 345.64   Z   M 1662.37 82.41   A 0.60 0.59 75.8 0 0 1661.49 81.88   Q 1648.00 89.30 1630.10 98.30   Q 1610.57 108.12 1588.02 113.76   Q 1568.54 118.64 1547.95 122.02   A 0.88 0.87 -21.3 0 0 1547.36 123.36   C 1549.14 126.09 1551.65 128.06 1553.79 130.62   C 1566.39 145.77 1575.48 162.82 1578.21 182.03   Q 1578.71 185.60 1578.76 207.47   Q 1578.86 254.75 1578.79 272.00   Q 1578.75 279.82 1577.77 293.69   C 1577.22 301.41 1574.38 311.56 1573.09 316.88   Q 1572.42 319.63 1568.25 330.06   C 1565.03 338.11 1559.81 345.74 1555.67 351.42   Q 1551.75 356.81 1542.71 364.71   Q 1538.70 368.21 1532.77 371.61   C 1523.32 377.02 1516.18 380.44 1507.55 382.56   Q 1490.08 386.85 1471.26 385.75   Q 1457.68 384.96 1453.32 383.83   Q 1452.52 383.63 1441.68 380.77   C 1436.27 379.35 1431.10 376.95 1427.45 375.30   Q 1419.33 371.62 1412.88 366.87   C 1403.59 360.03 1394.74 350.88 1389.03 340.55   Q 1384.67 332.68 1383.70 330.32   Q 1381.87 325.87 1378.42 313.79   C 1377.00 308.84 1376.83 301.77 1376.10 296.32   Q 1375.38 290.85 1375.76 285.37   Q 1376.49 274.89 1376.59 274.42   Q 1378.08 266.76 1378.28 265.18   C 1379.02 259.32 1380.62 255.52 1382.73 249.14   Q 1384.00 245.29 1385.45 242.35   Q 1400.67 211.52 1431.64 194.86   A 0.49 0.48 76.0 0 1 1432.35 195.29   Q 1432.52 234.35 1432.39 297.64   Q 1432.36 312.60 1433.22 316.33   C 1437.85 336.37 1458.57 348.48 1477.86 351.26   Q 1490.67 353.12 1503.40 350.64   C 1507.39 349.86 1510.84 348.32 1513.76 347.43   Q 1517.45 346.30 1521.29 344.37   Q 1533.10 338.44 1543.30 330.28   C 1544.85 329.05 1545.99 325.46 1542.99 324.83   A 1.62 1.55 39.8 0 0 1542.10 324.89   Q 1537.35 326.66 1536.58 326.80   Q 1525.94 328.68 1520.90 319.32   Q 1517.57 313.12 1516.61 305.86   Q 1515.51 297.44 1515.46 290.51   Q 1515.30 267.41 1515.53 175.51   Q 1515.57 162.55 1514.28 152.48   Q 1512.80 140.87 1506.58 127.17   C 1493.47 98.30 1462.05 82.11 1431.51 78.38   Q 1391.00 73.44 1353.73 87.93   Q 1341.95 92.52 1329.41 101.53   C 1324.58 105.00 1319.39 110.04 1316.16 113.97   Q 1300.08 133.54 1302.48 159.52   C 1304.05 176.56 1316.50 193.78 1334.78 194.54   C 1341.77 194.83 1348.76 194.92 1355.11 192.88   Q 1372.64 187.25 1384.43 172.92   Q 1394.13 161.14 1398.90 146.70   C 1399.47 145.00 1399.57 142.95 1397.39 142.85   C 1392.42 142.63 1386.05 140.76 1382.65 136.54   Q 1379.62 132.77 1379.06 130.76   Q 1377.40 124.80 1378.79 116.77   C 1379.53 112.50 1382.56 107.33 1384.36 104.37   C 1388.02 98.33 1394.23 92.24 1401.30 91.21   C 1409.40 90.02 1417.14 91.85 1421.92 98.88   Q 1425.40 103.99 1427.23 109.54   C 1431.04 121.10 1432.58 133.45 1432.73 146.18   Q 1432.92 162.68 1432.37 178.89   A 1.93 1.91 -11.7 0 1 1431.26 180.56   Q 1429.33 181.47 1426.36 182.53   Q 1395.12 193.61 1369.02 206.11   C 1363.17 208.91 1356.09 213.07 1352.09 215.11   Q 1345.90 218.27 1339.85 222.56   Q 1328.18 230.83 1323.40 234.64   Q 1312.23 243.53 1303.78 255.76   C 1294.71 268.90 1290.67 283.77 1292.01 300.01   C 1293.37 316.47 1298.56 332.69 1308.05 345.72   Q 1318.01 359.38 1332.45 369.03   Q 1355.21 384.25 1383.43 391.29   Q 1441.80 405.86 1502.52 399.92   Q 1505.39 399.64 1522.55 397.29   C 1534.70 395.63 1543.76 393.42 1556.99 390.25   Q 1591.92 381.88 1620.51 361.82   C 1633.97 352.38 1646.35 338.36 1653.43 322.57   Q 1656.20 316.39 1657.20 312.97   C 1661.56 298.24 1662.42 285.03 1662.37 268.51   Q 1662.22 217.11 1662.38 163.50   Q 1662.40 155.91 1663.01 149.94   A 7.68 7.65 -31.4 0 1 1663.48 148.02   C 1668.04 136.40 1676.95 125.49 1688.55 120.80   C 1707.94 112.97 1726.39 122.02 1733.32 141.48   Q 1735.90 148.75 1736.35 152.90   Q 1737.31 161.94 1737.41 176.75   Q 1737.57 199.90 1737.48 261.75   Q 1737.46 281.66 1736.26 292.51   C 1734.64 307.10 1731.25 321.19 1723.15 333.42   C 1720.03 338.13 1715.91 341.61 1711.95 344.20   Q 1711.48 344.51 1710.27 345.85   A 0.52 0.52 0.0 0 0 1710.65 346.72   L 1847.56 346.72   A 0.57 0.57 0.0 0 0 1847.97 345.76   Q 1845.89 343.59 1842.81 341.43   Q 1839.66 339.21 1836.36 334.62   C 1826.75 321.24 1823.13 305.45 1821.77 289.49   C 1820.79 278.03 1820.37 264.97 1820.40 252.83   Q 1820.56 178.13 1820.51 171.50   C 1820.38 156.65 1819.52 143.21 1815.10 129.51   C 1805.25 99.00 1782.83 80.15 1749.77 77.34   C 1746.51 77.06 1743.78 76.90 1741.40 77.89   Q 1733.58 81.16 1726.13 85.13   Q 1697.16 100.56 1672.29 116.29   Q 1668.53 118.66 1663.66 122.51   A 0.80 0.79 -19.2 0 1 1662.37 121.89   L 1662.37 82.41   Z" id="svg_9" class=""/><path fill="#5b9a9e" d="   M 1165.54 79.32   Q 1166.88 80.26 1169.48 80.81   Q 1185.02 84.14 1197.46 88.83   Q 1213.52 94.88 1228.14 104.84   Q 1246.86 117.60 1257.62 137.11   C 1266.87 153.90 1269.15 174.50 1265.61 193.08   Q 1260.41 220.36 1240.25 239.51   Q 1239.43 240.29 1227.51 249.33   Q 1221.04 254.24 1215.75 256.64   C 1210.16 259.17 1205.15 262.34 1198.98 264.46   Q 1185.94 268.93 1182.34 269.81   Q 1158.10 275.73 1134.07 276.25   Q 1108.32 276.82 1081.82 270.44   C 1075.19 268.84 1068.47 266.34 1062.98 264.30   Q 1060.35 263.32 1058.41 262.99   A 2.49 2.47 18.1 0 0 1055.77 264.32   Q 1053.86 268.15 1052.88 273.22   Q 1050.81 283.94 1060.97 288.96   Q 1067.31 292.09 1071.30 293.06   Q 1082.90 295.90 1093.46 297.39   Q 1104.51 298.95 1124.49 300.85   C 1141.54 302.47 1158.43 304.31 1169.18 305.65   Q 1189.32 308.17 1209.03 313.29   Q 1225.88 317.68 1241.60 325.99   Q 1246.32 328.49 1249.10 330.56   C 1252.23 332.89 1255.66 334.93 1258.42 337.40   Q 1273.81 351.22 1278.67 369.25   Q 1281.17 378.50 1281.19 390.49   C 1281.22 406.28 1276.14 420.36 1265.52 432.03   Q 1256.46 441.97 1244.74 448.25   C 1238.17 451.77 1228.33 456.43 1220.33 459.13   Q 1204.44 464.49 1182.88 468.09   Q 1124.57 477.85 1066.53 466.63   Q 1044.34 462.33 1024.30 452.45   C 1010.13 445.46 998.24 435.40 992.90 420.35   C 989.78 411.57 989.84 400.26 993.68 391.66   C 998.71 380.40 1010.15 373.44 1022.51 372.63   C 1031.97 372.00 1039.05 372.86 1047.49 377.48   C 1058.73 383.63 1066.14 395.98 1070.51 407.59   A 2.46 2.45 -32.1 0 1 1069.90 410.23   Q 1066.21 413.70 1064.84 419.54   Q 1063.58 424.91 1065.74 430.22   C 1070.54 441.97 1081.84 448.15 1093.50 452.27   Q 1125.54 463.61 1160.00 455.22   C 1178.73 450.66 1196.20 439.52 1196.54 418.00   Q 1196.65 411.31 1194.16 406.40   C 1185.69 389.67 1165.96 383.92 1148.63 379.77   Q 1140.58 377.84 1129.35 376.10   Q 1097.26 371.14 1079.49 368.54   C 1064.24 366.31 1049.72 363.27 1036.32 357.93   C 1022.27 352.35 1008.98 341.05 1009.59 324.60   Q 1009.74 320.60 1014.23 312.38   Q 1018.89 303.85 1021.15 300.17   Q 1032.11 282.34 1043.76 263.25   Q 1045.12 261.03 1046.94 258.63   A 1.25 1.25 0.0 0 0 1046.58 256.80   Q 1040.20 253.05 1033.98 248.78   C 1004.67 228.68 990.01 195.52 996.57 160.76   Q 1001.78 133.12 1022.22 114.21   Q 1024.21 112.37 1033.33 105.65   Q 1039.72 100.95 1045.10 98.01   C 1073.99 82.23 1107.35 75.92 1140.25 77.31   Q 1149.05 77.68 1150.93 78.24   A 1.02 1.01 -60.7 0 0 1151.97 77.94   Q 1153.24 76.53 1153.84 75.56   C 1166.19 55.59 1179.48 38.54 1196.91 24.17   C 1206.52 16.26 1219.16 9.21 1231.44 6.94   C 1243.26 4.75 1253.45 4.61 1264.52 9.76   Q 1281.93 17.86 1284.29 37.30   Q 1285.17 44.55 1282.43 53.76   Q 1279.85 62.46 1272.44 68.48   Q 1255.17 82.53 1232.21 79.95   Q 1229.70 79.66 1228.73 79.21   A 2.75 2.70 86.1 0 1 1227.57 78.18   Q 1222.89 70.81 1219.59 68.46   C 1210.42 61.94 1198.80 62.44 1187.68 65.68   C 1179.67 68.01 1171.65 73.61 1165.51 78.37   A 0.59 0.58 43.4 0 0 1165.54 79.32   Z   M 1084.84 104.38   Q 1076.47 115.62 1074.73 131.34   Q 1073.29 144.26 1074.45 157.00   Q 1074.94 162.49 1075.72 165.72   C 1077.47 172.98 1078.20 178.74 1080.33 185.67   Q 1082.72 193.43 1083.90 196.87   Q 1090.93 217.49 1103.72 235.06   C 1115.92 251.81 1136.25 265.26 1157.85 260.31   C 1175.04 256.37 1183.06 240.57 1185.74 224.30   Q 1186.19 221.53 1187.06 213.17   Q 1187.73 206.69 1187.46 202.03   Q 1185.31 165.93 1167.57 134.13   Q 1163.73 127.23 1158.16 120.09   Q 1150.39 110.14 1140.31 103.42   Q 1123.65 92.33 1104.25 93.94   Q 1091.85 94.97 1084.84 104.38   Z" id="svg_10" class="" fill-opacity="1"/><path fill="#5b9a9e" d="   M 118.73 122.38   A 0.85 0.84 72.1 0 0 120.07 123.07   C 136.41 111.34 149.71 103.72 170.45 91.95   C 179.63 86.74 189.38 81.18 199.15 77.59   A 7.80 7.77 35.5 0 1 201.98 77.12   Q 216.64 77.45 227.26 81.35   Q 254.16 91.23 266.94 117.36   Q 270.38 124.40 272.62 129.62   A 0.43 0.43 0.0 0 0 273.35 129.73   C 275.57 127.09 278.13 124.39 281.37 122.29   Q 312.52 102.14 339.73 87.00   Q 352.09 80.12 359.03 77.54   C 361.62 76.58 366.58 77.42 368.66 77.61   C 390.15 79.60 408.65 89.80 420.90 107.31   C 433.59 125.47 437.52 147.51 437.59 170.51   Q 437.70 207.60 437.49 265.50   C 437.46 273.28 437.93 279.01 438.16 286.20   Q 438.60 299.75 442.74 313.52   Q 446.73 326.83 454.31 336.54   Q 456.74 339.65 458.35 340.86   C 460.37 342.38 462.85 343.76 464.29 345.54   A 0.73 0.73 0.0 0 1 463.72 346.73   L 327.80 346.73   A 0.82 0.81 23.9 0 1 327.25 345.31   Q 329.48 343.31 332.17 341.46   C 340.34 335.83 346.07 323.01 348.66 313.95   C 354.52 293.39 354.28 272.80 354.25 250.00   Q 354.20 211.18 354.06 171.50   Q 354.02 162.30 352.28 150.72   C 349.90 134.93 339.68 119.79 322.20 118.21   Q 310.30 117.13 300.85 122.42   C 288.88 129.13 281.64 142.66 279.06 156.03   Q 277.54 163.90 277.49 174.50   Q 277.11 245.50 277.37 266.25   Q 277.56 281.21 278.85 293.49   C 280.44 308.62 284.64 323.69 294.09 335.97   C 296.93 339.66 300.07 341.91 303.44 344.30   Q 304.42 345.00 304.54 345.85   A 1.10 1.10 0.0 0 1 303.39 347.10   Q 298.52 346.82 295.25 346.82   Q 239.51 346.78 179.74 346.62   C 175.85 346.61 172.43 346.92 168.76 346.97   Q 167.52 346.99 167.10 346.49   A 0.68 0.68 0.0 0 1 167.20 345.52   Q 169.10 344.02 172.44 341.44   C 180.40 335.31 185.83 323.76 188.62 314.89   Q 190.38 309.32 192.26 298.27   Q 193.15 292.99 193.67 280.11   C 194.53 258.62 193.97 235.67 193.96 193.00   C 193.95 178.53 194.19 163.35 192.51 150.27   C 191.52 142.58 186.74 132.53 181.12 126.94   Q 171.60 117.46 156.99 118.03   Q 140.20 118.68 130.20 131.96   C 126.47 136.91 123.49 142.36 121.54 148.50   Q 120.76 150.95 119.68 154.08   Q 118.84 156.51 118.82 162.25   Q 118.65 218.54 118.71 255.75   Q 118.75 275.96 119.40 288.25   C 119.77 295.21 121.59 304.34 122.97 310.43   Q 125.59 322.05 132.07 331.94   Q 136.11 338.10 138.44 339.90   C 141.55 342.30 144.89 344.40 145.41 345.61   A 0.96 0.95 78.6 0 1 144.53 346.94   Q 126.24 346.84 19.50 346.55   Q 14.52 346.53 8.78 346.96   A 0.70 0.70 0.0 0 1 8.09 345.97   Q 8.55 344.96 9.58 344.25   Q 21.19 336.33 26.44 323.35   Q 32.63 308.01 33.96 294.75   Q 35.51 279.21 35.67 259.51   Q 35.84 238.58 35.44 198.93   Q 35.30 184.80 34.96 182.08   Q 34.01 174.52 31.04 165.75   C 26.61 152.69 18.82 140.01 10.31 130.48   Q 6.12 125.78 4.24 123.55   A 0.87 0.87 0.0 0 1 4.77 122.13   Q 24.20 118.91 43.72 114.20   Q 67.55 108.45 90.46 96.71   Q 105.84 88.84 113.79 84.27   Q 116.28 82.84 118.16 82.05   A 0.41 0.41 0.0 0 1 118.73 82.43   L 118.73 122.38   Z" id="svg_11" class="selected" fill-opacity="1"/><path fill="#5b9a9e" d="   M 472.17 193.37   C 472.88 189.54 473.34 185.40 474.26 181.85   Q 481.27 154.61 495.79 134.49   Q 518.97 102.36 555.05 87.34   C 582.41 75.96 616.26 73.95 644.89 82.01   C 694.35 95.92 731.42 134.74 742.15 185.17   C 745.81 202.35 746.57 219.29 743.49 236.02   C 742.79 239.86 742.32 244.00 741.41 247.55   Q 734.39 274.79 719.87 294.91   Q 696.69 327.04 660.61 342.06   C 633.25 353.44 599.40 355.45 570.77 347.39   C 521.31 333.48 484.24 294.66 473.51 244.22   C 469.86 227.05 469.09 210.11 472.17 193.37   Z   M 582.63 93.72   C 563.15 94.76 555.40 119.37 552.86 135.32   C 549.85 154.27 549.46 171.84 551.65 191.56   C 555.57 226.75 563.18 260.55 576.81 292.21   Q 583.77 308.37 594.52 320.68   C 604.93 332.61 620.29 340.39 635.96 335.14   C 651.25 330.01 658.65 306.39 661.07 292.11   Q 665.77 264.37 663.15 237.26   Q 659.80 202.70 649.70 168.72   C 646.15 156.78 640.97 144.56 636.02 134.23   Q 629.47 120.57 618.50 109.26   C 608.76 99.20 596.24 93.00 582.63 93.72   Z" id="svg_12" class="" fill-opacity="1"/><path fill="#5b9a9e" d="   M 746.26 345.64   Q 746.55 345.14 747.34 344.57   Q 751.23 341.78 754.13 339.40   Q 757.43 336.71 761.55 329.79   C 767.63 319.59 770.17 309.19 772.29 296.31   Q 773.66 287.97 773.88 271.75   Q 774.15 251.77 774.02 214.50   Q 773.92 185.34 773.26 180.51   C 771.89 170.53 767.18 157.86 761.23 147.89   Q 752.82 133.81 741.64 122.65   A 0.45 0.44 66.7 0 1 741.94 121.89   Q 745.11 121.80 747.82 121.35   Q 761.87 118.99 780.57 114.57   Q 805.88 108.58 828.79 96.77   Q 848.82 86.45 852.49 84.22   Q 855.00 82.70 856.49 82.23   A 0.65 0.65 0.0 0 1 857.34 82.85   L 857.34 139.06   A 0.74 0.73 56.5 0 0 858.75 139.35   Q 862.25 131.13 866.37 124.86   Q 872.27 115.87 881.27 106.09   Q 896.84 89.15 916.59 81.47   C 934.18 74.62 954.53 75.35 970.07 86.30   C 983.42 95.71 990.78 112.75 990.48 129.19   Q 990.27 141.48 985.25 153.18   C 978.57 168.78 966.26 178.36 950.73 184.53   C 945.40 186.64 940.93 187.21 935.02 188.85   A 1.39 1.03 26.8 0 1 934.79 188.89   L 922.07 189.73   A 0.27 0.27 0.0 0 1 921.80 189.38   C 924.24 181.81 924.86 173.37 922.31 165.71   C 917.47 151.15 905.22 143.12 890.02 142.80   C 875.42 142.50 858.24 155.81 857.44 171.01   Q 857.28 173.99 857.24 183.50   Q 857.00 245.56 857.17 265.50   C 857.37 289.47 858.33 316.01 872.98 335.51   Q 875.83 339.29 878.50 341.28   Q 881.86 343.77 883.78 345.76   A 0.63 0.63 0.0 0 1 883.33 346.83   Q 821.56 346.89 758.99 346.49   Q 755.38 346.46 753.03 346.69   Q 750.62 346.92 746.97 346.89   A 0.83 0.83 0.0 0 1 746.26 345.64   Z" id="svg_13" class="" fill-opacity="1"/><path fill="#5b9a9e" d="   M 1662.37 82.41   L 1662.37 121.89   A 0.80 0.79 -19.2 0 0 1663.66 122.51   Q 1668.53 118.66 1672.29 116.29   Q 1697.16 100.56 1726.13 85.13   Q 1733.58 81.16 1741.40 77.89   C 1743.78 76.90 1746.51 77.06 1749.77 77.34   C 1782.83 80.15 1805.25 99.00 1815.10 129.51   C 1819.52 143.21 1820.38 156.65 1820.51 171.50   Q 1820.56 178.13 1820.40 252.83   C 1820.37 264.97 1820.79 278.03 1821.77 289.49   C 1823.13 305.45 1826.75 321.24 1836.36 334.62   Q 1839.66 339.21 1842.81 341.43   Q 1845.89 343.59 1847.97 345.76   A 0.57 0.57 0.0 0 1 1847.56 346.72   L 1710.65 346.72   A 0.52 0.52 0.0 0 1 1710.27 345.85   Q 1711.48 344.51 1711.95 344.20   C 1715.91 341.61 1720.03 338.13 1723.15 333.42   C 1731.25 321.19 1734.64 307.10 1736.26 292.51   Q 1737.46 281.66 1737.48 261.75   Q 1737.57 199.90 1737.41 176.75   Q 1737.31 161.94 1736.35 152.90   Q 1735.90 148.75 1733.32 141.48   C 1726.39 122.02 1707.94 112.97 1688.55 120.80   C 1676.95 125.49 1668.04 136.40 1663.48 148.02   A 7.68 7.65 -31.4 0 0 1663.01 149.94   Q 1662.40 155.91 1662.38 163.50   Q 1662.22 217.11 1662.37 268.51   C 1662.42 285.03 1661.56 298.24 1657.20 312.97   Q 1656.20 316.39 1653.43 322.57   C 1646.35 338.36 1633.97 352.38 1620.51 361.82   Q 1591.92 381.88 1556.99 390.25   C 1543.76 393.42 1534.70 395.63 1522.55 397.29   Q 1505.39 399.64 1502.52 399.92   Q 1441.80 405.86 1383.43 391.29   Q 1355.21 384.25 1332.45 369.03   Q 1318.01 359.38 1308.05 345.72   C 1298.56 332.69 1293.37 316.47 1292.01 300.01   C 1290.67 283.77 1294.71 268.90 1303.78 255.76   Q 1312.23 243.53 1323.40 234.64   Q 1328.18 230.83 1339.85 222.56   Q 1345.90 218.27 1352.09 215.11   C 1356.09 213.07 1363.17 208.91 1369.02 206.11   Q 1395.12 193.61 1426.36 182.53   Q 1429.33 181.47 1431.26 180.56   A 1.93 1.91 -11.7 0 0 1432.37 178.89   Q 1432.92 162.68 1432.73 146.18   C 1432.58 133.45 1431.04 121.10 1427.23 109.54   Q 1425.40 103.99 1421.92 98.88   C 1417.14 91.85 1409.40 90.02 1401.30 91.21   C 1394.23 92.24 1388.02 98.33 1384.36 104.37   C 1382.56 107.33 1379.53 112.50 1378.79 116.77   Q 1377.40 124.80 1379.06 130.76   Q 1379.62 132.77 1382.65 136.54   C 1386.05 140.76 1392.42 142.63 1397.39 142.85   C 1399.57 142.95 1399.47 145.00 1398.90 146.70   Q 1394.13 161.14 1384.43 172.92   Q 1372.64 187.25 1355.11 192.88   C 1348.76 194.92 1341.77 194.83 1334.78 194.54   C 1316.50 193.78 1304.05 176.56 1302.48 159.52   Q 1300.08 133.54 1316.16 113.97   C 1319.39 110.04 1324.58 105.00 1329.41 101.53   Q 1341.95 92.52 1353.73 87.93   Q 1391.00 73.44 1431.51 78.38   C 1462.05 82.11 1493.47 98.30 1506.58 127.17   Q 1512.80 140.87 1514.28 152.48   Q 1515.57 162.55 1515.53 175.51   Q 1515.30 267.41 1515.46 290.51   Q 1515.51 297.44 1516.61 305.86   Q 1517.57 313.12 1520.90 319.32   Q 1525.94 328.68 1536.58 326.80   Q 1537.35 326.66 1542.10 324.89   A 1.62 1.55 39.8 0 1 1542.99 324.83   C 1545.99 325.46 1544.85 329.05 1543.30 330.28   Q 1533.10 338.44 1521.29 344.37   Q 1517.45 346.30 1513.76 347.43   C 1510.84 348.32 1507.39 349.86 1503.40 350.64   Q 1490.67 353.12 1477.86 351.26   C 1458.57 348.48 1437.85 336.37 1433.22 316.33   Q 1432.36 312.60 1432.39 297.64   Q 1432.52 234.35 1432.35 195.29   A 0.49 0.48 76.0 0 0 1431.64 194.86   Q 1400.67 211.52 1385.45 242.35   Q 1384.00 245.29 1382.73 249.14   C 1380.62 255.52 1379.02 259.32 1378.28 265.18   Q 1378.08 266.76 1376.59 274.42   Q 1376.49 274.89 1375.76 285.37   Q 1375.38 290.85 1376.10 296.32   C 1376.83 301.77 1377.00 308.84 1378.42 313.79   Q 1381.87 325.87 1383.70 330.32   Q 1384.67 332.68 1389.03 340.55   C 1394.74 350.88 1403.59 360.03 1412.88 366.87   Q 1419.33 371.62 1427.45 375.30   C 1431.10 376.95 1436.27 379.35 1441.68 380.77   Q 1452.52 383.63 1453.32 383.83   Q 1457.68 384.96 1471.26 385.75   Q 1490.08 386.85 1507.55 382.56   C 1516.18 380.44 1523.32 377.02 1532.77 371.61   Q 1538.70 368.21 1542.71 364.71   Q 1551.75 356.81 1555.67 351.42   C 1559.81 345.74 1565.03 338.11 1568.25 330.06   Q 1572.42 319.63 1573.09 316.88   C 1574.38 311.56 1577.22 301.41 1577.77 293.69   Q 1578.75 279.82 1578.79 272.00   Q 1578.86 254.75 1578.76 207.47   Q 1578.71 185.60 1578.21 182.03   C 1575.48 162.82 1566.39 145.77 1553.79 130.62   C 1551.65 128.06 1549.14 126.09 1547.36 123.36   A 0.88 0.87 -21.3 0 1 1547.95 122.02   Q 1568.54 118.64 1588.02 113.76   Q 1610.57 108.12 1630.10 98.30   Q 1648.00 89.30 1661.49 81.88   A 0.60 0.59 75.8 0 1 1662.37 82.41   Z" id="svg_14" class="" fill-opacity="1"/><path fill="#ffffff" d="   M 552.86 135.32   C 555.40 119.37 563.15 94.76 582.63 93.72   C 596.24 93.00 608.76 99.20 618.50 109.26   Q 629.47 120.57 636.02 134.23   C 640.97 144.56 646.15 156.78 649.70 168.72   Q 659.80 202.70 663.15 237.26   Q 665.77 264.37 661.07 292.11   C 658.65 306.39 651.25 330.01 635.96 335.14   C 620.29 340.39 604.93 332.61 594.52 320.68   Q 583.77 308.37 576.81 292.21   C 563.18 260.55 555.57 226.75 551.65 191.56   C 549.46 171.84 549.85 154.27 552.86 135.32   Z" id="svg_15"/><path fill="#ffffff" d="   M 1084.84 104.38   Q 1091.85 94.97 1104.25 93.94   Q 1123.65 92.33 1140.31 103.42   Q 1150.39 110.14 1158.16 120.09   Q 1163.73 127.23 1167.57 134.13   Q 1185.31 165.93 1187.46 202.03   Q 1187.73 206.69 1187.06 213.17   Q 1186.19 221.53 1185.74 224.30   C 1183.06 240.57 1175.04 256.37 1157.85 260.31   C 1136.25 265.26 1115.92 251.81 1103.72 235.06   Q 1090.93 217.49 1083.90 196.87   Q 1082.72 193.43 1080.33 185.67   C 1078.20 178.74 1077.47 172.98 1075.72 165.72   Q 1074.94 162.49 1074.45 157.00   Q 1073.29 144.26 1074.73 131.34   Q 1076.47 115.62 1084.84 104.38   Z" id="svg_16" class=""/></g></svg>