<?xml version="1.0" encoding="UTF-8" standalone="no"?>
<!DOCTYPE svg PUBLIC "-//W3C//DTD SVG 1.1//EN" "http://www.w3.org/Graphics/SVG/1.1/DTD/svg11.dtd">
<svg xmlns="http://www.w3.org/2000/svg" version="1.1" viewBox="0.00 0.00 405.00 79.00">
<path fill="#201f1f" d="
  M 282.28 2.27
  A 0.76 0.76 0.0 0 1 283.58 2.81
  Q 283.59 6.92 282.49 10.71
  Q 275.96 33.18 268.18 49.44
  C 265.35 55.34 257.24 72.03 248.39 66.81
  C 244.49 64.51 241.56 56.21 240.33 51.94
  Q 235.78 36.26 234.75 17.50
  Q 234.41 11.48 235.20 6.31
  A 0.98 0.97 -70.6 0 1 236.65 5.61
  L 237.05 5.85
  A 2.08 2.07 -74.1 0 1 238.08 7.71
  Q 237.11 32.83 245.07 57.40
  Q 246.37 61.41 248.86 64.67
  C 254.38 71.90 266.07 46.92 267.58 43.60
  Q 276.62 23.70 282.09 2.83
  Q 282.23 2.33 282.28 2.27
  Z"
/>
<path fill="#201f1f" d="
  M 46.92 16.32
  Q 45.31 20.73 43.92 24.18
  C 38.18 38.45 21.63 66.67 2.28 59.21
  A 0.44 0.43 19.9 0 1 2.02 58.66
  L 2.02 58.64
  A 0.50 0.50 0.0 0 1 2.62 58.32
  C 21.96 63.24 36.99 35.52 42.87 20.88
  Q 44.89 15.85 45.91 10.16
  A 0.65 0.64 -72.0 0 1 46.82 9.69
  Q 48.69 10.61 48.89 12.19
  Q 50.63 26.21 52.38 38.37
  Q 53.00 42.67 54.29 46.58
  A 0.20 0.20 0.0 0 0 54.67 46.60
  Q 62.44 28.03 71.24 10.52
  Q 73.32 6.38 75.50 3.42
  A 1.39 1.39 0.0 0 1 77.48 3.15
  Q 78.82 4.20 78.67 5.74
  Q 77.06 21.59 76.94 34.25
  C 76.86 42.47 77.26 51.09 79.73 58.99
  Q 81.18 63.63 85.00 65.78
  A 0.49 0.49 0.0 0 1 84.68 66.69
  C 79.74 65.85 77.73 61.07 76.61 56.43
  C 73.00 41.49 74.21 24.16 75.88 7.93
  A 0.28 0.28 0.0 0 0 75.36 7.77
  Q 63.50 30.60 54.48 53.49
  A 0.74 0.74 0.0 0 1 53.07 53.38
  Q 49.11 35.53 47.23 16.36
  A 0.16 0.16 0.0 0 0 46.92 16.32
  Z"
/>
<rect fill="#201f1f" x="-1.48" y="-2.36" transform="translate(286.36,29.91) rotate(17.7)" width="2.96" height="4.72" rx="0.86"/>
<path fill="#201f1f" d="
  M 299.37 45.11
  C 295.74 48.50 290.04 52.32 285.22 49.85
  C 281.47 47.93 282.04 41.07 283.12 37.78
  A 1.41 1.41 0.0 0 1 285.16 37.00
  L 285.53 37.22
  A 0.98 0.96 19.3 0 1 286.01 38.19
  L 284.86 46.36
  A 1.68 1.68 0.0 0 0 286.14 48.23
  C 290.22 49.18 296.26 44.99 299.36 42.55
  A 2.10 1.97 -8.7 0 0 299.95 41.80
  Q 300.61 40.38 300.64 39.39
  A 0.63 0.63 0.0 0 1 301.32 38.78
  Q 303.45 38.93 303.15 42.14
  A 0.36 0.35 -15.0 0 0 303.71 42.46
  C 306.68 40.37 314.71 36.52 317.19 40.65
  A 1.20 1.18 32.1 0 1 317.36 41.36
  L 317.11 45.21
  A 1.94 1.94 0.0 0 0 318.61 47.23
  C 322.39 48.09 327.51 44.59 330.27 42.41
  A 1.02 1.02 0.0 0 0 330.65 41.47
  C 330.06 37.12 337.46 35.31 340.91 34.59
  A 2.53 2.51 -29.0 0 1 343.18 35.23
  L 343.29 35.34
  A 0.75 0.75 0.0 0 1 342.98 36.61
  Q 334.57 38.99 333.98 39.83
  A 1.54 1.53 -57.7 0 0 334.47 42.04
  Q 341.32 45.97 342.05 46.44
  Q 343.77 47.56 342.64 49.55
  A 1.50 1.48 -85.5 0 1 341.90 50.19
  Q 336.67 52.26 330.96 50.43
  A 0.71 0.71 0.0 0 1 331.13 49.05
  L 340.09 48.43
  A 0.17 0.17 0.0 0 0 340.16 48.11
  L 333.11 44.04
  A 1.05 1.05 0.0 0 0 331.83 44.22
  C 328.65 47.50 323.13 50.56 318.61 49.04
  Q 313.78 47.41 314.63 41.40
  A 0.47 0.47 0.0 0 0 314.08 40.87
  C 310.45 41.45 302.45 44.47 302.41 49.06
  A 0.81 0.81 0.0 0 1 301.19 49.76
  L 300.72 49.49
  A 1.55 1.55 0.0 0 1 299.95 48.15
  L 299.95 45.36
  A 0.35 0.34 -21.4 0 0 299.37 45.11
  Z"
/>
<path fill="#201f1f" d="
  M 102.92 42.30
  L 94.04 42.91
  A 0.41 0.40 -3.6 0 0 93.66 43.33
  Q 93.95 50.29 87.80 50.97
  C 80.93 51.74 80.26 42.53 85.00 39.57
  A 1.74 1.68 89.1 0 0 85.61 38.92
  C 86.87 36.57 90.39 38.78 91.68 39.98
  A 2.11 2.08 -23.1 0 0 93.11 40.54
  L 102.04 40.54
  A 1.39 1.29 33.0 0 0 102.50 40.46
  Q 103.92 39.95 103.78 38.52
  A 0.54 0.54 0.0 0 1 104.39 37.93
  Q 106.78 38.25 106.15 41.50
  A 0.36 0.35 72.9 0 0 106.75 41.82
  C 109.39 39.14 115.52 34.61 119.12 37.58
  A 1.11 1.11 0.0 0 1 119.52 38.53
  Q 119.47 39.11 118.56 39.63
  Q 118.04 39.92 117.53 38.94
  Q 117.15 38.22 115.39 38.95
  C 110.95 40.79 106.11 45.17 105.88 50.33
  A 0.86 0.85 -73.8 0 1 104.60 51.04
  L 104.29 50.86
  A 2.32 2.30 15.1 0 1 103.13 48.86
  L 103.13 42.49
  A 0.19 0.19 0.0 0 0 102.92 42.30
  Z
  M 90.20 42.43
  L 87.06 41.41
  A 1.36 1.36 0.0 0 0 85.34 42.28
  L 84.70 44.25
  A 4.19 2.99 -72.0 0 0 86.25 49.16
  L 86.29 49.17
  A 4.19 2.99 -72.0 0 0 90.43 46.11
  L 91.07 44.14
  A 1.36 1.36 0.0 0 0 90.20 42.43
  Z"
/>
<path fill="#201f1f" d="
  M 360.60 43.32
  Q 361.09 49.61 355.69 50.85
  C 348.67 52.47 346.72 43.26 351.59 39.86
  Q 352.35 39.33 352.67 38.82
  A 2.05 2.04 23.8 0 1 354.95 37.94
  Q 357.52 38.67 358.63 40.00
  A 1.50 1.47 69.7 0 0 359.77 40.54
  L 368.98 40.54
  A 1.59 1.57 -66.6 0 0 370.07 40.10
  Q 370.56 39.64 370.82 39.15
  A 0.75 0.73 22.1 0 1 371.67 38.80
  Q 373.53 39.33 373.10 41.98
  A 0.42 0.42 0.0 0 0 373.74 42.40
  C 376.47 40.57 383.74 37.10 386.58 39.76
  C 387.90 41.00 387.12 43.57 387.11 45.39
  A 1.56 1.55 -62.6 0 0 387.39 46.28
  C 390.23 50.28 399.88 42.78 402.63 40.82
  A 0.40 0.39 -17.5 0 1 403.25 41.14
  Q 403.26 42.36 402.57 43.31
  C 399.73 47.16 393.10 50.76 388.18 48.86
  Q 383.84 47.19 384.63 41.44
  A 0.49 0.48 -89.9 0 0 384.09 40.89
  C 380.59 41.34 372.51 44.45 372.37 49.07
  A 0.66 0.66 0.0 0 1 371.62 49.70
  L 371.06 49.62
  A 1.61 1.61 0.0 0 1 369.69 47.81
  L 370.40 42.77
  A 0.42 0.42 0.0 0 0 369.95 42.29
  L 360.95 42.91
  A 0.38 0.38 0.0 0 0 360.60 43.32
  Z
  M 357.20 42.44
  L 354.06 41.42
  A 1.36 1.36 0.0 0 0 352.34 42.29
  L 351.71 44.23
  A 4.22 2.99 -72.0 0 0 353.25 49.17
  L 353.29 49.18
  A 4.22 2.99 -72.0 0 0 357.44 46.09
  L 358.07 44.15
  A 1.36 1.36 0.0 0 0 357.20 42.44
  Z"
/>
<path fill="#201f1f" d="
  M 136.93 49.49
  L 136.52 43.52
  A 0.08 0.08 0.0 0 0 136.38 43.47
  Q 128.77 51.92 124.17 47.07
  C 121.53 44.29 121.30 40.59 125.51 39.25
  Q 129.24 38.05 134.58 40.08
  A 1.02 1.01 25.5 0 0 135.82 39.65
  L 135.99 39.35
  A 1.56 1.56 0.0 0 1 138.90 40.02
  L 139.41 47.38
  A 0.36 0.36 0.0 0 0 139.92 47.69
  L 148.75 43.87
  A 1.01 0.96 -83.3 0 0 149.16 43.53
  C 152.48 38.73 158.75 38.02 163.87 39.99
  A 0.90 0.89 -63.9 0 0 164.97 39.61
  L 165.55 38.59
  A 0.65 0.63 -65.1 0 1 166.31 38.30
  Q 167.50 38.71 167.88 39.41
  C 168.20 40.02 167.04 42.98 166.96 44.39
  A 2.45 2.08 -85.7 0 0 168.80 46.92
  C 172.04 47.27 175.71 45.18 178.43 43.22
  A 1.74 1.71 -6.8 0 0 179.03 42.47
  Q 179.59 41.15 179.59 39.51
  A 0.76 0.76 0.0 0 1 180.56 38.78
  Q 182.68 39.39 182.07 42.04
  A 0.39 0.39 0.0 0 0 182.67 42.44
  C 185.25 40.69 192.81 37.07 195.53 39.72
  C 197.02 41.16 196.01 43.52 196.16 45.43
  A 2.11 2.11 0.0 0 0 197.98 47.36
  C 202.19 47.92 208.19 43.42 211.54 40.82
  A 0.46 0.45 69.2 0 1 212.27 41.15
  C 212.45 44.04 207.61 47.09 204.80 48.36
  C 199.08 50.95 192.58 48.92 193.63 41.41
  A 0.47 0.46 -89.5 0 0 193.11 40.88
  C 189.38 41.37 181.42 44.52 181.34 49.26
  A 0.65 0.64 15.3 0 1 180.37 49.81
  L 179.67 49.41
  A 1.39 1.38 -76.8 0 1 178.99 48.31
  L 178.85 46.31
  A 0.20 0.19 66.2 0 0 178.52 46.18
  Q 177.68 46.97 175.10 48.06
  Q 167.98 51.07 164.57 44.98
  A 0.47 0.47 0.0 0 0 163.84 44.86
  C 160.21 48.09 152.00 53.41 149.19 46.37
  A 0.82 0.82 0.0 0 0 148.02 45.97
  L 139.97 50.62
  A 1.22 1.21 74.4 0 0 139.36 51.71
  C 139.52 57.92 138.89 76.20 130.41 78.27
  Q 127.41 79.00 124.70 76.83
  C 113.86 68.15 129.87 55.05 136.74 49.90
  A 0.46 0.46 0.0 0 0 136.93 49.49
  Z
  M 133.33 41.41
  C 130.29 40.55 123.43 40.61 125.23 45.75
  A 1.51 1.50 -20.1 0 0 127.19 46.65
  Q 130.62 45.35 133.55 42.16
  A 0.46 0.46 0.0 0 0 133.33 41.41
  Z
  M 162.20 41.21
  L 156.58 41.60
  A 4.72 4.67 18.1 0 0 153.35 43.22
  L 151.55 45.32
  A 1.35 1.35 0.0 0 0 152.89 47.53
  Q 158.13 46.22 162.58 42.10
  A 0.51 0.51 0.0 0 0 162.20 41.21
  Z
  M 136.61 53.52
  A 0.19 0.19 0.0 0 0 136.30 53.37
  C 131.90 56.89 117.76 70.16 126.21 76.08
  C 128.61 77.75 131.07 75.66 132.40 73.63
  C 135.98 68.20 136.58 60.28 136.61 53.52
  Z"
/>
</svg>
