<?xml version="1.0" encoding="utf-8"?>
<!-- Generator: Adobe Illustrator 28.1.0, SVG Export Plug-In . SVG Version: 6.00 Build 0)  -->
<svg version="1.1" xmlns="http://www.w3.org/2000/svg" xmlns:xlink="http://www.w3.org/1999/xlink" x="0px" y="0px" width="24px"
	 height="30.4px" viewBox="0 0 24 30.4" style="enable-background:new 0 0 24 30.4;" xml:space="preserve">
<style type="text/css">
	.st0{fill:#FFFFFF;}
</style>
<g id="Layer_2">
</g>
<g id="Layer_1">
	<g>
		<path class="st0" d="M23.1,20.5h-1.9c-0.3-1.7-1.4-3.2-2.9-4.3c-0.3,0.5-0.6,1-1,1.5c1.1,0.7,1.8,1.7,2,2.8h-1.7
			c-0.5,0-0.9,0.4-0.9,0.9c0,0.5,0.4,0.9,0.9,0.9h1.7c-0.6,2.2-3.2,4-6.5,4.3v-1c0-0.5-0.4-0.9-0.9-0.9c-0.5,0-0.9,0.4-0.9,0.9v1
			c-3.3-0.3-5.9-2-6.5-4.2h1.7c0.5,0,0.9-0.4,0.9-0.9c0-0.5-0.4-0.9-0.9-0.9H4.7c0.3-1.1,1-2,2-2.8c-0.3-0.5-0.7-1-1-1.5
			c-1.6,1.1-2.7,2.6-2.9,4.3H0.9C0.4,20.5,0,21,0,21.4c0,0.5,0.4,0.9,0.9,0.9h1.9c0.5,3.2,4,5.8,8.3,6.1v1.1c0,0.5,0.4,0.9,0.9,0.9
			c0.5,0,0.9-0.4,0.9-0.9v-1.1c4.3-0.3,7.7-2.8,8.3-6.1h1.9c0.5,0,0.9-0.4,0.9-0.9C24,20.9,23.6,20.5,23.1,20.5z"/>
		<path class="st0" d="M12,21.2c0.1,0,0.2,0,0.3-0.1c0.3-0.3,7.1-7.3,7.1-13.6C19.4,3.3,16.1,0,12,0S4.6,3.3,4.6,7.4
			c0,6.4,6.8,13.3,7.1,13.6C11.8,21.1,11.9,21.2,12,21.2z M8.5,7.4c0-2,1.6-3.5,3.5-3.5s3.5,1.6,3.5,3.5S14,10.9,12,10.9
			S8.5,9.3,8.5,7.4z"/>
	</g>
</g>
</svg>
