<?xml version="1.0" encoding="UTF-8"?>
<svg id="Layer_1" xmlns="http://www.w3.org/2000/svg" viewBox="0 0 91 91">
  <defs>
    <style>
      .cls-1 {
        fill-rule: evenodd;
      }

      .cls-2 {
        fill: #fff;
      }

      .cls-3 {
        fill: #ffbe5f;
      }
    </style>
  </defs>
  <path class="cls-3" d="M91,45.5c0,25.13-20.37,45.5-45.5,45.5S0,70.63,0,45.5,20.37,0,45.5,0s45.5,20.37,45.5,45.5Z"/>
  <path class="cls-3" d="M74.11,47.26c0-3.1,5.64-6.95,4.73-9.72-.91-2.76-7.8-2.68-9.54-5.03-1.74-2.34.58-8.96-1.83-10.72-2.41-1.76-7.8,2.51-10.62,1.51-2.82-1.01-4.65-7.54-7.72-7.54s-4.98,6.7-7.72,7.54-8.3-3.27-10.62-1.51c-2.32,1.76-.08,8.29-1.83,10.72-1.74,2.43-8.63,2.18-9.54,5.03-.91,2.85,4.73,6.7,4.73,9.72s-5.64,6.95-4.73,9.72c.91,2.76,7.8,2.68,9.54,5.02,1.74,2.34-.58,8.96,1.83,10.72,2.41,1.76,7.8-2.51,10.62-1.51,2.82,1.01,4.65,7.54,7.72,7.54s4.98-6.7,7.72-7.54c2.74-.84,8.3,3.27,10.62,1.51,2.32-1.76.08-8.29,1.83-10.72,1.74-2.43,8.63-2.18,9.54-5.02.91-2.85-4.73-6.7-4.73-9.72Z"/>
  <path class="cls-1" d="M43.65,13.91c.72-.71,1.64-1.32,2.75-1.32s2.02.6,2.74,1.31c.72.71,1.37,1.64,1.97,2.53.11.17.22.33.33.49.49.74.95,1.43,1.42,2.02.59.73,1.1,1.16,1.56,1.33.45.16,1.1.14,1.99-.09.77-.19,1.59-.49,2.47-.81.13-.05.26-.1.4-.14.99-.36,2.06-.73,3.05-.88.98-.15,2.06-.12,2.95.53.89.65,1.26,1.69,1.42,2.68.16,1,.15,2.15.12,3.23,0,.17-.01.34-.02.51-.03.92-.06,1.79,0,2.57.06.94.23,1.56.5,1.93.28.37.83.73,1.71,1.08.72.29,1.54.54,2.41.8.16.05.33.1.49.15,1.02.31,2.1.65,2.99,1.11.88.46,1.74,1.12,2.08,2.15.34,1.04.04,2.08-.41,2.96-.45.89-1.12,1.79-1.76,2.63-.08.1-.16.21-.24.31-.58.75-1.12,1.46-1.55,2.16-.48.78-.72,1.4-.73,1.91.01.48.25,1.09.73,1.86.41.67.94,1.35,1.5,2.08.1.12.19.25.29.38.64.84,1.32,1.75,1.76,2.65.44.89.74,1.94.41,2.99-.34,1.06-1.2,1.72-2.08,2.18-.89.46-1.97.79-2.99,1.09-.16.05-.31.09-.46.13-.88.25-1.71.49-2.44.78-.87.35-1.42.71-1.69,1.09-.28.39-.45,1.04-.52,1.98-.06.8-.04,1.68-.01,2.62,0,.15,0,.3.01.45.03,1.07.04,2.21-.12,3.2-.16.98-.51,2.01-1.37,2.67-.87.66-1.95.7-2.93.56-.99-.14-2.06-.49-3.07-.84-.19-.07-.38-.13-.56-.2-.83-.29-1.61-.57-2.34-.75-.91-.23-1.57-.27-2-.14-.41.13-.9.52-1.49,1.24-.48.58-.94,1.27-1.43,2.01-.1.16-.21.31-.32.47-.6.89-1.26,1.82-1.98,2.54-.72.71-1.64,1.32-2.75,1.32s-2.01-.59-2.74-1.29c-.72-.7-1.37-1.62-1.97-2.5-.11-.17-.22-.33-.33-.49-.49-.72-.95-1.41-1.42-1.99-.59-.72-1.1-1.15-1.56-1.32-.45-.16-1.1-.14-1.99.09-.77.19-1.59.49-2.47.81-.13.05-.26.1-.4.14-.99.36-2.06.73-3.05.88-.98.15-2.06.12-2.95-.53-.89-.65-1.26-1.69-1.42-2.68-.16-1-.15-2.15-.12-3.23,0-.17.01-.34.02-.51.03-.92.06-1.79,0-2.57-.06-.94-.23-1.56-.5-1.93-.28-.37-.83-.73-1.71-1.08-.72-.29-1.54-.54-2.41-.8-.16-.05-.33-.1-.49-.15-1.02-.31-2.1-.65-2.99-1.11-.88-.46-1.74-1.12-2.08-2.15-.34-1.04-.04-2.08.4-2.96.44-.89,1.12-1.8,1.76-2.65.09-.12.18-.24.27-.35.57-.74,1.1-1.44,1.52-2.12.49-.8.73-1.43.73-1.92s-.24-1.11-.73-1.9c-.41-.67-.94-1.35-1.5-2.08-.1-.12-.19-.25-.29-.38-.64-.84-1.32-1.75-1.76-2.65-.44-.89-.74-1.94-.41-2.99.34-1.06,1.2-1.72,2.08-2.18.89-.46,1.97-.79,2.99-1.09.16-.05.31-.09.46-.13.88-.25,1.71-.49,2.44-.78.87-.35,1.42-.71,1.69-1.09.28-.39.45-1.04.52-1.98.06-.8.03-1.68.01-2.62,0-.15,0-.3-.01-.45-.03-1.07-.04-2.21.12-3.2.16-.98.51-2.01,1.37-2.67.87-.66,1.95-.7,2.93-.56.99.14,2.06.49,3.07.84.19.07.38.13.56.2.83.29,1.61.57,2.34.75.91.23,1.57.27,2,.14.41-.13.9-.52,1.49-1.24.48-.58.94-1.27,1.43-2.01.1-.16.21-.31.32-.47.6-.89,1.26-1.82,1.98-2.54ZM70.46,45h0v.08h0c.02.99.48,1.95,1.01,2.79.47.75,1.06,1.52,1.61,2.24.09.12.19.24.28.36.65.85,1.22,1.63,1.57,2.35.36.72.42,1.23.3,1.6-.12.37-.46.74-1.18,1.11-.71.37-1.63.66-2.66.96-.15.04-.29.08-.44.13-.88.25-1.81.52-2.63.85-.94.38-1.91.9-2.5,1.73-.59.82-.79,1.9-.86,2.93-.07.9-.04,1.89-.01,2.82,0,.15,0,.29.01.43.03,1.09.03,2.06-.1,2.86-.13.81-.37,1.26-.67,1.49-.29.22-.78.33-1.58.21-.79-.11-1.71-.4-2.73-.76-.17-.06-.35-.12-.53-.18-.83-.29-1.71-.6-2.53-.81-.97-.25-2.04-.4-2.98-.12-.95.29-1.73,1.05-2.37,1.83-.54.66-1.06,1.44-1.56,2.18-.1.15-.2.3-.3.44-.6.89-1.17,1.68-1.75,2.25-.58.57-1.06.8-1.48.8s-.9-.22-1.47-.78c-.57-.55-1.13-1.33-1.73-2.21-.1-.15-.2-.3-.31-.46-.49-.73-1.01-1.5-1.54-2.15-.64-.79-1.42-1.55-2.36-1.88-.96-.34-2.05-.21-3.03.03-.87.21-1.79.55-2.66.87-.13.05-.26.09-.38.14-1.01.36-1.92.67-2.71.79-.8.12-1.29.03-1.6-.2-.31-.23-.56-.68-.69-1.49-.13-.8-.13-1.79-.09-2.88,0-.16,0-.32.01-.48.03-.92.06-1.89,0-2.77-.07-1.02-.26-2.1-.86-2.91-.59-.8-1.55-1.31-2.49-1.69-.81-.33-1.73-.6-2.6-.86-.16-.05-.31-.09-.47-.14-1.03-.31-1.96-.61-2.67-.98-.73-.38-1.07-.75-1.18-1.09-.11-.34-.06-.83.3-1.56.36-.72.92-1.5,1.58-2.36.09-.11.17-.23.26-.34.56-.73,1.16-1.52,1.63-2.28.54-.87,1-1.87,1-2.89s-.47-2.01-1.01-2.88c-.47-.75-1.06-1.52-1.61-2.24-.09-.12-.19-.24-.28-.36-.65-.85-1.22-1.63-1.57-2.35-.36-.72-.42-1.23-.3-1.6.12-.37.46-.74,1.18-1.11.71-.37,1.63-.66,2.66-.96.15-.04.29-.08.44-.13.88-.25,1.81-.52,2.63-.85.94-.38,1.91-.9,2.5-1.73.59-.82.79-1.9.86-2.93.07-.9.04-1.89.01-2.82,0-.15,0-.29-.01-.43-.03-1.09-.03-2.06.1-2.86.13-.81.37-1.26.67-1.49.29-.22.78-.33,1.58-.21.79.11,1.71.4,2.73.76.17.06.35.12.53.18.83.29,1.71.6,2.53.81.97.25,2.04.4,2.97.12.95-.29,1.73-1.05,2.37-1.83.54-.66,1.06-1.44,1.56-2.18.1-.15.2-.3.3-.44.6-.89,1.17-1.68,1.75-2.25.58-.57,1.06-.8,1.48-.8s.89.22,1.47.79c.57.56,1.13,1.35,1.73,2.24.1.15.2.3.31.46.49.74,1.01,1.52,1.54,2.18.64.79,1.42,1.56,2.37,1.9.96.34,2.05.21,3.03-.03.87-.21,1.79-.55,2.66-.87.13-.05.26-.09.38-.14,1.01-.36,1.92-.67,2.71-.79.8-.12,1.29-.03,1.6.2.31.23.56.68.69,1.49.13.8.13,1.79.09,2.88,0,.16,0,.32-.01.48-.03.92-.06,1.89,0,2.77.07,1.02.26,2.1.86,2.91.59.8,1.55,1.31,2.49,1.69.81.33,1.73.6,2.6.86.16.05.31.09.47.14,1.03.31,1.96.61,2.67.98.73.38,1.07.75,1.18,1.09.11.34.06.82-.3,1.54-.36.71-.92,1.48-1.58,2.34-.08.1-.16.2-.23.31-.57.74-1.18,1.54-1.66,2.32-.52.86-.98,1.83-1,2.84Z"/>
  <path class="cls-1" d="M38.82,48.59c.37-.34.95-.32,1.29.06,1.57,1.74,3.82,2.8,6.3,2.8s4.72-1.13,6.31-2.81c.35-.37.93-.38,1.29-.03s.38.93.03,1.3c-1.89,2-4.61,3.38-7.63,3.38s-5.73-1.29-7.64-3.4c-.34-.38-.31-.96.06-1.3Z"/>
  <path class="cls-1" d="M42.09,37.54c.5,0,.91.41.91.92v4.69c0,.51-.41.92-.91.92s-.91-.41-.91-.92v-4.69c0-.51.41-.92.91-.92Z"/>
  <path class="cls-1" d="M50.72,37.54c.5,0,.91.41.91.92v4.69c0,.51-.41.92-.91.92s-.91-.41-.91-.92v-4.69c0-.51.41-.92.91-.92Z"/>
  <path class="cls-1" d="M46.4,27.49c-9.62,0-17.42,7.87-17.42,17.59s7.8,17.59,17.42,17.59,17.42-7.87,17.42-17.59-7.8-17.59-17.42-17.59ZM27.32,45.08c0-10.64,8.54-19.26,19.08-19.26s19.08,8.62,19.08,19.26-8.54,19.26-19.08,19.26-19.08-8.62-19.08-19.26Z"/>
  <path class="cls-2" d="M12.67,46.96c2.7-3.39,8.93-5.26,8.93-5.26l3.5-.7,4.9.7s5.45,1.38,7.98,4.07c2.81,2.98,4.41,6.47,4.62,10.63.17,3.39-.97,4.17-2.32,7.26-1.08,2.48-3.28,4.64-3.28,4.64l1.4,4.9h-2.72l-4.98-2.1-4.2.7s-3.3-.17-5.6-.7c-2.3-.53-4.71-1.57-7.08-3.86-2.1-2.04-4.12-6.64-4.12-6.64,0,0-.97-1.71-.48-6.48.49-4.77,3.45-7.16,3.45-7.16Z"/>
  <path class="cls-1" d="M25.8,41.88c8.87,0,15.93,6.57,15.93,14.53,0,3.83-1.62,7.32-4.3,9.93-.74.72-1.37,1.83-1.12,3.09.21,1.04.59,2.02,1.11,2.9-.14,0-.27,0-.41,0-2.21,0-4.25-.69-5.93-1.87-.21-.15-.48-.2-.73-.13-1.44.39-2.96.6-4.54.6-8.87,0-15.93-6.57-15.93-14.53s7.06-14.53,15.93-14.53ZM38.19,74.02c.32-.03.64-.08.95-.13.31-.06.56-.27.67-.57.11-.29.05-.62-.16-.86-.81-.95-1.38-2.11-1.64-3.39-.09-.45.12-1,.62-1.49,2.99-2.91,4.83-6.84,4.83-11.18,0-9.06-7.99-16.28-17.68-16.28s-17.68,7.22-17.68,16.28,7.99,16.28,17.68,16.28c1.59,0,3.14-.19,4.61-.56,1.9,1.24,4.16,1.96,6.59,1.96.4,0,.8-.02,1.19-.06ZM34.38,56.4c0-.87-.71-1.58-1.58-1.58s-1.57.71-1.57,1.58.71,1.57,1.57,1.57,1.58-.71,1.58-1.57ZM27.38,56.4c0-.87-.71-1.58-1.57-1.58s-1.58.71-1.58,1.58.71,1.57,1.58,1.57,1.57-.71,1.57-1.57ZM20.38,56.4c0-.87-.71-1.58-1.57-1.58s-1.58.71-1.58,1.58.71,1.57,1.58,1.57,1.57-.71,1.57-1.57Z"/>
</svg>