<?xml version="1.0" encoding="UTF-8"?><svg id="Layer_1" xmlns="http://www.w3.org/2000/svg" width="95.68" height="95.68" viewBox="0 0 95.68 95.68"><defs><style>.cls-1{stroke-width:2.15px;}.cls-1,.cls-2{fill:none;stroke:#000;stroke-linecap:round;stroke-miterlimit:10;}.cls-2{stroke-width:2.03px;}.cls-3{fill:#fff;}.cls-4{fill:#ffbe5f;}</style></defs><path class="cls-4" d="M95.68,47.84c0,26.42-21.42,47.84-47.84,47.84S0,74.27,0,47.84,21.42,0,47.84,0s47.84,21.42,47.84,47.84Z"/><path class="cls-1" d="M55.88,53.12c-1.95,2.11-4.75,3.44-7.84,3.44s-5.9-1.32-7.84-3.44"/><path class="cls-1" d="M43.14,46.27v-5.27"/><path class="cls-1" d="M52.93,46.27v-5.27"/><path class="cls-1" d="M26.25,73.53c.15,1.13.49,2.05,1.22,2.59,2.67,1.95,8.84-2.78,12.06-1.73,3.21,1.04,5.3,8.49,8.74,8.49s5.64-7.49,8.74-8.49c3.09-1,9.39,3.68,12.06,1.73s.11-9.32,2.07-12.01c1.97-2.69,9.74-2.47,10.78-5.68,1.04-3.21-5.39-7.5-5.39-10.94s6.39-7.83,5.39-10.92c-1-3.09-8.84-3-10.78-5.68s.62-10.04-2.07-12.01c-2.7-1.97-8.85,2.78-12.06,1.73-3.21-1.04-5.31-8.47-8.74-8.47s-5.64,7.49-8.74,8.49c-3.09,1-9.39-3.68-12.06-1.73s-.11,9.32-2.07,12.01c-1.97,2.7-9.74,2.46-10.78,5.68-1.04,3.22,5.39,7.5,5.39,10.94s-6.39,7.81-5.39,10.91c.2.61.62,1.08,1.21,1.48"/><path class="cls-2" d="M48.26,68.16c11.41,0,20.66-9.25,20.66-20.66s-9.25-20.66-20.66-20.66-20.66,9.26-20.66,20.67,9.25,20.66,20.66,20.66h0Z"/><path class="cls-3" d="M25.38,74.64c5.81,0,10.53-4.71,10.53-10.53s-4.71-10.53-10.53-10.53-10.53,4.71-10.53,10.53,4.71,10.53,10.53,10.53Z"/><path d="M25.63,75.83c-6.5,0-11.8-5.29-11.8-11.79s5.29-11.79,11.8-11.79,11.8,5.29,11.8,11.79-5.29,11.79-11.8,11.79ZM25.63,54.07c-5.5,0-9.98,4.47-9.98,9.98s4.48,9.98,9.98,9.98,9.98-4.47,9.98-9.98-4.48-9.98-9.98-9.98Z"/><path d="M25.63,70.39c-.5,0-.91-.41-.91-.91v-7.25c0-.5.41-.91.91-.91s.91.41.91.91v7.25c0,.5-.41.91-.91.91Z"/><path d="M27.45,70.39h-3.63c-.5,0-.91-.41-.91-.91s.41-.91.91-.91h3.63c.5,0,.91.41.91.91s-.41.91-.91.91Z"/><path d="M25.63,63.13h-1.81c-.5,0-.91-.41-.91-.91s.41-.91.91-.91h1.81c.5,0,.91.41.91.91s-.41.91-.91.91Z"/><circle cx="25.63" cy="58.6" r="1.36"/></svg>