<?xml version="1.0" encoding="UTF-8"?><svg id="Layer_1" xmlns="http://www.w3.org/2000/svg" width="50" height="43.75" viewBox="0 0 50 43.75"><defs><style>.cls-1{fill:#ffbe5f;}.cls-2{fill:#0099d8;}</style></defs><path class="cls-1" d="M40.62,9.83c0-6.16-4.58-9.83-9-9.83-2.53,0-4.84,1.12-6.62,3.19-1.79-2.07-4.1-3.19-6.62-3.19-4.42,0-9,3.68-9,9.83s3.81,9.32,8.23,13.07c1.8,1.53,3.83,3.25,5.9,5.4l.37.38c.29.3.7.48,1.13.48s.83-.17,1.12-.48l.37-.39c2.07-2.15,4.11-3.88,5.91-5.4,4.41-3.75,8.22-6.99,8.22-13.06ZM32.03,15.16c0,.69-.56,1.25-1.25,1.25h-3.44v3.44c0,.69-.56,1.25-1.25,1.25h-2.19c-.69,0-1.25-.56-1.25-1.25v-3.44h-3.44c-.69,0-1.25-.56-1.25-1.25v-2.19c0-.69.56-1.25,1.25-1.25h3.44v-3.44c0-.69.56-1.25,1.25-1.25h2.19c.69,0,1.25.56,1.25,1.25v3.44h3.44c.69,0,1.25.56,1.25,1.25v2.19Z"/><path class="cls-2" d="M14.76,27.72h0s-4.32-4.88-4.32-4.88c-1.04-1.17-2.84-1.28-4.02-.25-1.17,1.04-1.28,2.84-.25,4.02l2.03,2.29c2.22,2.26,1.87,4.47,1.87,4.47l-5.07-5.73c-.2-.23-.37-.47-.52-.72-.15-.25-.26-.52-.36-.79-.43-1.3-.23-2.74.55-3.89v-7.39c0-1.29-1.05-2.34-2.34-2.34s-2.34,1.05-2.34,2.34v8.59c0,4.86,2.31,7.35,6.18,11.48.9.96,1.9,2.03,3,3.26,1.03,1.15,1.55,1.94,1.71,3.48.05.51.31.98.75,1.24.7.41,2.08.85,4.77.85s4.09-.45,4.78-.87c.43-.26.68-.74.68-1.24-.07-9.12-1.73-12.27-7.11-13.92Z"/><path class="cls-2" d="M6.25,20.84c.63-.33,1.33-.53,2.06-.53.1,0,.19.02.28.03v-3.94c0-1.29-1.05-2.34-2.34-2.34-.03,0-.05,0-.08,0,.05.25.08.51.08.77v6Z"/><path class="cls-2" d="M47.66,12.5c-1.29,0-2.34,1.05-2.34,2.34v7.39c.79,1.15.99,2.59.55,3.89-.09.27-.21.54-.35.79-.15.25-.32.5-.52.72l-5.07,5.73s-.35-2.21,1.87-4.47l2.03-2.29c1.04-1.17.93-2.98-.25-4.02-1.17-1.04-2.98-.93-4.02.25l-4.32,4.88h0c-5.38,1.65-7.04,4.81-7.11,13.92,0,.5.25.98.68,1.24.69.42,2.06.87,4.78.87s4.07-.44,4.77-.85c.44-.26.69-.73.75-1.24.16-1.54.68-2.32,1.71-3.48,1.1-1.23,2.1-2.3,3-3.26,3.87-4.12,6.18-6.61,6.18-11.48v-8.59c0-1.29-1.05-2.34-2.34-2.34Z"/><path class="cls-2" d="M43.75,20.84v-6c0-.26.03-.52.08-.77-.03,0-.05,0-.08,0-1.29,0-2.34,1.05-2.34,2.34v3.94c.1,0,.19-.03.28-.03.73,0,1.43.19,2.06.53Z"/></svg>