<?xml version="1.0" encoding="UTF-8"?><svg id="Layer_1" xmlns="http://www.w3.org/2000/svg" width="35.4" height="45.31" viewBox="0 0 35.4 45.31"><defs><style>.cls-1{fill:#ffbe5f;}.cls-2{fill:#0099d8;}</style></defs><path class="cls-1" d="M24.07,27.61l-5.4,6.6c-.5.62-1.45.62-1.95,0l-5.4-6.6c-5.97,4.61-11.33,0-11.33,13.12,0,3.32,11.06,4.58,17.7,4.58s17.7-1.26,17.7-4.58c0-13.12-5.36-8.51-11.33-13.12ZM29.74,37.95c0,.35-.29.64-.64.64h-1.84v1.84c0,.35-.29.64-.64.64h-.85c-.35,0-.64-.29-.64-.64v-1.84h-1.84c-.35,0-.64-.29-.64-.64v-.85c0-.35.29-.64.64-.64h1.84v-1.84c0-.35.29-.64.64-.64h.85c.35,0,.64.29.64.64v1.84h1.84c.35,0,.64.29.64.64v.85Z"/><path class="cls-2" d="M8.89,19.51c.92,2.33,2.45,4.3,4.19,5.61,1.49,1.12,3.12,1.78,4.63,1.78s3.12-.65,4.6-1.76c1.75-1.31,3.29-3.29,4.21-5.63,1.05-.42,1.8-1.25,1.8-3.37,0-1.43-.37-2.27-.94-2.79-.23-4.64-1.19-8.97-6.29-10.17-.48-1.82-2.12-3.17-4.1-3.17-2.35,0-4.25,1.9-4.25,4.25,0,.06.02.12.02.19-3.83.87-4.47,4.7-4.56,8.78-.67.51-1.12,1.36-1.12,2.93,0,2.12.75,2.95,1.81,3.37ZM26.45,12.77s0,.02,0,.02c0,0-.01,0-.02,0,0,0,0-.01,0-.02ZM9.61,14.51l.08-.03c3.9-.92,4.58-5.98,4.58-5.98,0,0,1.4,2.05,5,2.79,2.68.55,4.99.34,6.2,2.88,0,0,0,0,0,0,.07.17.15.29.24.32l.08.03c.32.12.69.25.69,1.63s-.36,1.55-.65,1.66c-.47.19-.84.56-1.03,1.03-.77,1.95-2.05,3.67-3.61,4.83-1.2.9-2.44,1.4-3.5,1.4s-2.31-.5-3.52-1.41c-1.55-1.17-2.82-2.88-3.58-4.82-.19-.47-.56-.84-1.03-1.03-.29-.12-.65-.26-.65-1.66s.37-1.51.69-1.63Z"/></svg>