<?xml version="1.0" encoding="UTF-8"?><svg id="Layer_1" xmlns="http://www.w3.org/2000/svg" width="60" height="58.31" viewBox="0 0 60 58.31"><defs><style>.cls-1{fill:#aacc52;}.cls-2{fill:#0099d8;}.cls-3{fill:#410099;}</style></defs><path class="cls-2" d="M18.46,23.85C7.67,24.41.06,26.14,0,28.39c-.06,2.16,6.89,4.2,16.95,5.34,1.55-1.73,3.25-3.53,5.09-5.36-1.27-1.54-2.48-3.05-3.58-4.51Z"/><path class="cls-2" d="M41.54,34.46c10.79-.55,18.4-2.28,18.46-4.53.06-2.16-6.89-4.2-16.95-5.34-1.55,1.73-3.25,3.53-5.09,5.36,1.27,1.54,2.47,3.04,3.58,4.51Z"/><path class="cls-1" d="M24.83,15.98c-7.06-6.55-12.85-10.25-14.49-8.87-1.75,1.47,1.7,8.29,8.11,16.74,1.79-.09,3.68-.15,5.62-.17.19-2.73.44-5.3.76-7.7Z"/><path class="cls-1" d="M41.54,34.46c-1.79.09-3.68.15-5.62.17-.17,2.73-.44,5.3-.76,7.7,7.06,6.55,12.85,10.25,14.49,8.87,1.75-1.47-1.7-8.29-8.11-16.74Z"/><path class="cls-2" d="M24.13,41.99c.76,9.61,2.66,16.26,5.09,16.32,2.41.06,4.68-6.46,5.95-15.98-1.66-1.54-3.39-3.23-5.16-5.06-2.02,1.72-3.99,3.29-5.88,4.72Z"/><path class="cls-2" d="M35.86,16.32C35.11,6.71,33.2.06,30.78,0c-2.41-.06-4.68,6.46-5.95,15.98,1.66,1.54,3.39,3.23,5.16,5.06,2.02-1.72,3.99-3.29,5.88-4.72Z"/><path class="cls-3" d="M43.04,24.59c6.73-7.54,10.4-13.8,8.69-15.54-1.66-1.71-8.03,1.38-15.87,7.27.19,2.4.3,4.96.34,7.67,2.41.15,4.69.36,6.84.6Z"/><path class="cls-3" d="M16.96,33.72c-6.73,7.54-10.4,13.8-8.69,15.54,1.66,1.71,8.03-1.38,15.87-7.27-.19-2.4-.3-4.96-.34-7.67-2.41-.16-4.69-.36-6.84-.6Z"/></svg>