<?xml version="1.0" encoding="UTF-8"?><svg id="Layer_1" xmlns="http://www.w3.org/2000/svg" width="36.97" height="44.37" viewBox="0 0 36.97 44.37"><defs><style>.cls-1{fill:#ffbe5f;}.cls-2{fill:#0099d8;}</style></defs><path class="cls-2" d="M24.4,21.44c0-1.63-1.33-2.96-2.96-2.96h-2.96c-.41,0-.74.33-.74.74v8.87c0,.41.33.74.74.74s.74-.33.74-.74v-3.7h1.82l2.46,3.7-2.68,4.03c-.23.34-.14.8.21,1.03.13.08.27.12.41.12.24,0,.47-.12.62-.33l2.34-3.51,2.34,3.51c.14.21.38.33.62.33.14,0,.28-.04.41-.12.34-.23.43-.69.2-1.03l-2.68-4.03,2.68-4.03c.23-.34.14-.8-.2-1.03-.34-.23-.8-.14-1.03.21l-2.34,3.51-1.75-2.63c1.03-.46,1.75-1.5,1.75-2.69ZM21.44,22.92h-2.22v-2.96h2.22c.82,0,1.48.66,1.48,1.48s-.66,1.48-1.48,1.48Z"/><path class="cls-1" d="M8.87,14.79c2.45,0,4.44-1.99,4.44-4.44s-1.99-4.44-4.44-4.44-4.44,1.99-4.44,4.44,1.99,4.44,4.44,4.44ZM6.78,8.26c.78-.78,1.92-1.06,2.97-.73.05.01.09.04.12.07.06.06.09.13.09.21,0,.13-.09.25-.22.28-.63.18-1.31.61-1.92,1.21s-1.03,1.29-1.21,1.92c-.03.13-.15.21-.28.22-.08,0-.16-.03-.21-.09-.03-.03-.06-.07-.07-.12-.33-1.05-.05-2.19.73-2.97Z"/><path class="cls-1" d="M8.87,26.62c2.45,0,4.44-1.99,4.44-4.44s-1.99-4.44-4.44-4.44-4.44,1.99-4.44,4.44,1.99,4.44,4.44,4.44ZM6.78,20.09c.78-.78,1.92-1.06,2.97-.73.05.01.09.04.12.07.06.06.09.13.09.21,0,.13-.09.25-.22.28-.63.18-1.31.61-1.92,1.21s-1.03,1.29-1.21,1.92c-.03.13-.15.21-.28.22-.08,0-.16-.03-.21-.09-.03-.03-.06-.07-.07-.12-.33-1.05-.05-2.19.73-2.97Z"/><path class="cls-2" d="M4.44,41.41c-1.63,0-2.96-1.33-2.96-2.96V5.92c0-1.63,1.33-2.96,2.96-2.96h11.83c0-.52.11-1.01.27-1.48H4.44C2,1.48,0,3.48,0,5.92v32.54c0,2.44,2,4.44,4.44,4.44h2c-.22-.46-.37-.96-.44-1.48h-1.55Z"/><path class="cls-2" d="M35.49,4.5v-1.54c0-1.63-1.33-2.96-2.96-2.96h-11.83c-1.63,0-2.96,1.33-2.96,2.96v1.54c-.83.15-1.48.84-1.48,1.71v3.85c0,.88.65,1.57,1.48,1.71v4.5h9.98c1.02,0,1.85.83,1.85,1.85v15.53c0,1.02-.83,1.85-1.85,1.85h-9.24c2.85,0,5.18,2.32,5.18,5.18,0,.8-.2,1.54-.52,2.22h8.65c2.04,0,3.7-1.66,3.7-3.7V11.77c.83-.15,1.48-.84,1.48-1.71v-3.85c0-.88-.65-1.57-1.48-1.71ZM19.23,10.35h-.81c-.37,0-.67-.3-.67-.67v-3.11c0-.37.3-.67.67-.67h.81v4.44ZM22.55,10.35h-1.85v-4.44h1.85v4.44ZM25.88,10.35h-1.85v-4.44h1.85v4.44ZM29.21,10.35h-1.85v-4.44h1.85v4.44ZM19.23,4.44v-1.48c0-.82.66-1.48,1.48-1.48h11.83c.82,0,1.48.66,1.48,1.48v1.48h-14.79ZM32.54,10.35h-1.85v-4.44h1.85v4.44ZM35.49,9.69c0,.37-.3.67-.67.67h-.81v-4.44h.81c.37,0,.67.3.67.67v3.11Z"/><path class="cls-1" d="M10.14,35.59c.31-.06.63-.1.95-.1h5.42c-.15-.24-.32-.48-.53-.69l-5.23-5.23c-1.44-1.44-3.79-1.44-5.23,0-1.44,1.44-1.44,3.79,0,5.23l2.08,2.08c.37-.34.79-.62,1.24-.85l-2.27-2.27c-.86-.86-.86-2.27,0-3.14.86-.86,2.27-.86,3.14,0l2.41,2.41c-.16.6-.58,1.3-1.21,1.93-.25.25-.51.45-.76.63Z"/><path class="cls-1" d="M18.49,36.97h-7.39c-2.04,0-3.7,1.66-3.7,3.7s1.66,3.7,3.7,3.7h7.39c2.04,0,3.7-1.66,3.7-3.7s-1.66-3.7-3.7-3.7ZM14.5,42.89h-3.41c-1.22,0-2.22-1-2.22-2.22s1-2.22,2.22-2.22h3.41c.31.54.51,1.33.51,2.22s-.2,1.68-.51,2.22Z"/></svg>