<?xml version="1.0" encoding="UTF-8"?><svg id="Layer_1" xmlns="http://www.w3.org/2000/svg" width="33.23" height="45.31" viewBox="0 0 33.23 45.31"><defs><style>.cls-1{fill:#ffbe5f;}.cls-2{fill:#0099d8;}</style></defs><path class="cls-2" d="M9.36,12.08h14.5c1,0,1.81-.81,1.81-1.81v-3.93c0-1-.81-1.81-1.81-1.81h-2.72c0-2.5-2.03-4.53-4.53-4.53s-4.53,2.03-4.53,4.53h-2.72c-1,0-1.81.81-1.81,1.81v3.93c0,1,.81,1.81,1.81,1.81ZM16.61,2.95c.88,0,1.59.71,1.59,1.59s-.71,1.59-1.59,1.59-1.59-.71-1.59-1.59.71-1.59,1.59-1.59Z"/><path class="cls-2" d="M29.45,6.04h-2.27v4.53h2.27c.42,0,.76.34.76.76v28.7c0,.42-.34.76-.76.76H3.78c-.42,0-.76-.34-.76-.76V11.33c0-.42.34-.76.76-.76h2.27v-4.53h-2.27c-2.09,0-3.78,1.69-3.78,3.78v31.72c0,2.09,1.69,3.78,3.78,3.78h25.68c2.09,0,3.78-1.69,3.78-3.78V9.82c0-2.09-1.69-3.78-3.78-3.78Z"/><path class="cls-2" d="M12.08,28.7c4.16,0,7.55-3.39,7.55-7.55s-3.39-7.55-7.55-7.55-7.55,3.39-7.55,7.55,3.39,7.55,7.55,7.55ZM12.08,15.1c3.34,0,6.04,2.71,6.04,6.04s-2.71,6.04-6.04,6.04-6.04-2.71-6.04-6.04,2.71-6.04,6.04-6.04Z"/><path class="cls-1" d="M8.46,22.66h2.11v2.11c0,.5.41.91.91.91h1.21c.5,0,.91-.41.91-.91v-2.11h2.11c.5,0,.91-.41.91-.91v-1.21c0-.5-.41-.91-.91-.91h-2.11v-2.11c0-.5-.41-.91-.91-.91h-1.21c-.5,0-.91.41-.91.91v2.11h-2.11c-.5,0-.91.41-.91.91v1.21c0,.5.41.91.91.91Z"/><path class="cls-2" d="M26.43,18.12h-4.53c-.42,0-.76.34-.76.76s.34.76.76.76h4.53c.42,0,.76-.34.76-.76s-.34-.76-.76-.76Z"/><path class="cls-2" d="M21.15,15.86c0,.42.34.76.76.76h4.53c.42,0,.76-.34.76-.76s-.34-.76-.76-.76h-4.53c-.42,0-.76.34-.76.76Z"/><path class="cls-2" d="M26.43,21.15h-4.53c-.42,0-.76.34-.76.76s.34.76.76.76h4.53c.42,0,.76-.34.76-.76s-.34-.76-.76-.76Z"/><path class="cls-2" d="M26.43,24.17h-4.53c-.42,0-.76.34-.76.76s.34.76.76.76h4.53c.42,0,.76-.34.76-.76s-.34-.76-.76-.76Z"/><path class="cls-2" d="M14.35,30.21h-5.29c-.42,0-.76.34-.76.76s.34.76.76.76h5.29c.42,0,.76-.34.76-.76s-.34-.76-.76-.76Z"/><path class="cls-2" d="M26.43,30.21h-7.55c-.42,0-.76.34-.76.76s.34.76.76.76h7.55c.42,0,.76-.34.76-.76s-.34-.76-.76-.76Z"/><path class="cls-2" d="M14.35,33.23h-7.55c-.42,0-.76.34-.76.76s.34.76.76.76h7.55c.42,0,.76-.34.76-.76s-.34-.76-.76-.76Z"/><path class="cls-2" d="M26.43,33.23h-5.29c-.42,0-.76.34-.76.76s.34.76.76.76h5.29c.42,0,.76-.34.76-.76s-.34-.76-.76-.76Z"/><path class="cls-2" d="M14.35,36.25h-7.55c-.42,0-.76.34-.76.76s.34.76.76.76h7.55c.42,0,.76-.34.76-.76s-.34-.76-.76-.76Z"/><path class="cls-2" d="M26.43,36.25h-7.55c-.42,0-.76.34-.76.76s.34.76.76.76h7.55c.42,0,.76-.34.76-.76s-.34-.76-.76-.76Z"/></svg>