<?xml version="1.0" encoding="UTF-8"?><svg id="Layer_1" xmlns="http://www.w3.org/2000/svg" width="37.19" height="18.94" xmlns:xlink="http://www.w3.org/1999/xlink" viewBox="0 0 37.19 18.94"><defs><style>.cls-1{fill:none;}.cls-2{fill:#0098d8;}.cls-3{clip-path:url(#clippath);}</style><clipPath id="clippath"><rect class="cls-1" width="37.19" height="18.94"/></clipPath></defs><g class="cls-3"><path class="cls-2" d="M17.75,18.79c-.49,0-.89-.35-.89-.89s.35-.89.89-.89.89.35.89.89-.35.89-.89.89M17.75,16.81c-.59,0-1.04.49-1.04,1.04s.49,1.04,1.04,1.04,1.04-.49,1.04-1.04-.45-1.04-1.04-1.04"/><path class="cls-2" d="M17.75,17.8h-.2v-.4h.35c.15,0,.3,0,.3.2s-.25.2-.4.2M18.3,17.61c0-.2-.1-.35-.4-.35h-.49v1.19h.15v-.54h.25l.35.54h.2l-.35-.54c.2,0,.35-.1.35-.35"/><polygon class="cls-2" points="13.6 5.24 13.6 0 5.24 0 5.24 5.24 0 5.24 0 13.6 5.24 13.6 5.24 18.84 13.6 18.84 13.6 13.6 18.84 13.6 18.84 5.24 13.6 5.24"/><path class="cls-2" d="M35.75,18.79c-.49,0-.89-.35-.89-.89s.35-.84.89-.84.84.35.84.84-.35.89-.84.89M35.75,16.86c-.59,0-1.04.45-1.04,1.04s.45,1.04,1.04,1.04,1.04-.45,1.04-1.04-.45-1.04-1.04-1.04"/><path class="cls-2" d="M35.7,17.85h-.2v-.4h.35c.15,0,.3,0,.3.2s-.25.2-.4.2M36.3,17.65c0-.2-.1-.35-.4-.35h-.49v1.19h.15v-.54h.25l.35.54h.15l-.35-.54c.2,0,.35-.1.35-.35"/><path class="cls-2" d="M35.66,0c-2.03,1.04-4.06,1.58-6.43,1.58s-4.35-.54-6.38-1.58c-1.34,2.62-1.53,6.87-.4,10.43,1.09,3.41,3.26,6.53,6.82,8.51,3.56-1.98,5.69-5.09,6.82-8.51C37.24,6.87,37.04,2.62,35.7,0"/><path class="cls-2" d="M28.29,5.14c.1.05.1.2.2.15.05,0,.1-.05.2-.1h.1c-.15-.15-.49-.15-.69-.15.05.1.1,0,.15.1"/></g></svg>