<?xml version="1.0" encoding="UTF-8"?><svg id="Layer_1" xmlns="http://www.w3.org/2000/svg" width="60" height="56.13" viewBox="0 0 60 56.13"><defs><style>.cls-1{fill:#ffbe5f;}.cls-2{fill:#0099d8;}</style></defs><path class="cls-2" d="M19.35,7.74c-5.34,0-9.68,4.34-9.68,9.68s4.34,9.68,9.68,9.68,9.68-4.34,9.68-9.68-4.34-9.68-9.68-9.68ZM19.35,25.16c-4.28,0-7.74-3.47-7.74-7.74s3.47-7.74,7.74-7.74,7.74,3.47,7.74,7.74-3.47,7.74-7.74,7.74Z"/><path class="cls-2" d="M23.81,15.48h-2.52v-2.52c0-.75-.61-1.35-1.35-1.35h-1.16c-.75,0-1.35.61-1.35,1.35v2.52h-2.52c-.75,0-1.35.61-1.35,1.35v1.16c0,.75.61,1.35,1.35,1.35h2.52v2.52c0,.75.61,1.35,1.35,1.35h1.16c.75,0,1.35-.61,1.35-1.35v-2.52h2.52c.75,0,1.35-.61,1.35-1.35v-1.16c0-.75-.61-1.35-1.35-1.35Z"/><path class="cls-2" d="M60,12.05c0-1.58-.71-2.96-1.8-3.89,1.09-.85,1.8-2.1,1.8-3.5,0-2.57-2.32-4.66-5.17-4.66-2.38,0-4.36,1.45-4.97,3.42-.6-1.97-2.59-3.42-4.96-3.42s-4.36,1.45-4.97,3.42c-.6-1.97-2.59-3.42-4.97-3.42s-4.36,1.45-4.96,3.42c-.6-1.97-2.59-3.42-4.96-3.42s-4.36,1.45-4.97,3.42c-.6-1.97-2.59-3.42-4.97-3.42s-4.36,1.45-4.96,3.42c-.6-1.97-2.59-3.42-4.97-3.42C2.32,0,0,2.09,0,4.66c0,1.41.7,2.65,1.8,3.5-1.09.92-1.8,2.31-1.8,3.89,0,1.89,1.01,3.52,2.5,4.38-1.48.86-2.5,2.49-2.5,4.38s1.01,3.52,2.5,4.38c-1.48.86-2.5,2.49-2.5,4.38s1.01,3.52,2.5,4.38c-1.48.86-2.5,2.49-2.5,4.38,0,1.56.7,2.93,1.77,3.86-1.07.85-1.77,2.09-1.77,3.48,0,2.57,2.32,4.66,5.17,4.66,2.38,0,4.36-1.46,4.97-3.43.6,1.97,2.59,3.43,4.96,3.43s4.36-1.46,4.97-3.43c.6,1.97,2.59,3.43,4.97,3.43s4.36-1.46,4.96-3.43c.31,1.02,1,1.89,1.91,2.51l2.31-4.89H7.06c-.69,0-1.25-.56-1.25-1.25V7.06c0-.69.56-1.25,1.25-1.25h45.88c.69,0,1.25.56,1.25,1.25v36.21c0,.69-.56,1.25-1.25,1.25h-3.77l2.14,4.53c.92.78,2.14,1.28,3.51,1.28,2.86,0,5.17-2.09,5.17-4.66,0-1.39-.69-2.63-1.77-3.48,1.07-.92,1.77-2.3,1.77-3.86,0-1.89-1.01-3.52-2.5-4.38,1.48-.86,2.5-2.49,2.5-4.38s-1.01-3.52-2.5-4.38c1.48-.86,2.5-2.49,2.5-4.38s-1.01-3.52-2.5-4.38c1.48-.86,2.5-2.49,2.5-4.38Z"/><path class="cls-1" d="M36.34,44.57l-4.35,9.19c-.11.23-.06.5.13.67.11.1.25.16.4.16.1,0,.19-.02.28-.07l3.44-1.89,1.29,3.14c.09.22.3.36.54.36.02,0,.03,0,.04,0,.25-.02.46-.2.52-.44l2.3-9.42c-.37.11-.75.18-1.15.18-1.45,0-2.69-.76-3.44-1.88Z"/><path class="cls-1" d="M47.05,44.56c-.75,1.13-1.99,1.89-3.44,1.89-.39,0-.77-.07-1.13-.17l2.3,9.41c.06.24.27.42.52.44.02,0,.03,0,.04,0,.23,0,.45-.14.54-.36l1.29-3.14,3.44,1.89c.09.05.18.07.28.07.14,0,.29-.05.4-.16.18-.17.23-.44.13-.67l-4.35-9.2Z"/><path class="cls-1" d="M45.84,42.28c0-.15-.06-.28-.08-.41.25.09.51.16.78.16,1.24,0,2.24-1,2.24-2.24,0-.7-.34-1.3-.85-1.71.87-.3,1.51-1.11,1.51-2.09,0-1.24-1-2.24-2.24-2.24,0,0-.01,0-.02,0,.21-.34.37-.72.37-1.16,0-1.24-1-2.24-2.24-2.24-.56,0-1.06.23-1.45.57-.17-1.06-1.05-1.89-2.17-1.89s-1.99.82-2.17,1.89c-.39-.34-.89-.56-1.45-.56-1.24,0-2.24,1-2.24,2.24,0,.43.16.82.37,1.16,0,0-.02,0-.02,0-1.24,0-2.24,1-2.24,2.24,0,.98.64,1.79,1.52,2.09-.5.41-.85,1.01-.85,1.71,0,1.24,1,2.24,2.24,2.24.27,0,.52-.07.76-.15-.03.14-.08.26-.08.41,0,1.24,1,2.24,2.24,2.24.83,0,1.53-.47,1.91-1.15.39.67,1.08,1.15,1.91,1.15,1.24,0,2.24-1,2.24-2.24ZM41.7,40.16c-1.87,0-3.39-1.52-3.39-3.39s1.52-3.39,3.39-3.39,3.39,1.52,3.39,3.39-1.51,3.39-3.39,3.39Z"/><path class="cls-2" d="M33.87,25.16h15.48c.53,0,.97-.44.97-.97s-.44-.97-.97-.97h-15.48c-.53,0-.97.44-.97.97s.44.97.97.97Z"/><path class="cls-2" d="M33.87,21.29h15.48c.53,0,.97-.44.97-.97s-.44-.97-.97-.97h-15.48c-.53,0-.97.44-.97.97s.44.97.97.97Z"/><path class="cls-2" d="M32.9,16.45c0,.53.44.97.97.97h15.48c.53,0,.97-.44.97-.97s-.44-.97-.97-.97h-15.48c-.53,0-.97.44-.97.97Z"/><path class="cls-2" d="M45.48,11.61c.53,0,.97-.44.97-.97s-.44-.97-.97-.97h-7.74c-.53,0-.97.44-.97.97s.44.97.97.97h7.74Z"/><path class="cls-2" d="M28.06,30.97H10.65c-.53,0-.97.44-.97.97s.44.97.97.97h17.42c.53,0,.97-.44.97-.97s-.44-.97-.97-.97Z"/><path class="cls-2" d="M28.06,34.84H10.65c-.53,0-.97.44-.97.97s.44.97.97.97h17.42c.53,0,.97-.44.97-.97s-.44-.97-.97-.97Z"/><path class="cls-2" d="M28.06,38.71h-9.68c-.53,0-.97.44-.97.97s.44.97.97.97h9.68c.53,0,.97-.44.97-.97s-.44-.97-.97-.97Z"/></svg>