<?xml version="1.0" encoding="UTF-8"?><svg id="Layer" xmlns="http://www.w3.org/2000/svg" width="5000" height="3261.35" viewBox="0 0 5000 3261.35"><defs><style>.cls-1{fill:#f1e2de;}.cls-2{fill:#b8c783;}.cls-3{fill:#f6ede9;}.cls-4{fill:#aab879;}.cls-5{fill:#dde3c4;}.cls-6{fill:#ced7a8;}.cls-7{fill:#905b47;}</style></defs><path class="cls-3" d="M4198.35,393.92v1562.81h-232.58V393.92h25.88l7.18-164.19h61.27V0h43.93v229.73h61.27l7.18,164.19h25.88ZM4138.79,1090.56h21.49v-21.49h-21.49v21.49ZM4138.79,968.77h21.49v-21.49h-21.49v21.49ZM4138.79,907.88h21.49v-21.49h-21.49v21.49ZM4138.79,846.99h21.49v-21.49h-21.49v21.49ZM4138.79,786.1h21.49v-21.49h-21.49v21.49ZM4138.79,725.21h21.49v-21.49h-21.49v21.49ZM4138.79,664.32h21.49v-21.49h-21.49v21.49ZM4138.79,542.54h21.49v-21.49h-21.49v21.49ZM4070.74,1029.67h21.49v-21.49h-21.49v21.49ZM4070.74,907.88h21.49v-21.49h-21.49v21.49ZM4070.74,846.99h21.49v-21.49h-21.49v21.49ZM4070.74,725.21h21.49v-21.49h-21.49v21.49ZM4070.74,664.32h21.49v-21.49h-21.49v21.49ZM4070.74,542.54h21.49v-21.49h-21.49v21.49ZM4002.68,1029.67h21.49v-21.49h-21.49v21.49ZM4002.68,968.77h21.49v-21.49h-21.49v21.49ZM4002.68,846.99h21.49v-21.49h-21.49v21.49ZM4002.68,786.1h21.49v-21.49h-21.49v21.49ZM4002.68,725.21h21.49v-21.49h-21.49v21.49ZM4002.68,664.32h21.49v-21.49h-21.49v21.49ZM4002.68,603.43h21.49v-21.49h-21.49v21.49ZM4002.68,542.54h21.49v-21.49h-21.49v21.49Z"/><path class="cls-1" d="M4203.49,592.82l244.06-143.94v1498.08h-244.06V592.82ZM4274.89,1472.05h18.66v-18.66h-18.66v18.66ZM4274.89,852.99h18.66v-18.66h-18.66v18.66ZM4364.71,1402.4h18.66v-18.66h-18.66v18.66ZM4364.71,726.36h18.66v-18.66h-18.66v18.66ZM4310.22,1330.47h18.66v-18.66h-18.66v18.66ZM4370.33,1201.97h18.66v-18.66h-18.66v18.66ZM4370.33,1144.87h18.66v-18.66h-18.66v18.66ZM4370.33,1087.78h18.66v-18.66h-18.66v18.66ZM4310.22,1087.78h18.66v-18.66h-18.66v18.66ZM4370.33,1030.68h18.66v-18.66h-18.66v18.66ZM4370.33,973.59h18.66v-18.66h-18.66v18.66Z"/><path class="cls-1" d="M3975.55,1946.96h-328.43v-996.45h328.43v996.45ZM3877.35,1006.61h-104.34v4.07h104.34v-4.07ZM3877.35,1022.88h-104.34v4.07h104.34v-4.07ZM3877.35,1039.14h-104.34v4.07h104.34v-4.07ZM3877.35,1055.41h-104.34v4.07h104.34v-4.07ZM3877.35,1110.3h-104.34v4.07h104.34v-4.07ZM3877.35,1126.57h-104.34v4.07h104.34v-4.07ZM3877.35,1142.83h-104.34v4.07h104.34v-4.07ZM3877.35,1159.1h-104.34v4.07h104.34v-4.07ZM3877.35,1175.36h-104.34v4.07h104.34v-4.07ZM3877.35,1191.63h-104.34v4.07h104.34v-4.07ZM3877.35,1207.89h-104.34v4.07h104.34v-4.07ZM3696.66,1335.98h229.05v-4.07h-229.05v4.07ZM3696.66,1352.24h229.05v-4.07h-229.05v4.07ZM3696.66,1368.51h229.05v-4.07h-229.05v4.07ZM3696.66,1384.78h229.05v-4.07h-229.05v4.07ZM3696.66,1401.04h229.05v-4.07h-229.05v4.07Z"/><path class="cls-3" d="M2785.14,700.53v1256.21h-320.89V700.53h36.95v-87.03h246.99v87.03h36.95ZM2559.33,830.43h-22.38v22.38h22.38v-22.38ZM2559.33,957.24h-22.38v22.38h22.38v-22.38ZM2559.33,1020.64h-22.38v22.38h22.38v-22.38ZM2559.33,1084.05h-22.38v22.38h22.38v-22.38ZM2559.33,1147.46h-22.38v22.38h22.38v-22.38ZM2559.33,1210.86h-22.38v22.38h22.38v-22.38ZM2559.33,1274.27h-22.38v22.38h22.38v-22.38ZM2559.33,1401.08h-22.38v22.38h22.38v-22.38ZM2630.19,893.83h-22.38v22.38h22.38v-22.38ZM2630.19,1020.64h-22.38v22.38h22.38v-22.38ZM2630.19,1084.05h-22.38v22.38h22.38v-22.38ZM2630.19,1210.86h-22.38v22.38h22.38v-22.38ZM2630.19,1274.27h-22.38v22.38h22.38v-22.38ZM2630.19,1401.08h-22.38v22.38h22.38v-22.38ZM2701.06,893.83h-22.38v22.38h22.38v-22.38ZM2701.06,957.24h-22.38v22.38h22.38v-22.38ZM2701.06,1084.05h-22.38v22.38h22.38v-22.38ZM2701.06,1147.46h-22.38v22.38h22.38v-22.38ZM2701.06,1210.86h-22.38v22.38h22.38v-22.38ZM2701.06,1274.27h-22.38v22.38h22.38v-22.38ZM2701.06,1337.67h-22.38v22.38h22.38v-22.38ZM2701.06,1401.08h-22.38v22.38h22.38v-22.38Z"/><path class="cls-3" d="M3673.67,1956.73h-495.9V798.85h495.9v1157.89ZM3273.46,941.99h-14.74v399.31h14.74v-399.31ZM3311.89,941.99h-14.74v399.31h14.74v-399.31ZM3555.84,941.99h-14.74v399.31h14.74v-399.31ZM3423.29,941.99h-14.74v399.31h14.74v-399.31ZM3594.27,941.99h-14.74v399.31h14.74v-399.31Z"/><path class="cls-1" d="M3153.53,1946.96h-358.2v-875.99h358.2v875.99ZM2864.45,1159.4h-10.65v246.68h10.65v-246.68ZM2892.21,1159.4h-10.65v246.68h10.65v-246.68ZM3068.42,1159.4h-10.65v246.68h10.65v-246.68ZM2972.68,1159.4h-10.65v246.68h10.65v-246.68ZM3096.18,1159.4h-10.65v246.68h10.65v-246.68Z"/><path class="cls-1" d="M2233.73,959.98l278.45-143.94v1498.08h-278.45V959.98ZM2315.18,1839.21h21.29v-18.66h-21.29v18.66ZM2315.18,1220.15h21.29v-18.66h-21.29v18.66ZM2417.65,1769.56h21.29v-18.66h-21.29v18.66ZM2417.65,1093.52h21.29v-18.66h-21.29v18.66ZM2355.48,1697.64h21.29v-18.66h-21.29v18.66ZM2424.07,1569.13h21.29v-18.66h-21.29v18.66ZM2424.07,1512.04h21.29v-18.66h-21.29v18.66ZM2424.07,1454.94h21.29v-18.66h-21.29v18.66ZM2355.48,1454.94h21.29v-18.66h-21.29v18.66ZM2424.07,1397.84h21.29v-18.66h-21.29v18.66ZM2424.07,1340.75h21.29v-18.66h-21.29v18.66Z"/><path class="cls-1" d="M1870.24,2314.12h-374.7v-996.45h374.7v996.45ZM1758.21,1373.77h-119.04v4.07h119.04v-4.07ZM1758.21,1390.04h-119.04v4.07h119.04v-4.07ZM1758.21,1406.3h-119.04v4.07h119.04v-4.07ZM1758.21,1422.57h-119.04v4.07h119.04v-4.07ZM1758.21,1477.46h-119.04v4.07h119.04v-4.07ZM1758.21,1493.73h-119.04v4.07h119.04v-4.07ZM1758.21,1509.99h-119.04v4.07h119.04v-4.07ZM1758.21,1526.26h-119.04v4.07h119.04v-4.07ZM1758.21,1542.52h-119.04v4.07h119.04v-4.07ZM1758.21,1558.79h-119.04v4.07h119.04v-4.07ZM1758.21,1575.05h-119.04v4.07h119.04v-4.07ZM1552.06,1703.14h261.31v-4.07h-261.31v4.07ZM1552.06,1719.41h261.31v-4.07h-261.31v4.07ZM1552.06,1735.67h261.31v-4.07h-261.31v4.07ZM1552.06,1751.94h261.31v-4.07h-261.31v4.07ZM1552.06,1768.2h261.31v-4.07h-261.31v4.07Z"/><path class="cls-3" d="M2239.7,1067.69v1256.21h-366.09v-1256.21h42.16v-87.03h281.78v87.03h42.16ZM1982.08,1197.59h-25.53v22.38h25.53v-22.38ZM1982.08,1324.4h-25.53v22.38h25.53v-22.38ZM1982.08,1387.81h-25.53v22.38h25.53v-22.38ZM1982.08,1451.21h-25.53v22.38h25.53v-22.38ZM1982.08,1514.62h-25.53v22.38h25.53v-22.38ZM1982.08,1578.02h-25.53v22.38h25.53v-22.38ZM1982.08,1641.43h-25.53v22.38h25.53v-22.38ZM1982.08,1768.24h-25.53v22.38h25.53v-22.38ZM2062.92,1260.99h-25.53v22.38h25.53v-22.38ZM2062.92,1387.81h-25.53v22.38h25.53v-22.38ZM2062.92,1451.21h-25.53v22.38h25.53v-22.38ZM2062.92,1578.02h-25.53v22.38h25.53v-22.38ZM2062.92,1641.43h-25.53v22.38h25.53v-22.38ZM2062.92,1768.24h-25.53v22.38h25.53v-22.38ZM2143.77,1260.99h-25.53v22.38h25.53v-22.38ZM2143.77,1324.4h-25.53v22.38h25.53v-22.38ZM2143.77,1451.21h-25.53v22.38h25.53v-22.38ZM2143.77,1514.62h-25.53v22.38h25.53v-22.38ZM2143.77,1578.02h-25.53v22.38h25.53v-22.38ZM2143.77,1641.43h-25.53v22.38h25.53v-22.38ZM2143.77,1704.84h-25.53v22.38h25.53v-22.38ZM2143.77,1768.24h-25.53v22.38h25.53v-22.38Z"/><path class="cls-3" d="M1525.83,2323.89h-565.76v-1157.89h565.76v1157.89ZM1069.24,1309.15h-16.82v399.31h16.82v-399.31ZM1113.08,1309.15h-16.82v399.31h16.82v-399.31ZM1391.4,1309.15h-16.82v399.31h16.82v-399.31ZM1240.18,1309.15h-16.82v399.31h16.82v-399.31ZM1435.24,1309.15h-16.82v399.31h16.82v-399.31Z"/><path class="cls-1" d="M932.42,2314.12h-408.66v-875.99h408.66v875.99ZM602.61,1526.56h-12.15v246.68h12.15v-246.68ZM634.28,1526.56h-12.15v246.68h12.15v-246.68ZM835.31,1526.56h-12.15v246.68h12.15v-246.68ZM726.09,1526.56h-12.15v246.68h12.15v-246.68ZM866.98,1526.56h-12.15v246.68h12.15v-246.68Z"/><path class="cls-7" d="M2105.53,1695.34c5.54-5.07,9.62-12.57,12.92-20.23,1.83-4.25,3.52-8.72,4.8-13.32.23-.83-.8-1.22-1.04-.36-1.53,5.54-4.54,10.68-6.89,15.68-3.51,7.46-8.34,14.51-14.73,17.77-2.64,1.35-5.48,2.18-8.2,3.19-3.19,1.18-6.37,2.4-9.51,3.77-2,.87-4.03,1.84-6.05,2.92.11-1.28.24-2.56.37-3.83.38-3.67.71-7.34,1.04-11.02.59-6.57,1.16-12.42,3.09-18.59,1.16-3.72,2.97-7.29,4.94-9.89.68-.9,3.27-4.84,3.65-5.56.08-.15.65-1.3.1-.87-1.57,1.24-2.97,3.04-4.22,4.79-2.54,3.55-4.67,7.64-6.2,12.11-2.18,6.4-2.76,13.13-3.37,20.02-.41,4.64-.92,9.28-1.34,13.92-5.24,3.02-10.3,6.88-14.28,11.98-1.67-24.53-1.37-43.64.79-68.64.17-2,1.68-13.2,3.69-27.65,2.86-9.34,6.05-17.86,8.88-21.48,4.64-5.92,9.21-9.25,13.66-11.92,2.02-1.21,4.02-2.28,6.03-3.42,2-1.14,3.96-2.32,6.06-5.17,1.73-2.34,3.43-5.27,5.1-8.57.14.29.26.48.35.48,7.27-.18,13.05-4.7,18.66-9.7,2.85-2.54,7.52-10.96,7.37-10.97-.63-.01-.99-.33-1.44.25-10.4,13.29-17.16,16.12-23.22,16.39,2.27-4.91,4.47-10.42,6.55-16.03,2.19-5.91,4.36-12.14,6.33-18.66.35-1.17-.13-1.91-.49-.7-2.37,7.84-5.47,14.84-8.16,21.74-1.94,4.98-4.03,9.76-6.18,13.79-.36.08-.65.21-.66.44,0,.13.03.35.09.61-2.12,3.82-4.29,6.88-6.43,8.62-1.87,1.52-3.7,2.26-5.52,3.27-2.13,1.19-4.27,2.42-6.42,3.89-5.9,4.04-12.65,10.45-18.52,22.6,3.64-25.7,7.93-54.97,9.4-62.85.11-.53.22-1.07.33-1.61.02-.07.03-.14.05-.19,0,0,0,0,0,0,1.46-7.14,2.8-14.23,3.1-17.25.91-9.11.33-15.69,3.63-18.82,2.33-2.21,4.96-2.44,7.43-3.82,2.07-1.16,4.04-2.86,5.85-5.24,2.13-.22,4.91-2.3,6.7-3.34,1.36-.79,3.76-2.36,3.71-2.43-.19-.3-.54-2-.74-1.85-1.29.95-2.6,1.79-3.93,2.56-1.2.7-2.45,1.49-3.73,1.94,2.05-3.66,3.67-8.3,4.94-14.12.72-3.28,1.03-6.48,1.09-10.69,0-.71-.68-3.08-.72-2.33-.18,3.29-.69,6.37-1.24,9.13-1.38,6.96-3.51,12.61-6.06,16.62-1.66,2.62-3.51,4.58-5.46,5.98-2.12-12.27-2.66-25.48-2.57-37.34,0-1.05.02-2.11.05-3.14.04-1.27-.72-2.04-.75-1.02,0,0-.68,18.78.28,28.74.42,4.36.99,8.71,1.78,12.96.03.18.08.34.13.49-2.38,1.37-4.92,1.66-7.22,3.5-3.5,2.81-6.33,8.7-7.54,17.76-.68,5.1-6.72,21.44-9.43,32.86-2.86,10.63-6.6,26.81-10.25,44.43-3.07-12.52-9.39-22.55-16.46-30.67.75-6.94,1.4-13.9,2.16-20.83,1.13-10.3,2.26-20.35,1.37-30.49-.62-7.08-2.08-13.83-4.19-19.94-1.03-3.01-2.22-6.14-3.78-8.53-.54-.83-.17,1.06-.11,1.3.26,1.19,2.31,7.89,2.89,9.45,1.66,4.52,2.88,10.39,3.27,16.25.65,9.72-.25,18.48-1.32,28.3-.6,5.49-1.19,10.98-1.73,16.48-.19,1.91-.39,3.83-.6,5.74-2.14-2.31-4.33-4.46-6.5-6.47-3.42-3.15-6.92-6.08-10.44-8.96-3.01-2.47-6.2-4.71-9.02-7.64-6.82-7.08-10.72-19.12-12.93-31.3-1.48-8.15-3.71-16.76-4.06-25.42-.05-1.34-1.4-1.14-1.35.15.29,7.2,1.11,14.33,2.17,21.21,1.9,12.4,4.79,24.84,10.09,34.26-6.32,2.97-14.29,3.52-29.02-4.44-.66-.36-.94.2-1.59.58-.15.09,7.52,6.45,11.34,7.52,7.18,2.02,14.38,3.46,21.68.06,2.19,2.86,4.7,5,7.27,7.13,3.31,2.74,6.64,5.41,9.93,8.21,7.24,6.19,14.37,13.03,20.21,22.1,5.44,8.44,6.21,27.11,5.62,41.84-4.46,23.91-7.96,46.8-8.25,58.93,0,.18,0,.39-.01.61-3.26-4.63-7.31-8.26-11.76-10.82-4.87-2.8-10.09-4.07-15.07-6.41.09-.14.17-.29.22-.46,1.22-4.11,1.97-8.42,2.41-12.79,1.01-9.99-2.16-29.79-2.16-29.79-.16-1.08-1.64-.56-1.44.77.16,1.09.28,2.19.4,3.29,1.32,12.38,1.5,25.92-1.66,37.87-4.13-2.21-8.09-4.97-11.75-8.34-5.59-5.15-10.48-11.84-13.96-19.61-1.38-3.08-2.72-6.47-3.4-9.97-.15-.79-1.35,1.4-1.26,2.15.52,4.39,1.46,7.85,3.24,11.53,3.16,6.54,6.91,11.99,11.44,16.59-2.65-.96-5.27-2.25-7.79-3.45-2.78-1.31-5.54-2.69-8.27-4.18-.42-.23-.97,1.4-1.34,1.64-.08.06,4.95,2.61,7.81,3.95,3.75,1.76,9.62,5,14,6.04,3.91,3.17,8.1,5.7,12.44,7.69,5.18,2.39,10.57,3.63,15.54,6.83,4.79,3.08,9.03,11.47,12.11,19.6-.13,6.37-.29,14.44-.46,23.24-10.49-7.21-17.29-22.62-21.51-36.72-.25-.84-.35-.95-.99-1.3-.51-.28-1.05.46-.82,1.23,2.17,7.23,4.5,12.89,7.82,19.32,3.39,6.58,6.27,13.61,15.43,21.84-.59,29.73-1.28,65.63-1.46,72.66-.88,34.67-11.34,130.55-11.34,130.55h36.36s3.84-124.05-1.35-171.68c-1.15-10.51-2.06-19.86-2.77-28.48,1.77-5.11,4.08-9.56,6.99-11.9,5.92-4.74,12.51-7.78,19.11-10.39,2.99-1.18,6-2.26,9-3.39,2.33-.88,4.61-1.78,6.75-3.21,5.24,3.63,11.11,4.09,17.05,4.18,3.16.05,10.12-2.58,10.01-2.67-.46-.37-.6-.79-1.17-.68-12.74,2.29-18.92.38-23.45-2.77Z"/><path class="cls-6" d="M2159.09,1594.4c2.17,1.23,4.6,3.15,4.67,6.17,10.19-2.82,21.98-4.99,30.05,3.41,5.06,5.26,7.43,13.59,9.03,21.66,1.61,8.13,2.66,16.89.38,24.76-3.99,13.82-16.76,20.16-28.31,20.86,1.69-.6,3.27,1.88,3.11,4.11-.17,2.23-1.45,4.03-2.75,5.54-9.47,11-22.61,15.21-35.33,17.24-9.74,1.55-19.7,2.04-29.3-.51-9.61-2.55-18.9-8.35-25.32-17.79-6.25,5.44-14.39,5.91-21.9,4.74-6.6-1.03-13.31-3.29-18.52-8.56-10.53-10.64-11.98-31.77-5.4-46.69,5.68-12.87,16.58-21.76,28.13-22.96,1.31-.14,6.09-7.4,7.76-8.66,3.22-2.44,6.83-4.1,10.53-4.84,3.68-.74,7.39.65,10.95-.02,3.61-.68,7.4-3.44,11.04-4.52,16.97-5.03,35.23-2.97,51.17,6.06Z"/><path class="cls-2" d="M2017.7,1591.85c-8.02-4.33-17.65-1.05-24.46,5.86-1.37-5.52-5.61-9.27-10.02-10.65-4.42-1.38-9.05-.8-13.58-.21-3.31.43-6.72.91-9.68,2.84-2.96,1.94-5.43,5.71-5.37,9.95-7.62-2.88-16.94.68-20.69,9.59-3.75,8.92.33,22.18,8.18,23.78-3.11,10.08,3.59,21.63,11.75,24.72,8.16,3.09,16.91.1,24.96-3.4,7.27,4.86,15.58,7.87,23.7,6.34,8.12-1.53,15.92-8.26,18.58-18.15,21.64,1.99,7.53-44.81-3.37-50.69Z"/><path class="cls-2" d="M2167.98,1476.03c-5.61-7.39-16.7-7.73-19.99,1.89-.28-8.49-6.6-14.76-12.83-15.61s-12.34,2.32-18.17,5.44c-4.83,2.58-10.34,6.23-11.26,13.16-12.37-5.72-26.03-6.25-38.62-1.5-4.72,1.78-9.63,4.67-12.07,10.44s-.78,14.86,4.02,16.2c-8.3,3.61-15.34,12.83-17.54,24.26-2.2,11.44.94,24.69,8.08,31.45,7.15,6.76,17.93,5.81,23.88-2.83,16.54,27.01,47.19,35.9,70.42,20.43,5.66-3.77,11.29-9.65,12.44-18.06,6.71,8.01,16.97,8.36,25.32,4.08,10.5-5.38,19.37-18.9,19.05-34.12-.37-17.61-13.36-14.17-19.07-25.28,5.8-10.17-6.63-20.68-13.66-29.95Z"/><path class="cls-6" d="M2051.1,1464.2c-3.32-8.37-11.38-12.46-18.85-15.46-4.06-1.63-8.27-3.18-12.55-2.82-4.28.36-8.68,3.07-10.24,7.74-13.05-6.73-28.38-7.19-41.71-1.24-1.55.69-3.17,1.56-4.05,3.19-.53.98-.74,2.16-1.3,3.12-.81,1.38-2.2,2.1-3.49,2.83-13.71,7.81-22.54,25.97-21.24,43.71.33,4.48,1.37,9.17,4.17,12.26,2.79,3.1,7.74,3.85,10.4.59,3.24,12.41,12.55,22.39,23.43,25.1,10.88,2.71,22.87-1.97,30.17-11.75,17.67,10.48,41.21,5.03,54.11-12.53,2.55-3.47,4.75-7.46,5.46-11.96.72-4.49-.29-9.55-3.27-12.52,15.02-23.65-11.04-30.26-11.04-30.26Z"/><path class="cls-6" d="M2112.55,1390.85c-13.18-4.58-27.96-.94-38.86,9.55-1.48-2.46-3.95-3.5-6.28-4.41-4.26-1.67-8.69-3.36-13.11-2.6-4.42.75-8.84,4.67-9.48,10.29-4.62.28-8.85,3.67-11.96,8.04-3.1,4.37-5.24,9.68-7.35,14.93-1.12,2.79-2.27,5.78-2.05,8.91.41,5.6,4.86,9.05,8.81,11.58-1.95,5.25.81,11.54,4.41,15.11,7.42,7.36,17.73,7.69,27.02,5.84,3.23-.64,7.3-2.93,6.85-7.06,10.19,7.89,22.64,10.88,34.4,8.36,5.23-1.12,10.49-3.42,14.3-8.12,3.81-4.7,5.81-12.19,3.83-18.44,34.67-19.58,4.97-46.6-10.54-51.98Z"/><path class="cls-7" d="M3005.4,1644.06c4.61-7.16,10.24-12.56,15.95-17.44,2.59-2.21,5.22-4.32,7.83-6.48,2.03-1.68,4.01-3.37,5.74-5.63,5.76,2.68,11.44,1.55,17.11-.05,3.02-.85,9.07-5.87,8.95-5.94-.51-.3-.73-.74-1.26-.46-11.63,6.28-17.91,5.85-22.9,3.51,4.18-7.43,6.46-17.25,7.96-27.04.83-5.43,1.49-11.06,1.71-16.74.04-1.02-1.02-1.17-1.07-.12-.27,6.83-2.03,13.62-3.2,20.06-1.75,9.61-4.83,19.12-10.21,24.71-2.23,2.31-4.74,4.08-7.12,6.03-2.78,2.28-5.55,4.58-8.24,7.07-1.71,1.58-3.44,3.28-5.13,5.1-.17-1.51-.32-3.02-.47-4.53-.43-4.34-.89-8.67-1.36-13.01-.85-7.74-1.56-14.66-1.04-22.33.31-4.63,1.27-9.26,2.58-12.83.45-1.23,2.07-6.52,2.28-7.46.04-.19.34-1.68-.09-1.03-1.23,1.88-2.17,4.36-2.99,6.73-1.66,4.83-2.81,10.15-3.3,15.74-.71,8,.19,15.93,1.08,24.06.6,5.47,1.11,10.97,1.71,16.44-5.58,6.41-10.57,14.32-12.99,24.21-2.89-13.9-5.84-26.68-8.09-35.06-2.13-9.01-6.91-21.91-7.44-25.93-.95-7.15-3.18-11.8-5.95-14.02-1.81-1.45-3.82-1.68-5.7-2.76.04-.12.08-.25.1-.39.63-3.35,1.08-6.79,1.41-10.23.76-7.86.22-22.69.22-22.69-.02-.81-.62-.2-.6.8.02.82.03,1.65.04,2.48.08,9.36-.35,19.79-2.03,29.47-1.54-1.1-3-2.66-4.31-4.72-2.01-3.16-3.69-7.62-4.78-13.11-.43-2.18-.84-4.6-.98-7.21-.03-.59-.58,1.28-.57,1.84.05,3.32.29,5.85.86,8.43,1.01,4.59,2.29,8.26,3.9,11.15-1.01-.36-1.99-.98-2.94-1.53-1.04-.61-2.08-1.27-3.1-2.02-.16-.12-.43,1.22-.58,1.46-.03.05,1.85,1.29,2.93,1.92,1.41.82,3.6,2.45,5.28,2.63,1.43,1.88,2.99,3.23,4.62,4.14,1.95,1.09,4.03,1.27,5.86,3.02,2.6,2.48,2.15,7.67,2.87,14.86.24,2.38,1.3,7.98,2.45,13.62,0,0,0,0,0,0,.01.04.03.1.04.15.09.42.17.84.26,1.27,1.16,6.21,4.54,29.31,7.42,49.6-4.63-9.59-9.96-14.65-14.61-17.84-1.7-1.17-3.39-2.14-5.07-3.07-1.44-.8-2.89-1.38-4.36-2.58-1.69-1.38-3.4-3.79-5.07-6.81.04-.2.08-.38.07-.48,0-.18-.23-.28-.52-.34-1.7-3.18-3.34-6.95-4.88-10.89-2.12-5.45-4.57-10.98-6.44-17.16-.29-.96-.67-.37-.39.55,1.56,5.14,3.27,10.06,5,14.73,1.64,4.43,3.38,8.78,5.17,12.65-4.79-.22-10.12-2.44-18.33-12.93-.36-.45-.65-.2-1.14-.2-.12,0,3.57,6.65,5.82,8.66,4.43,3.95,8.99,7.52,14.73,7.66.07,0,.16-.15.27-.38,1.32,2.61,2.66,4.91,4.02,6.76,1.66,2.25,3.21,3.18,4.78,4.08,1.59.9,3.17,1.74,4.76,2.7,3.51,2.11,7.12,4.74,10.78,9.41,2.24,2.85,4.75,9.58,7.01,16.95,1.59,11.4,2.78,20.24,2.92,21.82,1.71,19.73,1.94,34.82.62,54.19-3.14-4.03-7.12-7.08-11.27-9.47-.33-3.67-.73-7.33-1.06-11-.48-5.44-.94-10.75-2.66-15.8-1.2-3.53-2.88-6.75-4.89-9.56-.99-1.38-2.09-2.8-3.33-3.78-.43-.34.02.57.08.68.3.57,2.34,3.68,2.88,4.39,1.55,2.06,2.98,4.87,3.9,7.81,1.52,4.87,1.97,9.49,2.44,14.67.26,2.9.52,5.8.82,8.69.1,1.01.19,2.02.28,3.03-1.59-.85-3.19-1.62-4.77-2.31-2.48-1.09-4.99-2.04-7.51-2.98-2.15-.8-4.39-1.46-6.48-2.52-5.04-2.57-8.85-8.13-11.62-14.02-1.86-3.94-4.23-8-5.44-12.38-.19-.68-1-.37-.82.28,1.01,3.64,2.34,7.16,3.79,10.52,2.61,6.05,5.84,11.96,10.21,15.96-3.58,2.5-8.46,4.01-18.53,2.2-.45-.08-.56.25-.92.54-.08.07,5.41,2.14,7.9,2.1,4.69-.07,9.32-.44,13.46-3.3,1.69,1.12,3.49,1.84,5.33,2.53,2.37.89,4.74,1.75,7.1,2.68,5.21,2.05,10.41,4.46,15.08,8.2,2.3,1.85,4.12,5.37,5.52,9.4-.55,6.8-1.28,14.17-2.18,22.47-4.1,37.59-1.06,135.49-1.06,135.49h28.7s-8.26-75.67-8.95-103.03c-.14-5.55-.69-33.88-1.15-57.35,7.22-6.5,9.5-12.04,12.17-17.24,2.62-5.08,4.46-9.54,6.17-15.25.18-.61-.24-1.2-.65-.97-.51.28-.59.37-.78,1.02-3.34,11.13-8.7,23.28-16.98,28.97-.14-6.94-.26-13.3-.37-18.32,2.43-6.42,5.78-13.04,9.56-15.48,3.92-2.52,8.18-3.51,12.26-5.39,3.42-1.58,6.73-3.57,9.81-6.07,3.46-.83,8.09-3.38,11.05-4.77,2.26-1.06,6.23-3.08,6.17-3.12-.29-.19-.72-1.48-1.05-1.3-2.15,1.17-4.33,2.26-6.52,3.3-1.99.94-4.06,1.96-6.15,2.72,3.58-3.63,6.53-7.93,9.03-13.09,1.4-2.91,2.15-5.63,2.56-9.1.07-.59-.87-2.32-.99-1.7-.54,2.76-1.59,5.44-2.68,7.87-2.75,6.13-6.61,11.42-11.02,15.48-2.89,2.66-6.02,4.82-9.28,6.56-2.49-9.43-2.35-20.11-1.31-29.87.09-.87.19-1.74.32-2.59.15-1.05-1.01-1.45-1.14-.61,0,0-2.5,15.62-1.7,23.51.35,3.45.94,6.85,1.9,10.1.04.14.11.25.17.36-3.93,1.85-8.06,2.85-11.9,5.06-3.52,2.02-6.71,4.9-9.28,8.56,0-.18,0-.35-.01-.5-.23-9.57-3-27.64-6.51-46.51-.47-11.62.14-26.36,4.43-33.02Z"/><path class="cls-6" d="M2915.55,1653.86c-1.71.97-3.63,2.49-3.69,4.87-8.04-2.23-17.35-3.94-23.72,2.69-3.99,4.15-5.87,10.73-7.13,17.1-1.27,6.42-2.1,13.33-.3,19.54,3.15,10.91,13.22,15.91,22.34,16.46-1.34-.47-2.58,1.49-2.45,3.24.13,1.76,1.15,3.18,2.17,4.37,7.48,8.68,17.85,12.01,27.89,13.61,7.69,1.23,15.55,1.61,23.13-.4,7.58-2.01,14.91-6.59,19.99-14.04,4.93,4.3,11.35,4.66,17.29,3.74,5.21-.81,10.51-2.6,14.62-6.75,8.31-8.4,9.46-25.07,4.26-36.85-4.48-10.16-13.08-17.17-22.2-18.12-1.04-.11-4.8-5.84-6.12-6.84-2.54-1.93-5.39-3.23-8.31-3.82-2.9-.59-5.83.52-8.64-.02-2.85-.54-5.84-2.72-8.72-3.57-13.39-3.97-27.81-2.34-40.38,4.78Z"/><path class="cls-2" d="M3027.14,1651.85c6.33-3.41,13.93-.83,19.31,4.63,1.08-4.36,4.42-7.31,7.91-8.4,3.49-1.09,7.14-.63,10.72-.16,2.62.34,5.3.71,7.64,2.25s4.29,4.5,4.24,7.85c6.01-2.27,13.37.53,16.33,7.57s-.26,17.51-6.45,18.77c2.46,7.96-2.83,17.07-9.27,19.51-6.44,2.44-13.35.08-19.7-2.68-5.74,3.83-12.3,6.21-18.71,5.01-6.41-1.21-12.56-6.52-14.66-14.32-17.08,1.57-5.95-35.37,2.66-40.01Z"/><path class="cls-2" d="M2908.53,1560.44c4.42-5.84,13.18-6.1,15.78,1.49.22-6.7,5.21-11.65,10.13-12.32,4.92-.67,9.74,1.83,14.34,4.29,3.81,2.04,8.16,4.92,8.88,10.39,9.77-4.52,20.54-4.93,30.48-1.18,3.72,1.41,7.6,3.69,9.53,8.24s.61,11.72-3.17,12.79c6.55,2.85,12.11,10.12,13.84,19.15,1.73,9.03-.74,19.49-6.38,24.82-5.64,5.34-14.15,4.59-18.85-2.23-13.05,21.32-37.24,28.33-55.58,16.12-4.47-2.98-8.91-7.62-9.82-14.26-5.29,6.32-13.39,6.6-19.99,3.22-8.29-4.25-15.29-14.92-15.03-26.93.29-13.9,10.55-11.18,15.05-19.95-4.58-8.03,5.23-16.32,10.78-23.64Z"/><path class="cls-6" d="M3000.78,1551.11c2.62-6.6,8.98-9.83,14.88-12.21,3.2-1.29,6.53-2.51,9.9-2.22,3.38.29,6.85,2.42,8.08,6.11,10.3-5.31,22.4-5.67,32.92-.98,1.22.55,2.5,1.23,3.19,2.52.42.78.59,1.71,1.03,2.46.64,1.09,1.74,1.65,2.75,2.23,10.82,6.16,17.79,20.5,16.76,34.5-.26,3.54-1.08,7.23-3.29,9.68s-6.11,3.04-8.21.47c-2.55,9.8-9.91,17.67-18.49,19.81-8.58,2.14-18.05-1.55-23.81-9.28-13.95,8.27-32.52,3.97-42.7-9.89-2.01-2.74-3.75-5.89-4.31-9.44-.56-3.55.23-7.54,2.58-9.88-11.85-18.67,8.71-23.88,8.71-23.88Z"/><path class="cls-6" d="M2952.28,1493.22c10.4-3.61,22.07-.74,30.67,7.54,1.17-1.94,3.12-2.76,4.96-3.48,3.36-1.32,6.86-2.65,10.35-2.05,3.49.59,6.98,3.69,7.48,8.12,3.65.22,6.99,2.89,9.44,6.34,2.45,3.45,4.14,7.64,5.8,11.78.88,2.21,1.79,4.56,1.62,7.03-.32,4.42-3.84,7.14-6.95,9.14,1.54,4.15-.64,9.1-3.48,11.92-5.85,5.81-14,6.07-21.33,4.61-2.55-.51-5.76-2.31-5.41-5.57-8.04,6.23-17.87,8.58-27.15,6.6-4.13-.88-8.28-2.7-11.29-6.41s-4.59-9.62-3.02-14.56c-27.36-15.45-3.92-36.77,8.32-41.02Z"/><path class="cls-7" d="M646.24,1245.26c11.13-15.03,24.7-26.37,38.5-36.63,6.25-4.65,12.61-9.07,18.9-13.61,4.89-3.53,9.68-7.07,13.85-11.81,13.9,5.63,27.61,3.24,41.28-.11,7.28-1.78,21.89-12.32,21.6-12.46-1.24-.63-1.77-1.55-3.03-.96-28.05,13.19-43.22,12.28-55.26,7.36,10.1-15.6,15.59-36.22,19.21-56.77,2.01-11.41,3.58-23.23,4.13-35.15.1-2.14-2.47-2.46-2.57-.24-.66,14.34-4.9,28.6-7.72,42.12-4.21,20.18-11.65,40.14-24.63,51.87-5.37,4.86-11.45,8.57-17.18,12.66-6.71,4.78-13.38,9.63-19.89,14.85-4.13,3.32-8.3,6.88-12.38,10.71-.4-3.17-.78-6.33-1.13-9.51-1.03-9.11-2.15-18.21-3.29-27.31-2.04-16.26-3.75-30.78-2.51-46.89.75-9.71,3.06-19.44,6.23-26.93,1.09-2.59,5.01-13.7,5.5-15.66.1-.41.82-3.53-.22-2.16-2.97,3.95-5.24,9.15-7.21,14.13-4,10.13-6.79,21.31-7.97,33.05-1.7,16.81.45,33.45,2.61,50.53,1.45,11.5,2.68,23.02,4.11,34.53-13.47,13.46-25.51,30.07-31.35,50.82-6.96-29.18-14.08-56.01-19.53-73.62-5.15-18.92-16.66-46-17.96-54.45-2.3-15.01-7.69-24.78-14.35-29.43-4.38-3.05-9.23-3.5-13.75-5.78.1-.26.19-.53.26-.84,1.51-7.03,2.6-14.25,3.4-21.47,1.83-16.51.53-47.63.53-47.63-.06-1.7-1.51-.41-1.44,1.68.06,1.72.08,3.46.1,5.21.18,19.66-.82,41.56-4.86,61.9-3.73-2.32-7.25-5.58-10.43-9.93-4.85-6.64-8.92-16-11.55-27.54-1.04-4.58-2.02-9.67-2.36-15.13-.07-1.24-1.4,2.68-1.38,3.87.11,6.97.71,12.28,2.08,17.71,2.43,9.63,5.49,17.33,9.38,23.4-2.42-.75-4.78-2.05-7.06-3.21-2.52-1.28-5.02-2.68-7.48-4.25-.38-.24-1.04,2.57-1.41,3.07-.08.12,4.48,2.72,7.07,4.03,3.4,1.72,8.69,5.17,12.76,5.53,3.44,3.95,7.19,6.76,11.13,8.68,4.71,2.29,9.72,2.66,14.15,6.33,6.28,5.2,5.19,16.11,6.91,31.19.57,5.01,3.14,16.76,5.91,28.59,0,0-.01,0-.02,0,.03.08.06.21.09.32.21.89.42,1.78.63,2.66,2.8,13.05,10.96,61.55,17.9,104.14-11.17-20.13-24.04-30.76-35.27-37.45-4.11-2.45-8.18-4.48-12.23-6.45-3.47-1.68-6.96-2.9-10.52-5.42-4.07-2.89-8.2-7.95-12.24-14.29.11-.43.18-.79.17-1.01-.01-.37-.56-.59-1.25-.72-4.09-6.68-8.07-14.6-11.77-22.86-5.12-11.44-11.03-23.05-15.55-36.03-.7-2.01-1.61-.78-.94,1.16,3.76,10.8,7.89,21.13,12.06,30.92,3.97,9.3,8.15,18.44,12.48,26.57-11.56-.45-24.42-5.14-44.23-27.16-.86-.95-1.56-.43-2.75-.41-.28,0,8.62,13.96,14.05,18.17,10.69,8.29,21.7,15.79,35.55,16.08.16,0,.4-.31.66-.79,3.18,5.47,6.42,10.31,9.71,14.2,4,4.73,7.74,6.69,11.54,8.57,3.83,1.9,7.64,3.66,11.48,5.67,8.48,4.44,17.18,9.95,26.02,19.76,5.4,5.99,11.46,20.11,16.91,35.59,3.84,23.94,6.71,42.5,7.04,45.82,4.11,41.42,4.68,73.09,1.5,113.74-7.58-8.45-17.2-14.85-27.19-19.85-.8-7.7-1.76-15.37-2.55-23.07-1.17-11.43-2.26-22.58-6.41-33.18-2.9-7.4-6.96-14.18-11.8-20.06-2.38-2.89-5.03-5.88-8.03-7.94-1.04-.71.04,1.19.19,1.44.72,1.19,5.65,7.73,6.95,9.22,3.75,4.32,7.19,10.23,9.41,16.4,3.67,10.23,4.76,19.93,5.88,30.81.62,6.09,1.27,12.18,1.99,18.25.25,2.12.48,4.23.7,6.35-3.85-1.79-7.73-3.4-11.53-4.84-5.99-2.28-12.05-4.29-18.12-6.25-5.19-1.68-10.59-3.06-15.63-5.29-12.17-5.4-21.35-17.08-28.05-29.44-4.48-8.28-10.21-16.8-13.13-25.98-.45-1.42-2.42-.78-1.98.59,2.43,7.64,5.64,15.03,9.13,22.08,6.29,12.7,14.06,25.13,24.61,33.53-8.64,5.23-20.41,8.39-44.67,4.59-1.09-.17-1.35.52-2.22,1.13-.2.14,13.05,4.49,19.07,4.42,11.31-.15,22.49-.92,32.47-6.93,4.08,2.36,8.43,3.86,12.86,5.31,5.71,1.88,11.45,3.66,17.14,5.62,12.56,4.31,25.13,9.36,36.4,17.21,5.56,3.87,9.94,11.26,13.32,19.72-1.34,14.28-3.09,29.77-5.27,47.19-9.89,78.92-2.57,284.49-2.57,284.49h69.25s-19.92-158.89-21.59-216.33c-.34-11.65-1.67-71.13-2.78-120.4,17.45-13.65,22.91-25.29,29.38-36.21,6.31-10.66,10.76-20.04,14.89-32.02.44-1.27-.59-2.51-1.57-2.04-1.22.59-1.41.77-1.89,2.15-8.05,23.37-21,48.9-40.97,60.86-.33-14.58-.64-27.94-.88-38.5,5.86-13.48,13.95-27.38,23.06-32.49,9.45-5.3,19.73-7.36,29.59-11.31,8.25-3.31,16.23-7.49,23.68-12.75,8.34-1.74,19.52-7.09,26.65-10.02,5.45-2.23,15.04-6.46,14.88-6.55-.7-.4-1.75-3.1-2.54-2.72-5.2,2.46-10.46,4.74-15.75,6.92-4.79,1.97-9.74,4.11-14.77,5.7,8.61-7.61,15.7-16.65,21.71-27.47,3.39-6.11,5.2-11.83,6.18-19.11.17-1.24-2.11-4.87-2.39-3.56-1.3,5.79-3.85,11.42-6.48,16.52-6.63,12.88-15.95,23.97-26.59,32.5-6.97,5.59-14.52,10.16-22.38,13.82-6.03-19.8-5.69-42.25-3.16-62.76.22-1.82.46-3.64.76-5.45.37-2.21-2.45-3.06-2.75-1.27,0,0-6.04,32.8-4.11,49.37.84,7.24,2.28,14.39,4.59,21.2.1.29.25.55.42.79-9.49,3.87-19.44,5.96-28.71,10.6-8.48,4.24-16.2,10.26-22.4,17.93,0-.36-.02-.7-.03-1.01-.56-20.1-7.23-58.03-15.72-97.65-1.13-24.41.34-55.34,10.7-69.33Z"/><path class="cls-2" d="M429.42,1265.85c-4.13,2.04-8.77,5.23-8.9,10.23-19.4-4.68-41.86-8.26-57.24,5.65-9.64,8.72-14.15,22.53-17.21,35.89-3.08,13.47-5.06,27.99-.73,41.03,7.59,22.9,31.91,33.4,53.91,34.57-3.23-.99-6.24,3.12-5.92,6.81s2.77,6.68,5.24,9.18c18.04,18.22,43.07,25.21,67.29,28.57,18.55,2.57,37.51,3.38,55.81-.84,18.3-4.22,35.99-13.83,48.23-29.48,11.9,9.02,27.4,9.79,41.71,7.86,12.58-1.7,25.35-5.46,35.28-14.18,20.06-17.64,22.82-52.64,10.28-77.38-10.82-21.32-31.57-36.06-53.58-38.04-2.5-.23-11.59-12.26-14.77-14.35-6.13-4.05-13-6.79-20.05-8.03-7-1.23-14.07,1.08-20.86-.04-6.88-1.13-14.09-5.7-21.03-7.5-32.32-8.34-67.11-4.92-97.45,10.04Z"/><path class="cls-6" d="M671.49,1239.4c20.12-9.44,44.27-2.28,61.36,12.8,3.43-12.06,14.06-20.23,25.14-23.24,11.08-3.01,22.7-1.75,34.06-.46,8.31.95,16.84,1.98,24.27,6.21,7.43,4.23,13.62,12.45,13.48,21.71,19.11-6.28,42.48,1.48,51.89,20.94s-.84,48.41-20.51,51.9c7.81,22-9.01,47.2-29.46,53.95-20.46,6.75-42.41.21-62.61-7.42-18.23,10.6-39.09,17.18-59.46,13.84-20.37-3.34-39.93-18.03-46.6-39.61-54.28,4.35-18.9-97.79,8.45-110.63Z"/><path class="cls-2" d="M742.54,1386.73c-12.67-5.37-18.62-7.3-28.98.69-2.34-6.59-18.02-5.62-24.96-7.39-6.94-1.77-14.14-1.22-21.17-.65-5.15.42-10.43.87-14.97,3.08-4.54,2.21-8.24,6.6-7.99,11.63-11.98-3.64-26.37.29-31.87,10.75-5.5,10.46,1.37,26.3,13.66,28.43-4.47,11.85,6.43,25.74,19.26,29.65,12.83,3.91,26.36.62,38.78-3.28,11.52,5.98,24.59,9.8,37.19,8.23,12.6-1.57,49.77-4.59,44.43-27.03,30.98-23.5-6.15-46.81-23.37-54.1Z"/><path class="cls-6" d="M412.5,1069.7c10.68-12.25,31.8-12.82,38.07,3.13.53-14.07,12.56-24.46,24.44-25.87s23.51,3.85,34.61,9.01c9.19,4.27,19.69,10.33,21.44,21.81,23.57-9.48,49.57-10.36,73.56-2.48,8.99,2.95,18.35,7.75,22.99,17.3,4.64,9.56,1.48,24.62-7.66,26.85,15.8,5.98,29.21,21.25,33.4,40.21,4.18,18.95-1.78,40.92-15.39,52.12s-34.15,9.63-45.48-4.68c-31.5,44.76-89.87,59.49-134.11,33.85-10.78-6.25-21.5-16-23.69-29.94-12.77,13.27-32.31,13.86-48.23,6.76-19.99-8.91-36.89-31.32-36.28-56.54.71-29.18,25.45-23.48,36.32-41.9-11.05-16.86,12.63-34.26,26.02-49.63Z"/><path class="cls-2" d="M635.09,1050.1c6.33-13.87,21.68-20.64,35.91-25.63,7.72-2.71,15.75-5.27,23.9-4.67,8.15.6,16.53,5.09,19.49,12.82,24.85-11.15,54.05-11.91,79.43-2.06,2.95,1.15,6.03,2.58,7.71,5.29,1.01,1.63,1.42,3.59,2.48,5.17,1.54,2.29,4.19,3.47,6.65,4.69,26.12,12.94,42.93,43.04,40.45,72.43-.63,7.43-2.61,15.19-7.93,20.32-5.32,5.13-14.74,6.37-19.8.98-6.16,20.57-23.9,37.11-44.62,41.6-20.71,4.49-43.56-3.26-57.46-19.48-33.65,17.37-78.48,8.33-103.05-20.76-4.85-5.75-9.05-12.37-10.41-19.81-1.36-7.44.56-15.83,6.23-20.75-28.6-39.19,21.03-50.15,21.03-50.15Z"/><path class="cls-2" d="M518.07,928.54c25.11-7.58,53.26-1.56,74.01,15.83,2.81-4.07,7.53-5.8,11.96-7.3,8.12-2.76,16.55-5.56,24.97-4.31,8.42,1.25,16.84,7.75,18.05,17.06,8.8.46,16.86,6.08,22.77,13.32,5.91,7.24,9.99,16.05,13.99,24.74,2.13,4.63,4.33,9.58,3.9,14.76-.77,9.28-9.26,14.99-16.77,19.2,3.71,8.71-1.54,19.12-8.39,25.03-14.12,12.19-33.78,12.74-51.47,9.67-6.16-1.07-13.9-4.86-13.05-11.7-19.4,13.08-43.12,18.02-65.52,13.86-9.96-1.85-19.99-5.67-27.24-13.45-7.25-7.78-11.07-20.19-7.29-30.56-66.02-32.45-9.46-77.21,20.07-86.13Z"/><path class="cls-7" d="M3666.48,1298.13c7.78-12.06,17.25-21.16,26.88-29.4,4.37-3.73,8.8-7.28,13.2-10.93,3.41-2.83,6.75-5.68,9.67-9.49,9.71,4.52,19.29,2.61,28.84-.08,5.08-1.43,15.29-9.89,15.09-10-.87-.5-1.24-1.24-2.12-.77-19.59,10.59-30.18,9.86-38.59,5.91,7.05-12.52,10.89-29.07,13.42-45.56,1.4-9.15,2.5-18.64,2.88-28.21.07-1.72-1.72-1.98-1.8-.2-.46,11.51-3.42,22.96-5.39,33.8-2.94,16.2-8.13,32.22-17.2,41.63-3.75,3.9-8,6.88-12,10.16-4.68,3.84-9.35,7.73-13.89,11.92-2.88,2.66-5.8,5.52-8.65,8.6-.28-2.54-.54-5.08-.79-7.63-.72-7.31-1.5-14.61-2.3-21.92-1.43-13.05-2.62-24.71-1.75-37.63.52-7.8,2.14-15.6,4.35-21.62.76-2.08,3.5-10.99,3.84-12.57.07-.33.57-2.83-.15-1.73-2.08,3.17-3.66,7.34-5.03,11.34-2.8,8.13-4.74,17.1-5.57,26.52-1.19,13.49.32,26.85,1.82,40.55,1.01,9.23,1.87,18.48,2.87,27.71-9.41,10.8-17.81,24.13-21.89,40.79-4.86-23.42-9.83-44.95-13.64-59.09-3.6-15.18-11.64-36.92-12.54-43.7-1.61-12.05-5.37-19.89-10.02-23.62-3.05-2.45-6.44-2.83-9.6-4.65.07-.21.13-.42.17-.65,1.05-5.64,1.81-11.44,2.37-17.23,1.28-13.25.37-38.23.37-38.23-.04-1.36-1.05-.33-1,1.35.04,1.38.06,2.78.07,4.18.13,15.78-.59,33.35-3.41,49.67-2.6-1.86-5.05-4.48-7.26-7.96-3.39-5.33-6.23-12.84-8.06-22.1-.73-3.67-1.41-7.76-1.65-12.14-.05-.99-.98,2.15-.96,3.1.08,5.59.5,9.85,1.45,14.21,1.7,7.74,3.85,13.91,6.58,18.78-1.7-.6-3.35-1.64-4.95-2.58-1.76-1.03-3.51-2.15-5.22-3.41-.26-.19-.73,2.06-.98,2.46-.06.09,3.12,2.18,4.94,3.23,2.38,1.38,6.07,4.15,8.91,4.44,2.4,3.17,5.02,5.43,7.77,6.97,3.29,1.84,6.79,2.14,9.88,5.08,4.38,4.17,3.62,12.93,4.83,25.04.4,4.02,2.19,13.45,4.13,22.95,0,0,0,0-.01,0,.02.07.04.17.06.26.15.71.29,1.42.44,2.13,1.95,10.47,7.65,49.4,12.5,83.59-7.8-16.16-16.78-24.69-24.63-30.06-2.87-1.96-5.71-3.6-8.54-5.18-2.42-1.35-4.86-2.32-7.35-4.35-2.84-2.32-5.73-6.38-8.55-11.47.08-.35.12-.64.12-.81-.01-.3-.39-.47-.88-.58-2.86-5.36-5.64-11.72-8.22-18.34-3.58-9.18-7.7-18.5-10.86-28.92-.49-1.61-1.13-.62-.66.93,2.62,8.67,5.51,16.96,8.42,24.82,2.77,7.47,5.69,14.8,8.72,21.32-8.07-.36-17.05-4.13-30.89-21.8-.6-.76-1.09-.35-1.92-.33-.19,0,6.02,11.2,9.81,14.59,7.46,6.66,15.16,12.67,24.82,12.9.11,0,.28-.25.46-.63,2.22,4.39,4.48,8.28,6.78,11.39,2.8,3.79,5.41,5.37,8.06,6.88,2.67,1.52,5.33,2.94,8.02,4.55,5.92,3.56,12,7.99,18.17,15.86,3.77,4.81,8,16.14,11.81,28.56,2.68,19.22,4.68,34.11,4.91,36.77,2.87,33.24,3.27,58.66,1.05,91.29-5.29-6.78-12.01-11.92-18.99-15.93-.56-6.18-1.23-12.34-1.78-18.52-.81-9.17-1.58-18.12-4.48-26.63-2.03-5.94-4.86-11.38-8.24-16.1-1.66-2.32-3.51-4.72-5.61-6.37-.73-.57.03.96.13,1.15.5.95,3.95,6.2,4.85,7.4,2.62,3.47,5.02,8.21,6.57,13.16,2.57,8.21,3.33,15.99,4.11,24.73.44,4.89.88,9.77,1.39,14.65.17,1.7.34,3.4.49,5.1-2.69-1.44-5.4-2.72-8.05-3.89-4.18-1.83-8.41-3.44-12.65-5.02-3.62-1.35-7.4-2.45-10.91-4.25-8.5-4.34-14.91-13.7-19.58-23.63-3.13-6.64-7.13-13.49-9.17-20.85-.31-1.14-1.69-.62-1.38.48,1.69,6.13,3.94,12.06,6.38,17.72,4.39,10.19,9.82,20.17,17.19,26.91-6.03,4.2-14.25,6.73-31.19,3.69-.76-.14-.95.41-1.55.91-.14.12,9.11,3.61,13.32,3.54,7.9-.12,15.71-.74,22.68-5.56,2.85,1.9,5.88,3.09,8.98,4.26,3.99,1.51,7.99,2.94,11.97,4.51,8.77,3.46,17.55,7.51,25.42,13.81,3.88,3.11,6.94,9.03,9.3,15.83-.93,11.46-2.16,23.89-3.68,37.87-6.9,63.34-1.79,228.33-1.79,228.33h48.36s-13.91-127.52-15.08-173.63c-.24-9.35-1.17-57.09-1.94-96.63,12.19-10.96,16-20.3,20.52-29.06,4.41-8.55,7.51-16.08,10.39-25.7.31-1.02-.41-2.02-1.09-1.64-.85.47-.99.62-1.32,1.73-5.62,18.76-14.66,39.25-28.61,48.84-.23-11.7-.44-22.43-.62-30.9,4.1-10.82,9.74-21.97,16.11-26.07,6.6-4.25,13.78-5.91,20.66-9.08,5.76-2.65,11.33-6.01,16.54-10.23,5.82-1.39,13.63-5.69,18.61-8.04,3.8-1.79,10.5-5.19,10.39-5.26-.49-.32-1.22-2.49-1.78-2.18-3.63,1.97-7.3,3.81-11,5.55-3.36,1.59-6.83,3.31-10.37,4.59,6.03-6.11,11.01-13.36,15.22-22.06,2.37-4.9,3.63-9.49,4.32-15.34.12-.99-1.47-3.91-1.67-2.86-.91,4.65-2.69,9.16-4.52,13.26-4.63,10.34-11.14,19.24-18.57,26.08-4.86,4.48-10.14,8.15-15.63,11.09-4.21-15.89-3.97-33.91-2.21-50.37.16-1.46.32-2.92.53-4.37.26-1.77-1.71-2.45-1.92-1.02,0,0-4.22,26.33-2.87,39.62.59,5.81,1.59,11.55,3.21,17.01.07.23.17.43.28.62-6.62,3.11-13.57,4.8-20.04,8.52-5.92,3.41-11.31,8.24-15.64,14.39,0-.29-.01-.56-.02-.81-.39-16.13-5.05-46.57-10.98-78.38-.79-19.59.24-44.42,7.47-55.64Z"/><path class="cls-2" d="M3515.07,1314.65c-2.89,1.63-6.12,4.19-6.22,8.21-13.55-3.75-29.23-6.63-39.97,4.54-6.73,7-9.88,18.08-12.02,28.81-2.15,10.81-3.53,22.46-.51,32.93,5.3,18.38,22.29,26.81,37.65,27.74-2.25-.79-4.36,2.5-4.14,5.47.22,2.96,1.93,5.36,3.66,7.37,12.6,14.63,30.08,20.23,46.99,22.93,12.95,2.07,26.2,2.72,38.97-.67,12.78-3.39,25.13-11.1,33.68-23.66,8.31,7.24,19.13,7.86,29.13,6.31,8.78-1.36,17.7-4.38,24.63-11.38,14.01-14.16,15.94-42.25,7.18-62.1-7.55-17.11-22.04-28.94-37.41-30.53-1.75-.18-8.1-9.84-10.32-11.52-4.28-3.25-9.08-5.45-14-6.44-4.89-.99-9.83.87-14.57-.03-4.81-.91-9.84-4.58-14.69-6.02-22.57-6.7-46.86-3.95-68.05,8.05Z"/><path class="cls-6" d="M3703.12,1311.26c10.67-5.75,23.47-1.39,32.53,7.8,1.82-7.35,7.46-12.33,13.33-14.16,5.88-1.84,12.04-1.07,18.06-.28,4.41.58,8.93,1.2,12.87,3.78,3.94,2.58,7.22,7.59,7.15,13.23,10.13-3.83,22.53.9,27.51,12.76,4.99,11.86-.44,29.5-10.88,31.63,4.14,13.41-4.78,28.76-15.62,32.88-10.85,4.11-22.49.13-33.2-4.52-9.67,6.46-20.72,10.47-31.53,8.44-10.8-2.04-21.17-10.99-24.71-24.14-28.78,2.65-10.02-59.6,4.48-67.42Z"/><path class="cls-2" d="M3503.26,1157.22c7.46-9.83,22.21-10.29,26.59,2.51.37-11.3,8.77-19.63,17.07-20.76,8.29-1.13,16.42,3.09,24.17,7.23,6.42,3.43,13.75,8.29,14.97,17.51,16.46-7.61,34.61-8.32,51.37-1.99,6.28,2.37,12.81,6.22,16.05,13.89s1.03,19.76-5.35,21.55c11.03,4.8,20.4,17.06,23.32,32.27,2.92,15.21-1.24,32.84-10.75,41.83-9.5,8.99-23.85,7.73-31.76-3.76-21.99,35.92-62.76,47.75-93.65,27.17-7.53-5.01-15.02-12.84-16.54-24.03-8.92,10.65-22.57,11.12-33.68,5.42-13.96-7.16-25.76-25.14-25.33-45.38.49-23.42,17.77-18.84,25.36-33.63-7.72-13.53,8.82-27.5,18.17-39.83Z"/><path class="cls-6" d="M3658.7,1141.49c4.42-11.13,15.14-16.57,25.07-20.57,5.39-2.17,11-4.23,16.69-3.74s11.54,4.08,13.61,10.29c17.35-8.95,37.74-9.56,55.47-1.65,2.06.92,4.21,2.07,5.38,4.25.7,1.31.99,2.88,1.73,4.15,1.08,1.84,2.93,2.79,4.64,3.76,18.24,10.38,29.98,34.54,28.25,58.13-.44,5.96-1.82,12.19-5.54,16.31s-10.29,5.11-13.83.79c-4.3,16.51-16.69,29.78-31.16,33.38-14.47,3.6-30.42-2.61-40.13-15.63-23.5,13.94-54.81,6.69-71.96-16.67-3.39-4.61-6.32-9.93-7.27-15.9-.95-5.98.39-12.7,4.35-16.65-19.98-31.46,14.68-40.25,14.68-40.25Z"/><path class="cls-6" d="M3576.98,1043.93c17.53-6.08,37.19-1.25,51.68,12.71,1.97-3.27,5.26-4.65,8.35-5.86,5.67-2.22,11.56-4.46,17.44-3.46,5.88,1,11.76,6.22,12.61,13.69,6.15.37,11.78,4.88,15.9,10.69,4.13,5.81,6.97,12.88,9.77,19.86,1.49,3.72,3.02,7.69,2.72,11.85-.54,7.45-6.47,12.03-11.71,15.41,2.59,6.99-1.07,15.34-5.86,20.09-9.86,9.79-23.59,10.23-35.94,7.76-4.3-.86-9.71-3.9-9.11-9.39-13.55,10.49-30.11,14.47-45.76,11.12-6.95-1.49-13.96-4.55-19.02-10.8-5.06-6.25-7.73-16.21-5.09-24.53-46.11-26.04-6.6-61.97,14.01-69.13Z"/><path class="cls-5" d="M4714.33,2415.46s549.2-699.34-236.58-861.58c-680.09-140.42-1746.75,541.88-2771.36,430.79-1444.82-156.65-1512.42,330.09-1089.95,469.07,315.65-14.66,960.79.91,1949.15,0,958.47-.89,2052.84,6.84,2148.74-38.28Z"/><path class="cls-7" d="M4482.87,1058.25c12.78-19.18,28.36-33.64,44.2-46.74,7.18-5.93,14.47-11.57,21.71-17.37,5.61-4.5,11.1-9.02,15.9-15.06,15.96,7.19,31.71,4.13,47.41-.15,8.36-2.27,25.14-15.72,24.8-15.9-1.42-.8-2.04-1.97-3.48-1.22-32.21,16.83-49.63,15.67-63.45,9.4,11.59-19.91,17.9-46.22,22.06-72.43,2.31-14.55,4.12-29.64,4.74-44.85.11-2.73-2.84-3.14-2.95-.31-.75,18.3-5.63,36.5-8.87,53.74-4.84,25.75-13.37,51.22-28.28,66.19-6.17,6.2-13.15,10.94-19.73,16.15-7.7,6.1-15.37,12.28-22.84,18.95-4.74,4.23-9.53,8.78-14.22,13.67-.46-4.04-.89-8.08-1.3-12.13-1.18-11.62-2.47-23.24-3.78-34.84-2.35-20.75-4.31-39.28-2.88-59.83.86-12.39,3.51-24.81,7.15-34.37,1.26-3.3,5.75-17.48,6.32-19.99.12-.52.94-4.51-.25-2.76-3.41,5.04-6.01,11.68-8.27,18.03-4.6,12.93-7.79,27.19-9.16,42.17-1.95,21.44.52,42.68,2.99,64.47,1.67,14.67,3.07,29.38,4.72,44.06-15.47,17.17-29.28,38.36-35.99,64.84-7.99-37.21-16.16-71.43-22.41-93.9-5.91-24.14-19.14-58.72-20.63-69.5-2.64-19.16-8.82-31.62-16.48-37.56-5.02-3.9-10.6-4.47-15.79-7.37.11-.34.22-.68.29-1.07,1.73-8.97,2.98-18.19,3.9-27.4,2.1-21.07.61-60.78.61-60.78-.07-2.17-1.73-.53-1.65,2.15.07,2.19.09,4.42.11,6.64.21,25.09-.94,53.03-5.58,78.98-4.28-2.96-8.32-7.12-11.97-12.67-5.57-8.48-10.24-20.42-13.26-35.14-1.2-5.84-2.31-12.34-2.71-19.3-.09-1.58-1.6,3.42-1.58,4.93.13,8.89.81,15.67,2.39,22.6,2.79,12.28,6.3,22.12,10.77,29.85-2.78-.96-5.49-2.61-8.1-4.09-2.89-1.64-5.77-3.42-8.59-5.42-.43-.31-1.2,3.27-1.62,3.92-.1.15,5.14,3.47,8.12,5.14,3.91,2.19,9.98,6.59,14.65,7.06,3.95,5.04,8.26,8.63,12.78,11.07,5.4,2.92,11.16,3.4,16.25,8.08,7.21,6.63,5.96,20.55,7.94,39.8.66,6.39,3.6,21.39,6.79,36.48,0,0-.02,0-.02,0,.03.1.06.2.09.32.25,1.18.5,2.36.75,3.53,3.22,16.75,12.59,78.56,20.54,132.83-12.82-25.69-27.6-39.25-40.49-47.79-4.72-3.12-9.39-5.72-14.05-8.23-3.98-2.14-8-3.7-12.08-6.91-4.68-3.69-9.42-10.13-14.06-18.21.13-.56.21-1.02.2-1.3-.02-.47-.65-.75-1.45-.93-4.7-8.52-9.26-18.63-13.51-29.16-5.88-14.59-12.66-29.41-17.85-45.98-.8-2.56-1.85-.99-1.08,1.48,4.31,13.78,9.05,26.96,13.85,39.45,4.56,11.87,9.36,23.52,14.33,33.9-13.27-.58-28.04-6.56-50.79-34.66-.98-1.22-1.79-.55-3.16-.53-.32,0,9.9,17.81,16.13,23.19,12.27,10.58,24.92,20.14,40.81,20.52.18,0,.45-.39.76-1,3.65,6.98,7.37,13.16,11.15,18.12,4.6,6.03,8.89,8.53,13.26,10.94,4.39,2.42,8.77,4.67,13.18,7.23,9.73,5.66,19.73,12.7,29.88,25.21,6.2,7.64,13.16,25.66,19.42,45.41,4.41,30.55,7.7,54.23,8.08,58.46,4.72,52.85,5.38,93.26,1.73,145.13-8.7-10.79-19.75-18.95-31.22-25.33-.92-9.82-2.03-19.62-2.93-29.44-1.34-14.59-2.59-28.81-7.36-42.34-3.33-9.45-7.99-18.09-13.55-25.6-2.73-3.69-5.78-7.5-9.22-10.13-1.19-.91.05,1.52.22,1.83.83,1.52,6.49,9.86,7.98,11.76,4.3,5.51,8.26,13.05,10.8,20.92,4.22,13.05,5.47,25.43,6.75,39.31.72,7.77,1.45,15.54,2.28,23.29.29,2.7.55,5.4.8,8.1-4.42-2.29-8.87-4.33-13.24-6.18-6.87-2.91-13.83-5.47-20.8-7.98-5.96-2.14-12.16-3.9-17.94-6.75-13.97-6.89-24.52-21.79-32.2-37.57-5.14-10.56-11.72-21.44-15.07-33.15-.52-1.81-2.77-.99-2.27.76,2.79,9.74,6.48,19.18,10.49,28.17,7.22,16.21,16.14,32.06,28.26,42.78-9.92,6.67-23.44,10.7-51.29,5.86-1.25-.22-1.55.66-2.55,1.45-.23.18,14.98,5.73,21.89,5.64,12.99-.19,25.82-1.18,37.29-8.84,4.68,3.01,9.67,4.92,14.76,6.78,6.56,2.4,13.14,4.68,19.68,7.17,14.43,5.5,28.85,11.94,41.79,21.96,6.38,4.94,11.42,14.37,15.3,25.17-1.53,18.21-3.55,37.98-6.05,60.2-11.35,100.7-2.95,363-2.95,363h79.52s-22.87-202.73-24.79-276.03c-.39-14.87-1.92-90.76-3.2-153.62,20.04-17.42,26.31-32.27,33.73-46.2,7.25-13.6,12.35-25.57,17.09-40.86.5-1.63-.68-3.21-1.8-2.61-1.4.75-1.62.98-2.17,2.75-9.24,29.82-24.11,62.4-47.05,77.65-.38-18.6-.73-35.66-1.01-49.13,6.73-17.2,16.01-34.93,26.48-41.45,10.85-6.76,22.65-9.39,33.98-14.44,9.47-4.22,18.64-9.56,27.19-16.26,9.58-2.22,22.41-9.05,30.61-12.78,6.25-2.85,17.27-8.24,17.09-8.36-.8-.51-2-3.95-2.92-3.47-5.97,3.14-12.01,6.05-18.08,8.83-5.49,2.51-11.18,5.24-16.95,7.27,9.88-9.71,18.03-21.24,24.93-35.05,3.89-7.79,5.97-15.09,7.09-24.39.19-1.58-2.42-6.22-2.75-4.54-1.5,7.39-4.42,14.57-7.44,21.08-7.61,16.43-18.31,30.58-30.53,41.47-8,7.13-16.67,12.96-25.7,17.63-6.92-25.27-6.53-53.91-3.63-80.08.26-2.32.53-4.65.88-6.95.43-2.81-2.81-3.9-3.16-1.62,0,0-6.94,41.85-4.72,62.99.97,9.24,2.61,18.36,5.27,27.05.11.37.28.7.48,1.01-10.89,4.94-22.32,7.61-32.96,13.52-9.73,5.41-18.6,13.09-25.72,22.88-.01-.46-.02-.89-.03-1.29-.65-25.65-8.3-74.05-18.05-124.61-1.29-31.14.39-70.61,12.28-88.45Z"/><path class="cls-2" d="M4233.91,1084.52c-4.74,2.6-10.07,6.67-10.22,13.06-22.28-5.97-48.07-10.54-65.72,7.21-11.07,11.13-16.25,28.74-19.76,45.8-3.53,17.19-5.81,35.71-.84,52.35,8.72,29.22,36.64,42.62,61.9,44.1-3.7-1.26-7.16,3.98-6.8,8.69s3.17,8.53,6.01,11.71c20.71,23.25,49.45,32.16,77.27,36.45,21.3,3.28,43.07,4.32,64.08-1.07,21.01-5.39,41.32-17.65,55.38-37.61,13.67,11.51,31.46,12.49,47.9,10.03,14.44-2.17,29.11-6.96,40.5-18.09,23.04-22.51,26.21-67.17,11.8-98.73-12.42-27.21-36.25-46.01-61.52-48.54-2.88-.29-13.31-15.64-16.96-18.31-7.04-5.16-14.93-8.66-23.03-10.24-8.04-1.57-16.16,1.38-23.95-.05-7.9-1.45-16.18-7.28-24.15-9.57-37.11-10.65-77.05-6.28-111.89,12.81Z"/><path class="cls-4" d="M4543.11,1079.14c17.54-9.15,38.59-2.21,53.49,12.4,2.99-11.68,12.26-19.6,21.92-22.52,9.66-2.92,19.79-1.7,29.69-.44,7.25.92,14.68,1.91,21.16,6.01,6.48,4.1,11.88,12.06,11.75,21.03,16.66-6.08,37.04,1.43,45.24,20.29,8.2,18.86-.73,46.91-17.89,50.29,6.81,21.32-7.85,45.73-25.69,52.27s-36.98.2-54.59-7.19c-15.9,10.27-34.08,16.65-51.84,13.41-17.76-3.24-34.81-17.47-40.63-38.37-47.32,4.22-16.48-94.75,7.37-107.18Z"/><path class="cls-4" d="M4214.48,834.24c12.26-15.63,36.52-16.35,43.71,3.99.61-17.96,14.43-31.21,28.06-33.01,13.63-1.8,26.99,4.91,39.74,11.5,10.56,5.45,22.61,13.18,24.62,27.83,27.06-12.1,56.91-13.22,84.46-3.17,10.32,3.77,21.07,9.88,26.4,22.08,5.33,12.19,1.7,31.41-8.79,34.26,18.14,7.63,33.54,27.12,38.35,51.3,4.8,24.18-2.05,52.21-17.67,66.5-15.63,14.29-39.21,12.29-52.22-5.97-36.16,57.11-103.19,75.91-153.99,43.19-12.38-7.97-24.69-20.41-27.2-38.2-14.67,16.93-37.1,17.68-55.38,8.62-22.96-11.38-42.35-39.96-41.65-72.15.81-37.23,29.22-29.95,41.7-53.46-12.69-21.51,14.5-43.72,29.88-63.33Z"/><path class="cls-2" d="M4470.06,809.23c7.26-17.69,24.89-26.34,41.23-32.7,8.87-3.45,18.08-6.72,27.44-5.95,9.36.77,18.98,6.49,22.38,16.36,28.53-14.23,62.06-15.2,91.2-2.63,3.39,1.46,6.92,3.29,8.85,6.75,1.16,2.08,1.63,4.58,2.85,6.6,1.77,2.92,4.81,4.43,7.63,5.98,29.99,16.51,49.29,54.92,46.44,92.42-.72,9.47-3,19.38-9.11,25.93-6.11,6.55-16.92,8.13-22.74,1.25-7.08,26.25-27.45,47.35-51.23,53.07-23.78,5.73-50.02-4.16-65.98-24.85-38.64,22.16-90.11,10.63-118.32-26.5-5.57-7.34-10.39-15.78-11.95-25.28-1.56-9.5.64-20.2,7.15-26.47-32.84-50.01,24.14-63.99,24.14-63.99Z"/><path class="cls-4" d="M4335.7,654.13c28.83-9.67,61.15-1.99,84.98,20.2,3.23-5.2,8.65-7.4,13.73-9.32,9.32-3.53,19.01-7.1,28.67-5.5,9.67,1.59,19.33,9.88,20.73,21.76,10.11.59,19.36,7.75,26.15,16.99s11.47,20.47,16.07,31.57c2.45,5.91,4.97,12.23,4.48,18.83-.89,11.84-10.63,19.13-19.26,24.49,4.26,11.11-1.77,24.39-9.64,31.94-16.22,15.56-38.78,16.26-59.1,12.34-7.07-1.36-15.96-6.2-14.98-14.93-22.28,16.68-49.51,23-75.23,17.68-11.43-2.36-22.95-7.23-31.27-17.17-8.32-9.93-12.71-25.77-8.37-39-75.81-41.4-10.86-98.52,23.04-109.9Z"/><path class="cls-6" d="M450.85,2385.9s-549.2-498.79,236.58-614.51c680.09-100.15,1764.95,175.57,2812.38,155.29,1448.86-28.04,1471.4,387.39,1048.93,486.52-315.65-10.46-960.79.65-1949.15,0-958.47-.63-2052.84,4.88-2148.74-27.3Z"/><path class="cls-7" d="M1402.08,1429.11c8.21-12.73,18.21-22.34,28.38-31.03,4.61-3.94,9.29-7.68,13.93-11.53,3.6-2.99,7.12-6,10.2-10.01,10.25,4.78,20.36,2.75,30.44-.09,5.36-1.51,16.14-10.43,15.92-10.56-.91-.53-1.31-1.31-2.24-.81-20.68,11.17-31.86,10.4-40.73,6.24,7.44-13.22,11.49-30.68,14.16-48.09,1.48-9.66,2.64-19.68,3.04-29.78.07-1.81-1.82-2.09-1.89-.21-.48,12.15-3.61,24.23-5.69,35.68-3.11,17.1-8.58,34-18.15,43.94-3.96,4.11-8.44,7.26-12.66,10.72-4.94,4.05-9.87,8.15-14.66,12.58-3.04,2.81-6.12,5.83-9.13,9.08-.29-2.68-.57-5.37-.84-8.05-.76-7.72-1.58-15.43-2.43-23.13-1.51-13.77-2.77-26.08-1.85-39.72.55-8.23,2.25-16.47,4.59-22.82.81-2.19,3.69-11.6,4.06-13.27.08-.35.6-2.99-.16-1.83-2.19,3.35-3.86,7.75-5.31,11.97-2.95,8.58-5,18.05-5.88,28-1.25,14.24.33,28.34,1.92,42.8,1.07,9.74,1.97,19.5,3.03,29.25-9.93,11.4-18.8,25.47-23.11,43.05-5.13-24.72-10.38-47.45-14.39-62.37-3.8-16.02-12.28-38.97-13.24-46.12-1.7-12.72-5.66-20.99-10.58-24.94-3.23-2.59-6.8-2.97-10.14-4.89.07-.22.14-.45.19-.71,1.11-5.96,1.92-12.08,2.5-18.19,1.35-13.99.39-40.35.39-40.35-.04-1.44-1.11-.35-1.06,1.43.04,1.45.06,2.93.07,4.41.14,16.65-.6,35.21-3.58,52.44-2.75-1.96-5.34-4.73-7.69-8.41-3.58-5.63-6.57-13.55-8.51-23.33-.77-3.88-1.49-8.19-1.74-12.82-.05-1.05-1.03,2.27-1.02,3.28.08,5.9.52,10.4,1.53,15,1.79,8.15,4.04,14.68,6.91,19.81-1.78-.64-3.52-1.73-5.2-2.71-1.86-1.09-3.7-2.27-5.51-3.6-.28-.2-.77,2.17-1.04,2.6-.06.1,3.3,2.3,5.21,3.41,2.51,1.45,6.41,4.38,9.4,4.69,2.53,3.34,5.3,5.73,8.21,7.35,3.47,1.94,7.16,2.26,10.43,5.36,4.63,4.4,3.82,13.64,5.1,26.43.42,4.24,2.31,14.2,4.36,24.22,0,0,0,0-.01,0,.02.07.04.18.07.27.15.75.31,1.5.46,2.25,2.06,11.05,8.08,52.14,13.19,88.23-8.23-17.05-17.72-26.06-25.99-31.73-3.03-2.07-6.03-3.8-9.02-5.46-2.56-1.42-5.13-2.45-7.75-4.59-3-2.45-6.05-6.74-9.02-12.1.08-.37.13-.67.12-.85-.01-.31-.42-.5-.92-.61-3.02-5.66-5.95-12.37-8.67-19.36-3.78-9.69-8.13-19.52-11.46-30.53-.51-1.7-1.19-.66-.69.98,2.77,9.15,5.81,17.9,8.89,26.19,2.93,7.88,6.01,15.62,9.2,22.5-8.52-.38-18-4.36-32.6-23.01-.63-.81-1.15-.36-2.03-.35-.21,0,6.35,11.83,10.35,15.39,7.88,7.03,16,13.37,26.2,13.62.12,0,.29-.26.49-.67,2.34,4.63,4.73,8.74,7.16,12.03,2.95,4,5.71,5.66,8.51,7.26,2.82,1.61,5.63,3.1,8.46,4.8,6.25,3.76,12.66,8.43,19.18,16.74,3.98,5.07,8.45,17.04,12.47,30.15,2.83,20.28,4.94,36,5.19,38.81,3.03,35.09,3.45,61.92,1.11,96.35-5.59-7.16-12.68-12.58-20.04-16.82-.59-6.52-1.3-13.02-1.88-19.54-.86-9.68-1.67-19.13-4.73-28.11-2.14-6.27-5.13-12.01-8.7-17-1.76-2.45-3.71-4.98-5.92-6.72-.77-.6.03,1.01.14,1.22.53,1.01,4.17,6.54,5.12,7.81,2.76,3.66,5.3,8.67,6.93,13.89,2.71,8.66,3.51,16.88,4.33,26.1.46,5.16.93,10.32,1.46,15.46.18,1.79.36,3.59.52,5.38-2.84-1.52-5.69-2.88-8.5-4.1-4.41-1.93-8.88-3.63-13.36-5.3-3.83-1.42-7.81-2.59-11.52-4.48-8.97-4.58-15.74-14.47-20.67-24.94-3.3-7.01-7.52-14.23-9.67-22.01-.33-1.2-1.78-.66-1.46.5,1.79,6.47,4.16,12.73,6.73,18.7,4.63,10.76,10.36,21.29,18.14,28.4-6.37,4.43-15.04,7.1-32.93,3.89-.8-.14-1,.44-1.64.96-.15.12,9.62,3.81,14.05,3.74,8.34-.12,16.58-.78,23.94-5.87,3,2,6.21,3.27,9.48,4.5,4.21,1.59,8.44,3.1,12.63,4.76,9.26,3.65,18.52,7.93,26.83,14.58,4.09,3.28,7.33,9.53,9.82,16.71-.99,12.09-2.28,25.22-3.88,39.98-7.29,66.85-1.89,241-1.89,241h51.04s-14.68-134.6-15.92-183.26c-.25-9.87-1.23-60.26-2.05-101.99,12.86-11.57,16.89-21.43,21.66-30.67,4.65-9.03,7.93-16.97,10.97-27.12.32-1.08-.43-2.13-1.16-1.73-.9.5-1.04.65-1.39,1.82-5.93,19.8-15.48,41.43-30.2,51.55-.24-12.35-.47-23.67-.65-32.62,4.32-11.42,10.28-23.19,17-27.52,6.97-4.49,14.54-6.23,21.81-9.58,6.08-2.8,11.96-6.35,17.46-10.8,6.15-1.47,14.39-6.01,19.65-8.48,4.01-1.89,11.09-5.47,10.97-5.55-.51-.34-1.29-2.63-1.88-2.31-3.83,2.08-7.71,4.02-11.61,5.86-3.54,1.68-7.21,3.49-10.94,4.84,6.36-6.45,11.62-14.1,16.06-23.29,2.5-5.17,3.83-10.02,4.55-16.19.12-1.05-1.55-4.13-1.76-3.02-.96,4.91-2.83,9.67-4.77,14-4.89,10.91-11.75,20.3-19.6,27.53-5.13,4.73-10.7,8.6-16.5,11.7-4.44-16.78-4.19-35.79-2.33-53.16.16-1.54.34-3.09.56-4.62.28-1.87-1.81-2.59-2.03-1.08,0,0-4.45,27.79-3.03,41.82.62,6.13,1.68,12.19,3.39,17.96.07.25.18.47.31.67-6.99,3.28-14.33,5.05-21.16,8.98-6.25,3.59-11.94,8.69-16.51,15.19,0-.31-.01-.59-.02-.85-.42-17.03-5.33-49.16-11.59-82.72-.83-20.67.25-46.88,7.89-58.73Z"/><path class="cls-6" d="M1242.26,1446.54c-3.05,1.73-6.46,4.43-6.56,8.67-14.3-3.96-30.86-7-42.19,4.79-7.11,7.39-10.43,19.08-12.68,30.41-2.27,11.41-3.73,23.71-.54,34.76,5.6,19.4,23.52,28.3,39.74,29.28-2.38-.84-4.6,2.64-4.37,5.77.23,3.13,2.04,5.66,3.86,7.78,13.3,15.44,31.74,21.35,49.6,24.2,13.67,2.18,27.65,2.87,41.14-.71,13.49-3.58,26.53-11.72,35.55-24.97,8.77,7.64,20.19,8.29,30.75,6.66,9.27-1.44,18.69-4.62,26-12.01,14.79-14.94,16.82-44.59,7.57-65.55-7.97-18.06-23.27-30.54-39.49-32.23-1.85-.19-8.54-10.38-10.89-12.16-4.52-3.43-9.58-5.75-14.78-6.8-5.16-1.04-10.37.92-15.38-.03-5.07-.96-10.39-4.83-15.5-6.35-23.82-7.07-49.46-4.17-71.83,8.5Z"/><path class="cls-2" d="M1440.75,1442.97c11.26-6.07,24.77-1.47,34.34,8.23,1.92-7.76,7.87-13.01,14.07-14.95,6.2-1.94,12.71-1.13,19.06-.29,4.65.61,9.43,1.27,13.59,3.99,4.16,2.72,7.62,8.01,7.54,13.96,10.69-4.04,23.78.95,29.04,13.47,5.26,12.52-.47,31.14-11.48,33.39,4.37,14.15-5.04,30.36-16.49,34.7-11.45,4.34-23.74.14-35.04-4.77-10.21,6.82-21.88,11.05-33.28,8.9-11.4-2.15-22.35-11.6-26.08-25.48-30.38,2.8-10.58-62.9,4.73-71.16Z"/><path class="cls-2" d="M1229.79,1280.38c7.87-10.38,23.44-10.86,28.06,2.65.39-11.92,9.26-20.72,18.01-21.92,8.75-1.19,17.33,3.26,25.51,7.63,6.78,3.62,14.51,8.75,15.8,18.48,17.37-8.03,36.53-8.78,54.22-2.1,6.62,2.5,13.53,6.56,16.94,14.66,3.42,8.09,1.09,20.85-5.65,22.74,11.64,5.07,21.53,18.01,24.62,34.06,3.08,16.06-1.31,34.66-11.35,44.15-10.03,9.49-25.17,8.16-33.52-3.97-23.21,37.91-66.24,50.4-98.85,28.68-7.95-5.29-15.85-13.55-17.46-25.36-9.41,11.24-23.82,11.74-35.55,5.73-14.74-7.55-27.19-26.53-26.74-47.9.52-24.72,18.76-19.89,26.77-35.49-8.15-14.28,9.31-29.03,19.18-42.04Z"/><path class="cls-6" d="M1393.86,1263.77c4.66-11.75,15.98-17.49,26.47-21.71,5.69-2.29,11.61-4.46,17.61-3.95,6.01.51,12.18,4.31,14.37,10.86,18.32-9.45,39.84-10.09,58.55-1.74,2.18.97,4.44,2.18,5.68,4.48.74,1.38,1.04,3.04,1.83,4.38,1.14,1.94,3.09,2.94,4.9,3.97,19.25,10.96,31.64,36.46,29.81,61.36-.46,6.29-1.92,12.87-5.85,17.22s-10.86,5.4-14.6.83c-4.54,17.42-17.62,31.43-32.89,35.24-15.27,3.8-32.11-2.76-42.35-16.5-24.8,14.71-57.85,7.06-75.95-17.59-3.58-4.87-6.67-10.48-7.67-16.78-1-6.31.41-13.41,4.59-17.57-21.08-33.2,15.5-42.48,15.5-42.48Z"/><path class="cls-6" d="M1307.6,1160.8c18.51-6.42,39.26-1.32,54.55,13.41,2.07-3.45,5.55-4.91,8.81-6.19,5.98-2.34,12.2-4.71,18.41-3.65,6.21,1.06,12.41,6.56,13.31,14.45,6.49.39,12.43,5.15,16.79,11.28,4.36,6.13,7.36,13.59,10.31,20.96,1.57,3.92,3.19,8.12,2.87,12.5-.57,7.86-6.82,12.7-12.36,16.26,2.73,7.38-1.13,16.19-6.19,21.21-10.41,10.33-24.9,10.79-37.94,8.19-4.54-.91-10.24-4.12-9.62-9.91-14.3,11.08-31.78,15.27-48.3,11.74-7.34-1.57-14.73-4.8-20.08-11.4s-8.16-17.11-5.37-25.89c-48.67-27.49-6.97-65.41,14.79-72.96Z"/><rect class="cls-1" y="2018.72" width="5000" height="1242.64"/></svg>