<?xml version="1.0" encoding="UTF-8"?><svg id="Layer_1" xmlns="http://www.w3.org/2000/svg" width="160" height="37.73" xmlns:xlink="http://www.w3.org/1999/xlink" viewBox="0 0 160 37.73"><defs><style>.cls-1{fill:none;}.cls-2{fill:#fff;}.cls-3{fill:#0098d8;}.cls-4{clip-path:url(#clippath);}</style><clipPath id="clippath"><rect class="cls-1" width="74.09" height="37.73"/></clipPath></defs><g class="cls-4"><path class="cls-3" d="M35.37,37.44c-.99,0-1.77-.69-1.77-1.77s.69-1.77,1.77-1.77,1.77.69,1.77,1.77-.69,1.77-1.77,1.77M35.37,33.5c-1.18,0-2.07.99-2.07,2.07s.99,2.07,2.07,2.07,2.07-.99,2.07-2.07-.89-2.07-2.07-2.07"/><path class="cls-3" d="M35.37,35.47h-.39v-.79h.69c.3,0,.59,0,.59.39s-.49.39-.79.39M36.45,35.07c0-.39-.2-.69-.79-.69h-.99v2.36h.3v-1.08h.49l.69,1.08h.39l-.69-1.08c.39,0,.69-.2.69-.69"/><polygon class="cls-3" points="27.09 10.44 27.09 0 10.44 0 10.44 10.44 0 10.44 0 27.09 10.44 27.09 10.44 37.54 27.09 37.54 27.09 27.09 37.54 27.09 37.54 10.44 27.09 10.44"/><path class="cls-3" d="M71.23,37.44c-.99,0-1.77-.69-1.77-1.77s.69-1.67,1.77-1.67,1.67.69,1.67,1.67-.69,1.77-1.67,1.77M71.23,33.6c-1.18,0-2.07.89-2.07,2.07s.89,2.07,2.07,2.07,2.07-.89,2.07-2.07-.89-2.07-2.07-2.07"/><path class="cls-3" d="M71.13,35.57h-.39v-.79h.69c.3,0,.59,0,.59.39s-.49.39-.79.39M72.32,35.17c0-.39-.2-.69-.79-.69h-.99v2.36h.3v-1.08h.49l.69,1.08h.3l-.69-1.08c.39,0,.69-.2.69-.69"/><path class="cls-3" d="M71.03,0c-4.04,2.07-8.08,3.15-12.81,3.15s-8.67-1.08-12.71-3.15c-2.66,5.22-3.05,13.69-.79,20.79,2.17,6.8,6.5,13,13.6,16.95,7.09-3.94,11.33-10.15,13.6-16.95C74.19,13.69,73.79,5.22,71.13,0"/><path class="cls-3" d="M56.35,10.25c.2.1.2.39.39.3.1,0,.2-.1.39-.2h.2c-.3-.3-.99-.3-1.38-.3.1.2.2,0,.3.2"/></g><path class="cls-2" d="M90.05,16.16h-5.62l-.99,3.15h-4.33l6.21-16.95h3.84l6.31,16.95h-4.43s-.99-3.15-.99-3.15ZM85.42,13h3.65l-1.87-5.91s-1.77,5.91-1.77,5.91Z"/><path class="cls-2" d="M100.69,16.16h8.08v3.15h-13.2v-2.17l8.08-11.63h-8.08v-3.15h13.2v2.07l-7.98,11.72h-.1Z"/><path class="cls-2" d="M115.37,19.31V2.36h6.11c2.17,0,3.84.39,4.93,1.18,1.18.79,1.67,1.97,1.67,3.45s-.2,1.58-.59,2.27c-.39.59-.99,1.08-1.77,1.38.89.2,1.58.69,2.07,1.28.49.59.69,1.38.69,2.36,0,1.67-.49,2.86-1.58,3.74-1.08.79-2.56,1.28-4.63,1.28,0,0-6.9,0-6.9,0ZM119.41,9.46h2.17c.89,0,1.48-.2,1.87-.49s.59-.79.59-1.38-.2-1.18-.59-1.58c-.39-.3-1.08-.49-1.97-.49h-1.97v3.94h-.1ZM119.41,12.12v4.04h2.66c.69,0,1.28-.2,1.67-.49s.59-.79.59-1.38c0-1.38-.69-2.17-2.07-2.17,0,0-2.86,0-2.86,0Z"/><path class="cls-2" d="M134.09,19.31h-3.94V1.48h3.94v17.83Z"/><path class="cls-2" d="M143.35,18.03c-.79,1.08-1.97,1.58-3.35,1.58s-2.46-.39-3.15-1.18c-.69-.79-1.08-1.97-1.08-3.45V6.8h3.94v8.18c0,1.08.49,1.58,1.58,1.58s1.58-.3,1.87-.99V6.8h3.94v12.61h-3.65v-1.38h-.1Z"/><path class="cls-2" d="M154.78,19.61c-1.97,0-3.45-.59-4.73-1.77s-1.77-2.66-1.77-4.53v-.3c0-1.28.2-2.46.69-3.45s1.18-1.77,2.07-2.27,1.97-.79,3.25-.79,3.15.59,4.14,1.67c.99,1.08,1.58,2.66,1.58,4.63v1.48h-7.78c.1.69.49,1.28.89,1.67.49.39,1.08.59,1.87.59,1.28,0,2.17-.39,2.96-1.28l1.77,2.07c-.49.69-1.18,1.18-2.07,1.58s-1.87.59-2.86.59v.1ZM154.38,9.56c-1.18,0-1.87.79-2.07,2.27h3.94v-.3c0-.59-.1-1.08-.49-1.48s-.79-.49-1.48-.49h.1Z"/><path class="cls-2" d="M81.08,28.67v4.33h-1.48v-11.03h4.04c1.18,0,2.17.3,2.86.89.69.59.99,1.38.99,2.46s-.3,1.87-.99,2.46-1.58.89-2.86.89c0,0-2.56,0-2.56,0ZM81.08,27.49h2.56c.79,0,1.38-.2,1.77-.59s.59-.89.59-1.58-.2-1.18-.59-1.58-.99-.59-1.67-.59h-2.66s0,4.33,0,4.33Z"/><path class="cls-2" d="M93.79,32.91c0-.2-.1-.49-.2-.89-.69.69-1.38.99-2.36.99s-1.48-.2-1.97-.69-.79-.99-.79-1.77.3-1.48.99-1.97,1.58-.69,2.76-.69h1.38v-.69c0-.49-.1-.89-.39-1.18-.3-.3-.69-.39-1.28-.39s-.89.1-1.28.39c-.3.3-.49.59-.49.89h-1.38c0-.39.1-.79.39-1.18s.69-.69,1.18-.89c.49-.2,1.08-.3,1.67-.3.99,0,1.67.2,2.17.69s.79,1.08.79,1.97v3.74c0,.79,0,1.38.3,1.77h0c0,.1-1.48.1-1.48.1v.1ZM91.43,31.92c.39,0,.89-.1,1.28-.3s.69-.49.89-.89v-1.67h-1.08c-1.67,0-2.56.49-2.56,1.48s.1.79.39.99c.3.2.69.39,1.08.39Z"/><path class="cls-2" d="M101.48,30.74c0-.39-.1-.69-.39-.89-.3-.2-.79-.39-1.48-.49-.69-.2-1.28-.3-1.67-.59s-.69-.49-.89-.79c-.2-.3-.3-.59-.3-1.08,0-.69.3-1.28.89-1.67.59-.49,1.28-.69,2.17-.69s1.67.2,2.27.69c.59.49.89,1.08.89,1.87h-1.38c0-.39-.2-.69-.49-.99s-.69-.39-1.18-.39-.89.1-1.18.3c-.3.2-.39.49-.39.89s.1.59.39.79c.3.2.79.3,1.48.49s1.28.3,1.67.59.79.49.99.79.3.69.3,1.08c0,.69-.3,1.28-.89,1.77s-1.38.69-2.27.69-1.28-.1-1.77-.39c-.49-.2-.89-.59-1.18-.99-.3-.39-.39-.89-.39-1.38h1.38c0,.49.2.89.59,1.08.39.3.79.39,1.38.39s.99-.1,1.28-.3.49-.49.49-.89l-.3.1Z"/><path class="cls-2" d="M109.06,30.74c0-.39-.1-.69-.39-.89-.3-.2-.79-.39-1.48-.49-.69-.2-1.28-.3-1.67-.59s-.69-.49-.89-.79c-.2-.3-.3-.59-.3-1.08,0-.69.3-1.28.89-1.67.59-.49,1.28-.69,2.17-.69s1.67.2,2.27.69c.59.49.89,1.08.89,1.87h-1.38c0-.39-.2-.69-.49-.99s-.69-.39-1.18-.39-.89.1-1.18.3c-.3.2-.39.49-.39.89s.1.59.39.79c.3.2.79.3,1.48.49s1.28.3,1.67.59.79.49.99.79.3.69.3,1.08c0,.69-.3,1.28-.89,1.77s-1.38.69-2.27.69-1.28-.1-1.77-.39c-.49-.2-.89-.59-1.18-.99-.3-.39-.39-.89-.39-1.38h1.38c0,.49.2.89.59,1.08.39.3.79.39,1.38.39s.99-.1,1.28-.3.49-.49.49-.89l-.3.1Z"/><path class="cls-2" d="M118.82,28.97c0,1.28-.3,2.27-.89,3.05-.59.79-1.38,1.18-2.27,1.18s-1.77-.3-2.36-.99v3.94h-1.38v-11.33h1.28v.89c.59-.69,1.38-1.08,2.46-1.08s1.77.39,2.36,1.08c.59.79.89,1.77.89,3.05h0l-.1.2ZM117.44,28.77c0-.89-.2-1.67-.59-2.17s-.89-.79-1.58-.79-1.48.39-1.87,1.08v3.94c.39.79,1.08,1.08,1.87,1.08s1.18-.3,1.58-.79.59-1.28.59-2.36Z"/><path class="cls-2" d="M119.8,28.77c0-.79.2-1.48.49-2.17.3-.59.79-1.18,1.28-1.48.59-.39,1.18-.49,1.97-.49,1.08,0,1.97.39,2.66,1.18.69.79.99,1.77.99,3.05h0c0,.89-.2,1.58-.49,2.27-.3.59-.79,1.08-1.28,1.48-.59.39-1.18.49-1.97.49-1.08,0-1.97-.39-2.66-1.18s-.99-1.77-.99-3.05h0v-.1ZM121.28,28.97c0,.89.2,1.67.59,2.17.39.59.99.79,1.67.79s1.28-.3,1.67-.79c.39-.59.59-1.38.59-2.36s-.2-1.58-.59-2.17-.99-.79-1.67-.79-1.28.3-1.67.79c-.39.59-.59,1.38-.59,2.36Z"/><path class="cls-2" d="M132.61,26.01h-.69c-.89,0-1.58.39-1.87,1.18v5.81h-1.38v-8.18h1.38v.99c.49-.69,1.08-1.08,1.97-1.08s.49,0,.59.1v1.28-.1Z"/><path class="cls-2" d="M135.76,22.76v1.97h1.48v1.08h-1.48v5.12c0,.3,0,.59.2.69s.39.2.69.2h.69v1.08c-.39.1-.69.2-1.08.2-.59,0-1.08-.2-1.38-.59-.3-.39-.49-.89-.49-1.58v-5.02h-1.48v-1.08h1.48v-1.97h1.38v-.1Z"/></svg>